<svg width="14" height="20" viewBox="0 0 14 20" fill="none" xmlns="http://www.w3.org/2000/svg">
<g clip-path="url(#clip0_111_1169)">
<path d="M10.9376 0L9.83206 2.61664C9.46276 3.48822 9.0862 4.35698 8.70242 5.22287C8.67155 5.30758 8.60676 5.37723 8.52217 5.41662H5.81882L7.14096 2.34748H4.14885C3.78937 2.36792 3.42909 2.32266 3.08746 2.21415C2.7504 2.10771 2.43864 1.93909 2.17001 1.7179C1.90739 1.50156 1.69454 1.23586 1.54482 0.937491C1.39795 0.644385 1.31873 0.324713 1.3125 0H10.9376Z" fill="#A7CB30"/>
<path d="M0 12.7186H2.64691V13.7935C2.73554 14.5553 3.043 15.279 3.53549 15.8852C4.02884 16.4921 4.68779 16.9582 5.44039 17.2327C6.19367 17.5074 7.01159 17.5802 7.80528 17.4433C8.59898 17.3063 9.33809 16.9649 9.94233 16.456C10.5449 15.9478 10.9889 15.2913 11.2255 14.5585C11.4618 13.826 11.4819 13.046 11.2824 12.304C11.0829 11.5613 10.6724 10.8853 10.0959 10.3502C9.51835 9.81434 8.79738 9.43975 8.01162 9.26733C7.61789 9.20176 7.2191 9.16761 6.81941 9.16525H4.435C4.42633 9.09773 4.42633 9.02945 4.435 8.96192C4.70932 8.26026 4.99501 7.57027 5.28158 6.86861C5.28158 6.78944 5.42464 6.68736 5.50821 6.68736C6.63548 6.6233 7.76665 6.70699 8.87 6.93611C10.0836 7.25666 11.1842 7.88243 12.0564 8.74776C12.927 9.61159 13.5365 10.6834 13.8204 11.8498C14.1039 13.0155 14.051 14.2325 13.6673 15.3719C13.283 16.5123 12.5826 17.5328 11.6399 18.3256C10.6956 19.1196 9.54437 19.657 8.30693 19.8814C7.06879 20.1064 5.78996 20.0097 4.60432 19.6027C3.41988 19.1962 2.37226 18.4934 1.57152 17.5681C0.77204 16.6441 0.249615 15.5316 0.0595007 14.3481C0.0358754 13.839 0.0358755 13.2956 0 12.719V12.7186Z" fill="#FE385E"/>
</g>
<defs>
<clipPath id="clip0_111_1169">
<rect width="14" height="20" fill="white"/>
</clipPath>
</defs>
</svg>
