<svg width="16" height="20" viewBox="0 0 16 20" fill="none" xmlns="http://www.w3.org/2000/svg">
    <g clip-path="url(#3sdol8s6da)" fill="#69808C">
        <path d="M1.413 4.25H.286C.223 3.48.722 2.647 1.46 2.284c.597-.294 1.234-.36 1.888-.35.515.006 1.033.044 1.507.263.637.29.967.806.983 1.493.019.882.006 1.763.012 2.641.004.503-.003 1.013.025 1.516.016.306.148.384.453.34a3.72 3.72 0 0 0 .238-.05c0 .275.004.544-.003.81 0 .04-.053.093-.097.112-.38.153-.766.185-1.156.053a.727.727 0 0 1-.483-.534c-.035-.131-.05-.266-.073-.394-.204.169-.389.356-.606.497-.719.478-1.526.578-2.361.469a3.06 3.06 0 0 1-.795-.219c-.565-.244-.88-.697-.96-1.294C-.073 6.857.06 6.15.76 5.66c.367-.256.788-.381 1.221-.465.647-.122 1.297-.222 1.944-.341.135-.025.27-.072.387-.138.427-.221.537-.821.241-1.25a1.095 1.095 0 0 0-.706-.456c-.603-.122-1.194-.106-1.771.135-.39.162-.562.478-.628.868-.01.078-.02.15-.035.238zm3.27 1.256c-.236.072-.46.16-.689.203-.358.069-.716.116-1.077.166-.402.056-.81.115-1.165.325-.433.256-.59.647-.518 1.131.063.444.355.69.77.794.53.131 1.058.097 1.57-.1.577-.225 1.017-.6 1.099-1.238.053-.422.01-.86.01-1.28zM8.79 18.947h1.46V20H7.637V1.06H6.196V0H8.79v18.947z"/>
        <path d="M14.923 9.525v-.91h1.061c.007.041.016.082.016.122-.003 2.163.003 4.325-.01 6.491-.002.681-.134 1.34-.499 1.935-.377.612-.945.953-1.636 1.096-.926.194-1.85.175-2.732-.203-.738-.319-1.203-.862-1.256-1.71h1.146c.028.426.292.685.644.854.616.297 1.269.363 1.919.147.672-.222 1.064-.725 1.202-1.397.101-.497.123-1.012.18-1.516a2.383 2.383 0 0 1-.073-.018c-.066.106-.125.215-.2.312-.506.675-1.225.91-2.03.9-1.513-.019-2.622-.94-2.948-2.466-.233-1.087-.15-2.156.38-3.15.518-.965 1.35-1.475 2.452-1.55.607-.04 1.184.044 1.684.4.257.182.461.432.7.663zm-4.12 2.672c.05.25.088.712.232 1.147.239.719.723 1.206 1.526 1.275.87.075 1.552-.24 1.932-1.031.48-1 .515-2.038.069-3.06-.298-.684-.848-1.044-1.608-1.066-.722-.021-1.31.232-1.715.844-.339.513-.399 1.094-.436 1.89z"/>
    </g>
    <defs>
        <clipPath id="3sdol8s6da">
            <path fill="#fff" d="M0 0h16v20H0z"/>
        </clipPath>
    </defs>
</svg>
