<svg width="18" height="20" viewBox="0 0 18 20" fill="none" xmlns="http://www.w3.org/2000/svg">
<g clip-path="url(#clip0_111_1172)">
<path d="M9.43504 0C9.48636 1.35444 10.216 2.50851 10.6898 3.7248C12.2776 7.92664 13.9035 12.1155 15.5422 16.3044C16.0669 17.6466 16.4258 19.114 18 19.8662H11.4839C11.4329 19.4651 11.6888 19.3773 11.945 19.3648C13.2506 19.3396 13.3919 18.5622 13.0843 17.5962C12.7386 16.4799 12.2907 15.3888 11.9191 14.2725C11.7273 13.6707 11.3176 13.5329 10.7288 13.5577C9.89651 13.5955 9.06424 13.5703 8.21924 13.5703C4.50666 13.5703 4.22499 13.8588 3.46951 17.4837C3.17511 18.9007 4.09689 19.277 5.12092 19.7662C3.40546 20.1173 1.75405 20.017 0 19.8288C2.22786 18.6122 2.48368 16.3296 3.25189 14.3733C4.92877 10.0963 6.51613 5.78146 8.11661 1.46703C8.28291 1.00296 8.62863 0.564072 8.48779 0.0122222C8.80804 -2.75947e-09 9.11517 0 9.43504 0ZM8.2451 4.26443C7.1821 7.16146 6.27343 9.68219 5.30034 12.3289C7.00307 12.3289 8.51364 12.2911 10.0115 12.3414C10.9337 12.3663 11.2153 12.1785 10.8438 11.2377C9.97329 9.05516 9.20508 6.83554 8.2451 4.26443Z" fill="#A1AEBA"/>
</g>
<defs>
<clipPath id="clip0_111_1172">
<rect width="18" height="20" fill="white"/>
</clipPath>
</defs>
</svg>
