<svg width="20" height="14" viewBox="0 0 20 14" fill="none" xmlns="http://www.w3.org/2000/svg">
    <g clip-path="url(#6eukp660ma)">
        <path d="M16.245.004c.291.055.582.099.87.16.666.144 1.294.385 1.847.854.992.835 1.282 2.046.83 3.434-.331 1.014-.89 1.86-1.525 2.64-.853 1.047-1.826 1.922-2.862 2.705-.139.106-.24.073-.284-.106a.9.9 0 0 1-.025-.366c.117-.791.246-1.574.376-2.365a.333.333 0 0 1 .031-.08h.922c.048-.323.098-.642.152-.986h-.957c.07-.487.139-.944.209-1.424h-1.02c-.07.465-.14.934-.216 1.417h-.736c-.053.33-.1.648-.151.989h.752c-.133.845-.269 1.662-.386 2.482-.06.424-.063.853.221 1.219-.06.044-.113.08-.16.117-2.187 1.399-4.49 2.427-6.94 2.97-.635.135-1.277.197-1.918.3-.038.007-.07.025-.101.036h-.205c-.032-.011-.06-.044-.092-.044H3.92c-.032 0-.06.026-.092.044h-.205c-.044-.011-.079-.037-.117-.044-.707-.08-1.412-.23-2.062-.597-.73-.406-1.239-1.028-1.4-1.988-.006-.044-.031-.08-.044-.117v-.996c.01-.029.032-.062.038-.098a6.05 6.05 0 0 1 .707-1.985c.69-1.234 1.599-2.204 2.603-3.075.294-.256.6-.498.904-.74.01.008.022.019.038.026-.323 2.134-.651 4.276-.973 6.421h.976c.044-.278.085-.541.13-.845.176.337.381.586.66.74.742.428 1.686.278 2.33-.392.623-.652.885-1.487.882-2.453-.006-.941-.414-1.673-1.096-1.966-.761-.322-1.611-.08-2.12.622a1.39 1.39 0 0 1-.113.136c0-.055-.007-.092 0-.125.154-.96.306-1.911.473-2.867a.397.397 0 0 1 .155-.223 24.385 24.385 0 0 1 3.661-1.922C10.806.846 12.392.329 14.037.106c.2-.025.398-.07.597-.106.537.004 1.074.004 1.611.004zM13.09 8.735c.022-.424.076-.834.06-1.233-.038-.872-.506-1.501-1.235-1.68a2.143 2.143 0 0 0-1.788.318c-.866.59-1.358 1.772-1.204 3.031.108.89.575 1.443 1.315 1.691.331.114.676.125 1.02.07.613-.099 1.121-.417 1.544-.96-.199-.215-.385-.424-.575-.633-.116.118-.22.238-.338.323-.492.373-1.01.435-1.541.106-.344-.216-.509-.63-.439-1.04 1.042.007 2.091.007 3.18.007z" fill="#EC652D"/>
        <path d="M3.828 13.996c.032-.01.06-.044.092-.044h.957c.032 0 .06.026.092.044h-1.14z" fill="#F18B58"/>
        <path d="M7.22 8.08c-.024.776-.258 1.417-.912 1.761-.262.136-.543.15-.821.08-.446-.113-.752-.515-.79-1.087-.044-.736.17-1.354.692-1.805a1.157 1.157 0 0 1 1.074-.26c.407.092.707.517.751 1.033.016.091.007.187.007.278z" fill="#EC652D"/>
        <path d="M10.007 7.864c.092-.853 1.027-1.457 1.725-1.113.376.18.569.652.455 1.113h-2.18z" fill="#EC662F"/>
    </g>
    <defs>
        <clipPath id="6eukp660ma">
            <path fill="#fff" d="M0 0h20v14H0z"/>
        </clipPath>
    </defs>
</svg>
