<svg width="18" height="20" viewBox="0 0 18 20" fill="none" xmlns="http://www.w3.org/2000/svg">
<g clip-path="url(#clip0_111_1090)">
<path d="M1.58242 20H13.0549L15.478 10.3286C15.478 10.2817 15.478 10.2817 15.5275 10.1878L18 0H6.62637L4.5989 7.98122L2.17582 5.53991L0 14.2254L3.70879 11.784L1.58242 20ZM5.48901 9.62441L7.66484 1.03286H17.2088L15.033 9.62441H13.0055C13.0055 9.62441 12.8571 9.85916 12.7582 9.85916C12.7582 9.85916 12.6099 10 12.7582 10C12.9066 10 12.9066 10.3756 12.9066 10.3756H14.9341L12.6593 19.108H2.96703L5.24176 10.3756H7.17033L7.41758 9.67136H5.48901V9.62441ZM1.43407 12.5352L2.71978 7.46479L5.14286 9.9061L1.43407 12.5352Z" fill="#FAE307"/>
<path d="M13.5497 3.42737C13.7969 3.66211 14.0442 4.41329 13.9453 4.88277C13.698 5.86868 13.0552 8.26305 13.0552 8.26305C12.9068 8.63864 12.5607 9.48371 12.1651 9.71845C12.1651 9.71845 12.0167 9.85929 12.1651 9.85929C12.6596 10.2349 12.4123 11.1738 12.4123 11.1738L11.7695 13.8499C11.6211 14.5541 11.0277 16.8546 8.20903 16.7607H6.0332L9.59364 2.72314H12.1651C12.6596 2.81704 13.253 3.05178 13.5497 3.42737ZM12.264 5.02361C12.264 4.55413 11.8684 4.41328 11.6211 4.31939H10.9783L9.8409 9.06117C9.8409 9.06117 10.4838 9.06117 10.5827 9.06117C10.9783 8.92033 11.2255 8.82643 11.3244 8.35695L12.264 5.02361ZM10.731 11.6433C10.731 11.6433 10.8794 11.1738 10.8794 11.033C10.8794 10.7983 10.6321 10.5635 10.3849 10.5635C10.1376 10.5635 9.49474 10.5635 9.49474 10.5635L8.20903 15.3053H8.80243C9.19804 15.3053 9.69254 15.1645 9.8409 15.0706C9.98925 14.9297 10.0881 14.695 10.0881 14.6011L10.731 11.6433Z" fill="#FAE307"/>
</g>
<defs>
<clipPath id="clip0_111_1090">
<rect width="18" height="20" fill="white"/>
</clipPath>
</defs>
</svg>
