<svg width="20" height="16" viewBox="0 0 20 16" fill="none" xmlns="http://www.w3.org/2000/svg">
<g clip-path="url(#clip0_114_13759)">
<path d="M13.0656 6.56548C13.3526 6.17278 13.6295 5.79328 13.8875 5.42401H18.2868L20 3.10485H15.394C16.3815 1.44076 16.8149 0.306529 16.5283 0.0501226C16.4643 -0.00652531 16.353 -0.0163217 16.216 0.0266966C15.8751 0.12977 15.4576 0.442824 15.1649 0.672397C14.8656 0.905377 14.5248 1.2048 14.1489 1.54426C13.3204 2.30624 13.3555 2.28622 14.1012 1.63073C14.5183 1.26784 14.8526 1.01186 15.1042 0.881952C15.1683 0.848015 15.2357 0.821178 15.3052 0.801878C15.394 0.778878 15.4581 0.778878 15.4992 0.815508C15.6998 0.988433 15.3178 1.84028 14.5248 3.09846C13.6136 4.55214 12.1454 6.56548 10.4028 8.71171L10.2789 8.86505C9.40036 9.948 8.49326 11.0053 7.55859 12.0356H13.0627V8.76453H17.8913L19.5001 6.59232H13.0656V6.56548Z" fill="#69808C"/>
<path d="M10.4346 6.82485C10.5398 6.67152 10.6291 6.48879 10.6992 6.28563C10.7694 6.08289 10.8044 5.84309 10.8044 5.5803C10.8044 5.17439 10.7278 4.80852 10.5684 4.50569C10.4069 4.19463 10.1751 3.92953 9.89318 3.73349C9.60003 3.52394 9.24654 3.37103 8.83557 3.26796C8.425 3.16446 7.9598 3.11462 7.45016 3.11462H1.723L0.00285399 5.43378H7.56839C7.75635 5.43378 7.92188 5.47723 8.07804 5.5573C8.23093 5.63695 8.30758 5.78985 8.30758 6.00622C8.30758 6.2392 8.23093 6.39892 8.08456 6.479C7.93778 6.56546 7.76247 6.60209 7.56839 6.60209H0V12.0326H5.99788C5.8511 12.186 5.67579 12.3751 5.48824 12.5714C4.78412 13.307 3.84434 14.2355 3.11534 14.6644C3.04481 14.701 2.9812 14.7377 2.92698 14.7581C2.78713 14.8143 2.69132 14.8241 2.63424 14.7709C2.32193 14.4881 3.6152 12.7512 3.6152 12.7512C2.67542 13.8262 1.64676 15.5729 2.07649 15.949C2.15925 16.0223 2.29951 16.0154 2.49399 15.9358C2.6693 15.8625 2.88254 15.7394 3.1341 15.5567C3.23276 15.483 3.33469 15.4098 3.43988 15.3233C3.99111 14.894 4.68545 14.2917 5.48498 13.5268C5.9984 13.0389 6.50177 12.5396 6.99474 12.0292C7.9757 11.0113 9.03331 9.83997 10.0779 8.56858C10.2247 8.38543 10.3714 8.21251 10.508 8.02936C10.4664 7.98634 10.4252 7.93651 10.3837 7.89988C10.2338 7.75074 10.0617 7.62816 9.87402 7.53699C9.79125 7.50036 9.71501 7.46373 9.62246 7.43392C9.76923 7.38409 9.90908 7.30401 10.0526 7.20094C10.2022 7.11107 10.3298 6.97818 10.4346 6.82485ZM8.14449 9.58015C8.02014 9.69004 7.81017 9.73987 7.51702 9.73987H2.6534V8.51193H7.51988C7.81302 8.51193 8.01973 8.56177 8.14735 8.66527C8.2717 8.76834 8.34183 8.91784 8.34183 9.11419C8.33857 9.32034 8.27456 9.48049 8.14409 9.58015H8.14449Z" fill="#69808C"/>
</g>
<defs>
<clipPath id="clip0_114_13759">
<rect width="20" height="16" fill="white"/>
</clipPath>
</defs>
</svg>
