<svg width="16" height="20" viewBox="0 0 16 20" fill="none" xmlns="http://www.w3.org/2000/svg">
<g clip-path="url(#clip0_111_1106)">
<path fill-rule="evenodd" clip-rule="evenodd" d="M0 0H16V20H0V0ZM3.87523 16.9635V3.62044H7.80917C9.18899 3.62044 10.2752 3.91241 11.0385 4.52555C11.8018 5.13869 12.2128 6.0438 12.2128 7.24088C12.2128 7.82482 12.0661 8.40876 11.8018 8.93431C11.5083 9.43066 11.0679 9.81022 10.5394 10.0438C11.1853 10.1606 11.7725 10.5693 12.0954 11.1241C12.4477 11.708 12.6239 12.3796 12.5945 13.0511C12.5945 14.3358 12.2422 15.2993 11.5083 15.9416C10.7743 16.5839 9.71743 16.9343 8.36697 16.9343L3.87523 16.9635ZM6.31193 11.0657V14.8905H8.16147C8.63119 14.9197 9.07156 14.7445 9.3945 14.4234C9.68807 14.0438 9.83486 13.5474 9.8055 13.0511C9.83486 12.5547 9.71743 12.0292 9.45321 11.5912C9.18899 11.2409 8.77798 11.0365 8.33761 11.0657H6.31193ZM6.31193 9.25547H7.75046C8.22018 9.28467 8.66055 9.10949 8.98349 8.78832C9.27706 8.43796 9.45321 7.9708 9.3945 7.50365C9.42385 7.0073 9.27706 6.51095 8.95413 6.13139C8.60183 5.81022 8.10275 5.66423 7.63303 5.69343H6.31193C6.31193 5.72263 6.31193 9.25547 6.31193 9.25547Z" fill="#FFCD00"/>
</g>
<defs>
<clipPath id="clip0_111_1106">
<rect width="16" height="20" fill="white"/>
</clipPath>
</defs>
</svg>
