<svg width="20" height="20" viewBox="0 0 20 20" fill="none" xmlns="http://www.w3.org/2000/svg">
<g clip-path="url(#clip0_111_1109)">
<rect width="20" height="20" rx="5" fill="#259BFF"/>
<path fill-rule="evenodd" clip-rule="evenodd" d="M15.5564 5.55936V7.96009H7.71498C7.71498 7.96009 7.47966 7.94361 7.33727 8.12191C7.20252 8.29048 7.21381 8.52235 7.21381 8.52235L7.21348 8.85161H15.5412V11.201H7.21016L7.21248 11.5228C7.21248 11.5228 7.21978 11.7603 7.34524 11.8858C7.51882 12.0596 7.67847 12.0412 7.67847 12.0412H15.5564V14.442H6.55432C6.55432 14.442 5.60642 14.521 5.00834 13.8074C4.42818 13.1152 4.44544 12.2413 4.44544 12.2413L4.44677 7.85671C4.44677 7.85671 4.38868 6.8884 5.00668 6.13136C5.50353 5.52265 6.40663 5.55599 6.40663 5.55599L15.5564 5.55936Z" fill="white"/>
</g>
<defs>
<clipPath id="clip0_111_1109">
<rect width="20" height="20" fill="white"/>
</clipPath>
</defs>
</svg>
