<svg width="16" height="20" viewBox="0 0 16 20" fill="none" xmlns="http://www.w3.org/2000/svg">
<g clip-path="url(#clip0_111_1033)">
<path d="M2.96893 6.27518L7.85756 8.50274C7.74267 8.42783 5.41775 6.89652 4.70135 5.68469C3.96468 4.44422 4.01875 3.52543 4.64053 2.63749C5.26231 1.74955 6.80324 1.18991 9.14618 1.33753C11.4891 1.48515 14.0663 2.1792 15.9993 3.88017C15.9993 3.88017 14.3502 1.01364 10.1532 0.211632C5.95618 -0.590379 2.72563 1.02907 0.862542 2.68817C0.369174 3.12883 0.114604 3.54747 0.03125 3.94847C0.069548 5.16911 2.96893 6.27518 2.96893 6.27518Z" fill="#2F98D5"/>
<path d="M4.64053 17.3645C4.0165 16.4766 3.96468 15.5578 4.70135 14.3173C5.43803 13.0769 7.86207 11.4971 7.86207 11.4971L2.96893 13.7268C2.96893 13.7268 0.0672952 14.8329 0.03125 16.0535C0.114604 16.4546 0.369174 16.8732 0.862542 17.3138C2.72563 18.973 5.95392 20.5902 10.1509 19.7882C14.3502 18.9884 15.9993 16.1218 15.9993 16.1218C14.0663 17.8228 11.4891 18.5191 9.14618 18.6645C6.80324 18.8121 5.26231 18.2547 4.64053 17.3645Z" fill="#F9AE00"/>
<path d="M2.96967 13.7268L7.8628 11.4971C7.8628 11.4971 9.25279 10.77 9.25279 10.0495C9.25279 10.0341 9.25279 10.0164 9.25054 10.001C9.25054 9.98559 9.25279 9.96796 9.25279 9.95254C9.25279 9.23205 7.8628 8.50496 7.8628 8.50496C7.8628 8.50496 7.86055 8.50275 7.85829 8.50275L2.96967 6.27519C2.96967 6.27519 0.0702822 5.17133 0.0319842 3.95068C-0.200057 5.05896 0.876793 6.0174 1.76441 6.83924C2.95164 7.93429 3.4788 9.02274 3.46979 10.001C3.4788 10.9793 2.95164 12.0677 1.76441 13.165C0.876793 13.9846 -0.200057 14.9431 0.0319842 16.0535C0.0680294 14.8329 2.96967 13.7268 2.96967 13.7268Z" fill="#E40E20"/>
</g>
<defs>
<clipPath id="clip0_111_1033">
<rect width="16" height="20" fill="white"/>
</clipPath>
</defs>
</svg>
