<svg width="20" height="16" viewBox="0 0 20 16" fill="none" xmlns="http://www.w3.org/2000/svg">
<g clip-path="url(#clip0_111_1158)">
<path d="M19.7863 7.98292C19.6442 7.57353 19.4665 7.19827 19.1824 6.85712C18.8982 6.51596 18.5429 6.24304 18.0811 6.00424C17.6193 5.76543 17.0864 5.66309 16.4115 5.66309H11.8289C11.1184 6.89123 9.80403 7.77822 8.27649 7.91468C8.20545 8.25584 8.16992 8.66522 8.16992 9.0746C8.16992 9.41575 8.24097 9.79102 8.34754 10.2004C8.48964 10.6098 8.66726 10.985 8.95145 11.3262C9.23564 11.6673 9.59088 11.9403 10.0527 12.1791C10.5145 12.4179 11.1539 12.5202 11.7934 12.5202H16.376V10.1663H11.7578C11.4026 10.1663 11.1184 10.0639 10.9408 9.85925C10.7632 9.65456 10.6566 9.38164 10.6566 9.0746C10.6566 8.73345 10.7632 8.49464 10.9763 8.32407C11.1895 8.15349 11.4381 8.05115 11.7578 8.05115H16.447C16.8022 8.05115 17.0864 8.15349 17.2641 8.35818C17.4417 8.56287 17.5483 8.83579 17.5483 9.14283V12.8955C17.5483 13.2366 17.4417 13.4755 17.2285 13.6801C17.0154 13.8507 16.7312 13.9531 16.4115 13.9531H10.3369V16H16.4115C16.7667 16 17.1575 15.9317 17.5838 15.8294C18.0101 15.6929 18.4008 15.5224 18.7561 15.2494C19.1113 14.9765 19.3955 14.7377 19.6442 14.2942C19.8928 13.8507 19.9994 13.5437 19.9994 12.9296V9.10871C19.9994 8.76756 19.9284 8.3923 19.7863 7.98292Z" fill="#B3B3B3"/>
<path d="M7.42451 7.94883H3.5524C3.23268 7.94883 2.94849 7.84648 2.73535 7.67591C2.5222 7.50533 2.41563 7.23241 2.41563 6.89126V3.44563C2.41563 3.13859 2.5222 2.86567 2.69982 2.66098C2.87744 2.45629 3.16163 2.35394 3.51687 2.35394H8.20604C8.52575 2.35394 8.77442 2.45629 8.98757 2.62687C9.20071 2.79744 9.30728 3.07036 9.30728 3.3774C9.30728 3.68443 9.20071 3.95736 9.02309 4.16205C8.84547 4.36674 8.56128 4.46908 8.20604 4.46908H3.5524V6.82303H8.13499C8.77442 6.82303 9.41385 6.72068 9.87567 6.48188C10.3375 6.24307 10.6927 5.97015 10.9769 5.629C11.2611 5.28785 11.4742 4.91258 11.5808 4.5032C11.7229 4.09382 11.7584 3.71855 11.7584 3.3774C11.7584 2.76333 11.6519 2.21748 11.4032 1.77399C11.1545 1.33049 10.8703 0.989339 10.5151 0.716418C10.1599 0.443497 9.76909 0.238806 9.34281 0.136461C8.95204 0.0682303 8.56128 0 8.20604 0H3.5524C2.91297 0 2.34458 0.102345 1.88277 0.341151C1.42096 0.579957 1.06572 0.852879 0.781527 1.19403C0.497336 1.53518 0.284192 1.91045 0.17762 2.31983C0.035524 2.72921 0 3.10448 0 3.44563V6.92537C0 7.53945 0.106572 8.08529 0.35524 8.52878C0.603908 8.97228 0.888099 9.31343 1.24334 9.58635C1.59858 9.85927 1.98934 10.064 2.41563 10.1663C2.84192 10.3028 3.23268 10.3369 3.58792 10.3369H7.46004V7.94883H7.42451Z" fill="#FFBB00"/>
</g>
<defs>
<clipPath id="clip0_111_1158">
<rect width="20" height="16" fill="white"/>
</clipPath>
</defs>
</svg>
