<svg width="18" height="20" viewBox="0 0 18 20" fill="none" xmlns="http://www.w3.org/2000/svg">
    <g clip-path="url(#8j51bfjcka)">
        <path d="M2.205 3.752 0 17.059 16.644 20l.545-20L2.205 3.752zm11.7 13.71-12.391-1.68.044-.453c2.282.139 2.499.017 2.653-1.425l.763-7.051c.174-1.592-.033-1.619-2.098-1.304l.048-.468 12.323-2.728c-.075.582-.141 2.137-.212 3.311l-.833.22c-.13-.918-.348-1.367-.655-1.77-.334-.416-1.076-.41-3.091.005l-2.098.428c-.848.172-.909.24-.973.794l-.498 4.336 2.51-.168c2.472-.165 2.631-.346 3.148-1.846l.805-.087-.548 4.282h-.788c-.158-1.543-.333-1.661-2.684-1.558l-2.524.115-.41 3.567c-.1.885.007 1.315.445 1.592.46.305 1.363.41 2.664.56 1.997.237 2.763.148 3.426-.373.516-.415 1.134-1.177 1.633-2.07l.781.126c-.268.78-1.104 2.952-1.44 3.645z" fill="url(#3bp4hbovab)"/>
        <path d="m17.192 0 .81.548-.527 18.574-.829.878.546-20z" fill="url(#kvylpnm3mc)"/>
    </g>
    <defs>
        <linearGradient id="3bp4hbovab" x1="14.744" y1="20.826" x2="6.507" y2="1.881" gradientUnits="userSpaceOnUse">
            <stop stop-color="#70ABDC"/>
            <stop offset=".17" stop-color="#67A6DA"/>
            <stop offset=".46" stop-color="#4D9AD4"/>
            <stop offset=".6" stop-color="#3E93D0"/>
            <stop offset=".99" stop-color="#1B7CC1"/>
        </linearGradient>
        <linearGradient id="kvylpnm3mc" x1="17.549" y1=".007" x2="17.168" y2="20.01" gradientUnits="userSpaceOnUse">
            <stop stop-color="#3E93D0"/>
            <stop offset=".99" stop-color="#1B7CC1"/>
        </linearGradient>
        <clipPath id="8j51bfjcka">
            <path fill="#fff" d="M0 0h18v20H0z"/>
        </clipPath>
    </defs>
</svg>
