<svg width="20" height="16" viewBox="0 0 20 16" fill="none" xmlns="http://www.w3.org/2000/svg">
<g clip-path="url(#clip0_114_13602)">
<path d="M18.4659 0.268225C17.9037 0.379094 17.5466 0.898258 17.6542 1.40106C17.7085 1.65225 17.867 1.84536 18.0558 1.9955L16.91 3.75469C16.813 3.84878 16.7007 3.87128 16.6178 3.85001C16.5431 3.86474 16.4149 3.81523 16.3465 3.679L14.4583 1.61912C14.7351 1.4522 14.8906 1.08522 14.8214 0.762023C14.7959 0.63907 14.7452 0.522192 14.6721 0.418176C14.5991 0.31416 14.5052 0.22508 14.3959 0.15611C14.2866 0.0871394 14.1641 0.0396538 14.0354 0.0164102C13.9068 -0.00683339 13.7747 -0.00537193 13.6466 0.0207105C13.084 0.131171 12.7269 0.650745 12.8349 1.15354C12.9272 1.58393 13.2963 1.84822 13.7022 1.91777L12.8994 4.54509C12.8478 4.66783 12.7354 4.68992 12.6602 4.70465C12.5855 4.71937 12.4727 4.74147 12.3372 4.65596L8.99952 2.39561C9.08111 2.22992 9.14733 1.99223 9.10119 1.77703C8.98584 1.23864 8.45099 0.932215 7.88879 1.04308C7.32659 1.15354 6.96945 1.67312 7.07711 2.17592C7.1775 2.64231 7.59188 2.93482 8.0648 2.95364L8.25063 6.54647C8.24422 6.69744 8.18441 6.78376 8.11734 6.83449C8.08744 6.87785 7.98277 6.93595 7.81745 6.8934L5.7814 6.50883C5.8254 6.35092 5.86214 6.15659 5.82327 5.97699C5.79783 5.85401 5.74712 5.7371 5.67409 5.63305C5.60105 5.52901 5.50714 5.43991 5.39783 5.37093C5.28851 5.30195 5.16597 5.25447 5.03732 5.23125C4.90868 5.20803 4.77649 5.20953 4.64846 5.23567C4.08626 5.34654 3.72912 5.86571 3.83677 6.36851C3.94486 6.8709 4.39684 7.15605 4.89965 7.13191L5.14615 9.55264C5.16922 9.66023 5.11753 9.78256 5.04234 9.79729C5.01244 9.84065 4.9082 9.89874 4.79542 9.92084L2.0186 9.90693C2.00322 9.83492 2.02544 9.75556 2.01006 9.68396C1.98324 9.55641 1.93031 9.43521 1.85431 9.32735C1.77831 9.2195 1.68075 9.12713 1.56728 9.05558C1.4538 8.98403 1.32664 8.93472 1.19315 8.91049C1.05967 8.88626 0.922488 8.8876 0.78954 8.91442C0.227342 9.02488 -0.0922057 9.53709 0.0235661 10.0755C0.138911 10.6139 0.681458 10.9559 1.20606 10.8528C1.28125 10.8381 1.39403 10.816 1.46068 10.7652L7.45475 15.5699C7.92211 15.927 8.50097 16.0747 9.06317 15.9638C9.39405 15.9 9.69982 15.7491 9.9462 15.5281C11.4324 14.2623 14.5711 11.9607 18.6022 10.9043C19.4865 10.6548 20.0974 9.86111 19.9872 8.9852L19.3006 1.97382C19.6074 1.76394 19.8005 1.38878 19.715 0.9944C19.5322 0.506737 18.9901 0.164309 18.4655 0.267815L18.4659 0.268225ZM18.8098 9.14229C18.8418 9.47286 18.5962 9.78297 18.2664 9.88524C14.0097 10.9858 10.7369 13.3893 9.15374 14.7488C9.05676 14.8429 8.94441 14.865 8.83162 14.8871C8.60692 14.9317 8.3963 14.8609 8.2156 14.7467L3.5937 11.0557L4.84711 11.0704C5.27516 11.061 5.67161 10.908 5.95527 10.5901C6.23851 10.2727 6.38632 9.86929 6.3389 9.46713L6.14837 7.67112L7.62093 7.98C7.84248 8.02635 8.0724 8.02119 8.29144 7.96496C8.51048 7.90873 8.71226 7.80306 8.8799 7.65681C9.05605 7.51745 9.19598 7.34081 9.28865 7.14081C9.38132 6.94081 9.4242 6.72292 9.4139 6.50433L9.29386 3.94615L11.6747 5.57237C12.0438 5.83625 12.5248 5.89148 12.9665 5.7667C13.4087 5.64233 13.7748 5.34532 13.9226 4.94234L14.431 3.30834L15.405 4.3884C15.6775 4.74597 16.0765 4.96689 16.5495 4.98571C17.0224 5.00493 17.4863 4.80161 17.7995 4.44036L18.2459 3.7911L18.8098 9.14229Z" fill="#E7C200"/>
</g>
<defs>
<clipPath id="clip0_114_13602">
<rect width="20" height="16" fill="white"/>
</clipPath>
</defs>
</svg>
