<svg width="6" height="20" viewBox="0 0 6 20" fill="none" xmlns="http://www.w3.org/2000/svg">
<g clip-path="url(#clip0_111_1154)">
<path fill-rule="evenodd" clip-rule="evenodd" d="M4.43305 0.396628C4.26958 0.299271 4.09985 0.215798 3.92531 0.146906C3.69008 0.0754383 3.44948 0.0286178 3.20658 0.00704411C2.94117 -0.0109177 2.6748 0.00549927 2.41273 0.0559725C2.22942 0.0987742 2.04977 0.159473 1.87584 0.237378C1.45531 0.429442 1.07567 0.719359 0.761828 1.08809C0.751733 1.09952 0.741879 1.11122 0.732275 1.12317C0.726952 1.12995 0.721477 1.13656 0.715856 1.14302C0.366548 1.56815 0.138327 2.07129 0.0578755 2.65243C0.0498216 2.70514 0.0366059 2.75669 0.0184703 2.80614C0.0119513 2.82507 0.00579367 2.84415 0 2.86338V3.95366C0.0164187 4.0169 0.0316054 4.08106 0.0467927 4.14522C0.0829139 4.29755 0.119447 4.45126 0.169934 4.59943C0.392408 5.25858 0.773322 5.77787 1.29872 6.16423C1.67102 6.43656 2.07533 6.62166 2.51371 6.68998C2.92832 6.75433 3.34992 6.73227 3.75742 6.6249C4.29478 6.48638 4.78562 6.17772 5.1719 5.73541C5.64517 5.19996 5.91649 4.54773 5.98011 3.78841C6.06959 2.75306 5.86436 1.8248 5.21787 1.06178C5.1442 0.971593 5.06521 0.887084 4.98144 0.80883L4.96215 0.791289C4.79679 0.641967 4.6197 0.509869 4.43305 0.396628ZM1.46619 3.3402C1.47194 2.34409 2.19354 1.64616 3.01899 1.68493C3.84157 1.65585 4.57467 2.39902 4.53116 3.46022C4.4938 4.38202 3.83541 5.10903 2.97261 5.08041C2.16768 5.0541 1.46044 4.45356 1.46619 3.3402ZM3.86743 8.24139C3.25255 8.46203 2.64957 8.43895 2.03756 8.24462V20H3.86743V8.24139Z" fill="#FFC71D"/>
</g>
<defs>
<clipPath id="clip0_111_1154">
<rect width="6" height="20" fill="white"/>
</clipPath>
</defs>
</svg>
