<svg width="18" height="20" viewBox="0 0 18 20" fill="none" xmlns="http://www.w3.org/2000/svg">
<path d="M6.73248 10.05L7.7863 11.15H6.38121L4.44922 10.05H6.73248Z" fill="#FF2500"/>
<path d="M11.2675 10.05L10.2137 11.15H11.6188L13.5508 10.05H11.2675Z" fill="#FF2500"/>
<path fill-rule="evenodd" clip-rule="evenodd" d="M9 0L0 4.44721V14.4348L9 20L18 14.4348V4.44721L9 0ZM9.02591 9.19256L5.32003 7.22983L3.80742 10.2609L5.42087 12.7454L4.89146 14.6584L6.61173 15.7193L7.88998 14.4349L6.7051 13.6895L6.78073 13.3169H11.2429L11.3185 13.6895L10.1337 14.4349L11.409 15.7164L13.1352 14.6584L12.5805 12.7454L14.2192 10.2609L12.6814 7.22983L9.02591 9.19256ZM10.9116 16.0213L9.73031 14.8324H8.26813L7.12296 16.0346L9.0007 17.1926L10.9116 16.0213Z" fill="#FF2500"/>
</svg>
