<svg width="14" height="20" viewBox="0 0 14 20" fill="none" xmlns="http://www.w3.org/2000/svg">
    <path fill-rule="evenodd" clip-rule="evenodd" d="M0 0h7.97v14.245H14V20H0V0zm5.167 2.925c0 .573-.53 1.038-1.185 1.038-.654 0-1.184-.465-1.184-1.038s.53-1.038 1.184-1.038c.655 0 1.185.465 1.185 1.038zM3.982 6.792c.655 0 1.185-.465 1.185-1.038s-.53-1.038-1.185-1.038c-.654 0-1.184.465-1.184 1.038s.53 1.038 1.184 1.038zm1.185 1.792c0 .573-.53 1.037-1.185 1.037-.654 0-1.184-.464-1.184-1.037s.53-1.038 1.184-1.038c.655 0 1.185.465 1.185 1.038zM3.982 12.45c.655 0 1.185-.464 1.185-1.038 0-.573-.53-1.037-1.185-1.037-.654 0-1.184.464-1.184 1.037 0 .574.53 1.038 1.184 1.038zm1.185 1.794c0 .573-.53 1.038-1.185 1.038-.654 0-1.184-.465-1.184-1.038s.53-1.038 1.184-1.038c.655 0 1.185.465 1.185 1.038zm-1.185 3.867c.655 0 1.185-.464 1.185-1.037s-.53-1.038-1.185-1.038c-.654 0-1.184.465-1.184 1.038s.53 1.037 1.184 1.037zM8.4 17.075c0 .573-.53 1.038-1.185 1.038-.654 0-1.184-.465-1.184-1.038s.53-1.038 1.184-1.038c.655 0 1.185.465 1.185 1.038zm3.232 0c0 .573-.53 1.038-1.185 1.038-.654 0-1.184-.465-1.184-1.038s.53-1.038 1.184-1.038c.655 0 1.185.465 1.185 1.038z" fill="#69808C"/>
</svg>
