<svg width="20" height="20" viewBox="0 0 20 20" fill="none" xmlns="http://www.w3.org/2000/svg">
<g clip-path="url(#clip0_111_1161)">
<path d="M10.7386 0C11.3415 0.196078 11.9445 0.44392 12.5637 0.580391C17.599 1.70705 21.1267 9.06469 19.6682 13.5117C19.5704 13.8019 19.4564 14.0749 19.4401 14.1176C19.5248 12.7755 19.5084 11.4284 19.3912 10.089C19.1216 8.78545 18.7314 7.51317 18.2264 6.29058C17.9412 5.43724 17.4115 5.43724 16.6782 5.77842C15.8363 6.18161 14.9641 6.50993 14.0708 6.75999C15.7004 5.4796 14.6575 4.95058 13.7041 4.11411H16.3849C12.0912 -0.145098 4.47298 1.87764 0 8.53528C0 5.3345 2.76186 1.50235 6.21669 0H10.7386Z" fill="#A1AEBA"/>
<path d="M13.7317 12.6571C15.6039 13.752 15.4717 15.6849 15.5624 17.541C15.6031 17.9022 15.6806 18.2579 15.7935 18.6018H16.2965L14.6965 19.654L15.1583 17.0877L10.0616 16.8143L13.1461 19.7394C10.0446 20.7402 5.78126 18.7724 4.07422 15.283C6.09497 17.3873 8.12349 19.0038 11.002 19.3116C10.1279 18.3399 9.30206 17.3208 8.52794 16.2583C6.61423 13.3759 5.65756 10.2708 7.46386 6.9779C8.81646 4.43751 10.8861 3.12026 13.8224 3.64222C11.8594 3.79595 10.0779 4.32653 8.87424 5.90025L11.3483 7.243C10.2431 7.14025 9.33572 5.943 8.32164 6.94378L10.2846 7.91005C9.29461 7.63633 8.28831 7.24339 7.5546 8.14966C8.4577 8.41234 9.37476 8.61793 10.3009 8.76535C11.0376 8.78888 11.775 8.74025 12.5028 8.62025L13.1294 8.67123L12.2554 11.2375C10.6061 11.6908 9.95461 13.1022 9.45164 14.5732C9.42424 14.7606 9.43979 14.9516 9.4972 15.1316C9.55461 15.3112 9.65165 15.4747 9.78128 15.6081C10.8702 16.6261 13.6328 16.7971 15.2491 15.8904L13.7317 12.6571ZM11.7194 9.3728C7.80201 8.5175 7.5546 8.61162 7.19164 10.023L11.7194 9.3724V9.3728Z" fill="#A1AEBA"/>
<path d="M13.3336 5.82409C12.7139 6.25154 12.2795 6.77782 12.0017 6.64644C11.7239 6.51468 11.4032 5.92292 11.1113 5.52801C11.4391 5.22409 11.781 4.70605 12.1084 4.70605C12.4361 4.70605 12.7639 5.2735 13.3336 5.82409Z" fill="#A1AEBA"/>
</g>
<defs>
<clipPath id="clip0_111_1161">
<rect width="20" height="20" fill="white"/>
</clipPath>
</defs>
</svg>
