<svg width="18" height="20" viewBox="0 0 18 20" fill="none" xmlns="http://www.w3.org/2000/svg">
<g clip-path="url(#clip0_114_13619)">
<path d="M9.35101 6.70217C9.35273 7.11667 9.42039 7.52857 9.55174 7.92405C9.85319 7.45598 10.2403 7.04225 10.6949 6.70217C10.6953 6.12652 10.8817 5.56472 11.2293 5.09197C11.5768 4.61921 12.0689 4.25806 12.6396 4.05686C12.7498 4.27305 12.9383 4.44469 13.1711 4.54053C13.4039 4.63637 13.6653 4.65004 13.9078 4.57905C14.0864 4.52832 14.2474 4.43335 14.374 4.304C14.5007 4.17464 14.5884 4.01562 14.628 3.84342C14.7599 3.80431 14.8824 3.74104 14.9884 3.6572C15.0945 3.57337 15.182 3.47062 15.246 3.35482C15.31 3.23902 15.3492 3.11244 15.3615 2.98231C15.3737 2.85218 15.3587 2.72105 15.3173 2.59639C15.276 2.47174 15.209 2.35601 15.1203 2.25581C15.0316 2.15561 14.9228 2.07291 14.8003 2.01242C14.6778 1.95193 14.5438 1.91484 14.4061 1.90327C14.2684 1.8917 14.1297 1.90588 13.9978 1.94499C13.8631 1.82408 13.696 1.74028 13.5145 1.70266C13.3331 1.66504 13.1442 1.67503 12.9683 1.73155C12.7251 1.80325 12.5175 1.95556 12.3837 2.16044C12.2499 2.36532 12.199 2.60897 12.2402 2.84655C11.3955 3.12753 10.6639 3.64933 10.1464 4.33994C9.62894 5.03056 9.35101 5.85594 9.35101 6.70217Z" fill="#69808C"/>
<path d="M1.34257 6.70219V1.25875H16.6574V6.70219C16.6574 7.24411 16.4926 7.7746 16.1825 8.23047C15.8724 8.68634 15.4302 9.04837 14.9085 9.27342C14.3869 9.49847 13.8078 9.57707 13.2402 9.49983C12.6726 9.4226 12.1404 9.1928 11.7071 8.83781C11.4196 9.19213 11.2417 9.61489 11.1932 10.0591C11.8407 10.4854 12.5993 10.7361 13.3868 10.7839C14.1743 10.8316 14.9607 10.6746 15.6604 10.3299C16.3602 9.9852 16.9467 9.46595 17.3563 8.82852C17.7659 8.19108 17.9829 7.45981 17.9838 6.71406V0H0V6.70219C0.00165341 7.11656 0.0687819 7.52844 0.19907 7.92406C0.500949 7.4561 0.888216 7.04241 1.3429 6.70219H1.34257Z" fill="#69808C"/>
<path d="M12.9538 15.2669C13.1296 15.3236 13.3185 15.3338 13.5 15.2963C13.6815 15.2588 13.8487 15.1752 13.9835 15.0544C14.2499 15.1333 14.5386 15.109 14.7861 14.9868C15.0335 14.8646 15.2194 14.6546 15.303 14.4028C15.3865 14.1511 15.3608 13.8783 15.2315 13.6444C15.1022 13.4106 14.8799 13.2349 14.6135 13.1559C14.5744 12.9843 14.4874 12.8256 14.3616 12.6964C14.2358 12.5671 14.0757 12.4721 13.8979 12.4209C13.6555 12.3496 13.394 12.3631 13.1612 12.4588C12.9284 12.5546 12.7397 12.7263 12.6297 12.9425C12.0101 12.7263 11.4837 12.3222 11.1329 11.7934C10.782 11.2645 10.6264 10.6407 10.6905 10.0194C10.7545 9.39817 11.0345 8.81447 11.4868 8.35955C11.9391 7.90462 12.5381 7.60412 13.1902 7.50501C13.6229 7.4394 14.0655 7.46451 14.4867 7.57857C14.9079 7.69262 15.2975 7.89283 15.6277 8.16501C15.9151 7.81015 16.0932 7.38723 16.1426 6.94282C15.4951 6.51617 14.7364 6.26529 13.9487 6.21741C13.1611 6.16952 12.3746 6.32647 11.6746 6.67121C10.9747 7.01595 10.388 7.5353 9.97841 8.17289C9.56878 8.81047 9.3518 9.54192 9.35103 10.2878C9.35406 11.1329 9.63128 11.9568 10.1453 12.6484C10.6593 13.34 11.3854 13.8659 12.2256 14.1553C12.1854 14.3924 12.2369 14.6352 12.3706 14.8393C12.5043 15.0434 12.7114 15.1952 12.9538 15.2669ZM8.64833 10.2844C8.64714 9.87005 8.57946 9.45828 8.44761 9.06313C8.14753 9.53066 7.76204 9.94415 7.30907 10.2844C7.30794 10.8603 7.12064 11.4221 6.77224 11.8946C6.42385 12.3671 5.931 12.7277 5.3597 12.9281C5.24986 12.7117 5.06127 12.5399 4.82842 12.4441C4.59557 12.3483 4.334 12.3348 4.09153 12.4063C3.91304 12.4569 3.75215 12.5518 3.62556 12.681C3.49896 12.8103 3.41129 12.9692 3.37164 13.1413C3.23973 13.1803 3.11727 13.2436 3.01123 13.3274C2.9052 13.4112 2.81767 13.514 2.75364 13.6298C2.68962 13.7455 2.65036 13.8721 2.63809 14.0022C2.62583 14.1323 2.64081 14.2635 2.68217 14.3881C2.72353 14.5128 2.79047 14.6285 2.87916 14.7287C2.96786 14.8289 3.07657 14.9116 3.19908 14.9721C3.3216 15.0327 3.45553 15.0698 3.59323 15.0813C3.73092 15.0929 3.86968 15.0788 4.00159 15.0397C4.13597 15.1607 4.30291 15.2446 4.48423 15.2823C4.66555 15.3199 4.85432 15.3098 5.03001 15.2531C5.27321 15.1814 5.48081 15.0291 5.61461 14.8242C5.7484 14.6194 5.79939 14.3757 5.75817 14.1381C6.60177 13.856 7.33237 13.3342 7.84981 12.6443C8.36724 11.9543 8.64616 11.13 8.64833 10.2844Z" fill="#69808C"/>
<path d="M5.76113 2.84692C5.80565 2.60898 5.75606 2.36387 5.6218 2.15822C5.48754 1.95258 5.27798 1.80075 5.03297 1.73161C4.85652 1.6813 4.66939 1.67451 4.48937 1.71187C4.30936 1.74923 4.14246 1.8295 4.00455 1.94505C3.80589 1.88633 3.59328 1.88457 3.39356 1.93996C3.19384 1.99536 3.01597 2.10544 2.8824 2.25631C2.74884 2.40717 2.66557 2.59205 2.64311 2.78761C2.62066 2.98316 2.66002 3.18062 2.75623 3.35505C2.82026 3.47083 2.90779 3.57355 3.01384 3.65736C3.11988 3.74117 3.24236 3.80441 3.37427 3.84348C3.42276 4.04517 3.53638 4.22763 3.6994 4.36563C3.86242 4.50364 4.06679 4.59035 4.28424 4.61379C4.50169 4.63723 4.72148 4.59623 4.91319 4.49647C5.10491 4.39671 5.25909 4.24311 5.35439 4.05692C5.76467 4.20064 6.13653 4.42776 6.44369 4.72223C6.75086 5.01671 6.98583 5.37134 7.13201 5.76108C7.27818 6.15081 7.33199 6.56613 7.28963 6.97768C7.24727 7.38923 7.10977 7.78697 6.88685 8.14277C6.66394 8.49858 6.36104 8.80377 5.99958 9.03678C5.63812 9.26979 5.22691 9.42493 4.79502 9.49123C4.36313 9.55754 3.92111 9.53338 3.50018 9.42048C3.07926 9.30758 2.68971 9.10869 2.35908 8.83786C2.06136 9.18672 1.88192 9.61235 1.84421 10.0591C2.35075 10.393 2.92702 10.6205 3.53432 10.7265C4.14162 10.8324 4.76588 10.8143 5.36517 10.6734C5.96446 10.5325 6.52491 10.2721 7.00886 9.90952C7.49282 9.54699 7.88908 9.09078 8.17103 8.57155C8.45297 8.05231 8.61408 7.48208 8.64352 6.89913C8.67297 6.31619 8.57007 5.73404 8.34173 5.19179C8.1134 4.64954 7.76492 4.15974 7.3197 3.7553C6.87448 3.35085 6.34284 3.04113 5.76047 2.84692H5.76146H5.76113Z" fill="#69808C"/>
<path d="M17.7996 9.07501C17.4982 9.54301 17.1111 9.95663 16.6564 10.2966V15.7397H1.34255V10.2969C1.34214 9.75479 1.50676 9.22403 1.81677 8.76792C2.12679 8.31181 2.56911 7.94961 3.09097 7.72454C3.61283 7.49947 4.19218 7.42103 4.75992 7.49858C5.32766 7.57612 5.8598 7.80638 6.29286 8.16189C6.58019 7.80713 6.75835 7.38432 6.80773 6.94001C6.16038 6.51354 5.40178 6.26278 4.61428 6.21495C3.82677 6.16712 3.04045 6.32405 2.34065 6.6687C1.64086 7.01335 1.05433 7.53256 0.64472 8.16997C0.235114 8.80738 0.0180819 9.53865 0.0171814 10.2844V20H18V10.2966C17.9975 9.88226 17.93 9.47058 17.7996 9.07501ZM3.28862 18.9206L3.27605 17.6988L2.58559 18.9325H2.44901L1.74599 17.7106L1.72879 18.9206H1.34288L1.40571 16.7731H1.58594L2.52739 18.3269L3.43908 16.7731H3.61897L3.6818 18.9206H3.28862ZM6.43869 18.9206H6.04882V18.4103H4.96881V18.9206H4.5667V17.6988C4.5667 17.0463 4.90598 16.7494 5.49625 16.7494C6.07329 16.7494 6.43671 17.0463 6.43671 17.6984L6.43869 18.9206ZM7.90758 18.9563C7.64595 18.9529 7.3901 18.883 7.16685 18.7541L7.30541 18.4138C7.48728 18.5309 7.70024 18.5969 7.92015 18.6034C8.1837 18.6034 8.30969 18.4853 8.30969 18.3422C8.30969 18.1994 8.21974 18.1172 7.82028 17.975C7.38113 17.8209 7.22968 17.6188 7.22968 17.3694C7.22968 17.0497 7.50613 16.7528 7.98298 16.7528C8.20244 16.7486 8.41938 16.7978 8.61292 16.8956L8.48793 17.2272C8.33537 17.1416 8.16285 17.0929 7.98562 17.0853C7.74753 17.0853 7.63477 17.2034 7.63477 17.3581C7.63477 17.5003 7.75977 17.5838 8.07391 17.69C8.57523 17.8797 8.72635 18.0581 8.72635 18.3422C8.7237 18.7184 8.42212 18.9566 7.90758 18.9566V18.9563ZM10.6192 18.9563C9.85331 18.9563 9.35101 18.4819 9.35101 17.8506C9.35101 17.2341 9.90357 16.745 10.5689 16.745C10.8444 16.7399 11.1166 16.802 11.3592 16.9253L11.2203 17.2459C11.0358 17.1621 10.8353 17.1138 10.6307 17.1041C10.1033 17.1041 9.77759 17.4119 9.77759 17.8509C9.77675 17.9513 9.79745 18.0508 9.83845 18.1433C9.87945 18.2359 9.93989 18.3197 10.0161 18.3895C10.0923 18.4594 10.1828 18.514 10.2819 18.5499C10.3811 18.5858 10.4869 18.6023 10.593 18.5984C10.8192 18.5984 11.0424 18.55 11.2455 18.4563L11.3715 18.7759C11.1423 18.8986 10.8825 18.961 10.6192 18.9566V18.9563ZM13.1168 18.9563C12.4263 18.9563 11.9125 18.4819 11.9125 17.8506C11.9125 17.7027 11.9439 17.5563 12.0049 17.42C12.0658 17.2837 12.1551 17.1604 12.2674 17.0573C12.3797 16.9542 12.5127 16.8735 12.6586 16.8198C12.8045 16.7662 12.9603 16.7407 13.1168 16.745C13.8195 16.745 14.3218 17.2075 14.3218 17.8506C14.3218 18.4938 13.8079 18.9563 13.1168 18.9563ZM16.6564 17.1294H15.9157V18.9206H15.5143V17.1294H14.761V16.785H16.6564V17.1294Z" fill="#69808C"/>
<path d="M5.49792 17.1057C5.18377 17.0938 4.95792 17.2713 4.95792 17.701V18.1163H6.03792V17.7132C6.03726 17.2597 5.81108 17.1057 5.49792 17.1057ZM13.1165 17.0819C13.0117 17.0835 12.9082 17.1048 12.8122 17.1446C12.7161 17.1843 12.6294 17.2417 12.5571 17.3134C12.4847 17.3851 12.4282 17.4697 12.3908 17.5623C12.3533 17.6548 12.3358 17.7535 12.3391 17.8525C12.3347 17.9516 12.3517 18.0506 12.3888 18.1433C12.426 18.2361 12.4826 18.3208 12.5553 18.3924C12.6279 18.464 12.7152 18.5209 12.8117 18.5598C12.9083 18.5987 13.0122 18.6188 13.1172 18.6188C13.2221 18.6188 13.326 18.5987 13.4226 18.5598C13.5191 18.5209 13.6064 18.464 13.6791 18.3924C13.7517 18.3208 13.8083 18.2361 13.8455 18.1433C13.8827 18.0506 13.8996 17.9516 13.8953 17.8525C13.8953 17.4135 13.5685 17.0819 13.1165 17.0819Z" fill="#69808C"/>
</g>
<defs>
<clipPath id="clip0_114_13619">
<rect width="18" height="20" fill="white"/>
</clipPath>
</defs>
</svg>
