<svg width="21" height="12" viewBox="0 0 21 12" fill="none" xmlns="http://www.w3.org/2000/svg">
<path fill-rule="evenodd" clip-rule="evenodd" d="M19.1443 1.71431C19.6177 1.71431 20.0014 1.33055 20.0014 0.857157C20.0014 0.383762 19.6177 0 19.1443 0C18.6709 0 18.2871 0.383762 18.2871 0.857157C18.2871 1.33055 18.6709 1.71431 19.1443 1.71431ZM3.14427 2.85738C3.61766 2.85738 4.00142 2.47362 4.00142 2.00022C4.00142 1.52683 3.61766 1.14307 3.14427 1.14307C2.67087 1.14307 2.28711 1.52683 2.28711 2.00022C2.28711 2.47362 2.67087 2.85738 3.14427 2.85738ZM20.0014 3.1428C20.0014 3.6162 19.6177 3.99996 19.1443 3.99996C18.6709 3.99996 18.2871 3.6162 18.2871 3.1428C18.2871 2.66941 18.6709 2.28564 19.1443 2.28564C19.6177 2.28564 20.0014 2.66941 20.0014 3.1428ZM3.14427 5.14302C3.61766 5.14302 4.00142 4.75926 4.00142 4.28587C4.00142 3.81247 3.61766 3.42871 3.14427 3.42871C2.67087 3.42871 2.28711 3.81247 2.28711 4.28587C2.28711 4.75926 2.67087 5.14302 3.14427 5.14302ZM20.0014 5.42845C20.0014 5.90184 19.6177 6.2856 19.1443 6.2856C18.6709 6.2856 18.2871 5.90184 18.2871 5.42845C18.2871 4.95505 18.6709 4.57129 19.1443 4.57129C19.6177 4.57129 20.0014 4.95505 20.0014 5.42845ZM0.857157 6.28584C1.33055 6.28584 1.71431 5.90208 1.71431 5.42868C1.71431 4.95529 1.33055 4.57152 0.857157 4.57152C0.383762 4.57152 0 4.95529 0 5.42868C0 5.90208 0.383762 6.28584 0.857157 6.28584ZM4.00142 6.57151C4.00142 7.04491 3.61766 7.42867 3.14427 7.42867C2.67087 7.42867 2.28711 7.04491 2.28711 6.57151C2.28711 6.09812 2.67087 5.71436 3.14427 5.71436C3.61766 5.71436 4.00142 6.09812 4.00142 6.57151ZM0.857157 8.57157C1.33055 8.57157 1.71431 8.18781 1.71431 7.71441C1.71431 7.24102 1.33055 6.85726 0.857157 6.85726C0.383762 6.85726 0 7.24102 0 7.71441C0 8.18781 0.383762 8.57157 0.857157 8.57157ZM4.00142 8.85716C4.00142 9.33055 3.61766 9.71431 3.14427 9.71431C2.67087 9.71431 2.28711 9.33055 2.28711 8.85716C2.28711 8.38376 2.67087 8 3.14427 8C3.61766 8 4.00142 8.38376 4.00142 8.85716ZM0.857157 10.8573C1.33055 10.8573 1.71431 10.4736 1.71431 10.0002C1.71431 9.52677 1.33055 9.14301 0.857157 9.14301C0.383762 9.14301 0 9.52677 0 10.0002C0 10.4736 0.383762 10.8573 0.857157 10.8573ZM3.14427 12.0004C3.61766 12.0004 4.00142 11.6167 4.00142 11.1433C4.00142 10.6699 3.61766 10.2861 3.14427 10.2861C2.67087 10.2861 2.28711 10.6699 2.28711 11.1433C2.28711 11.6167 2.67087 12.0004 3.14427 12.0004ZM19.1443 8.57174C19.6177 8.57174 20.0014 8.18797 20.0014 7.71458C20.0014 7.24118 19.6177 6.85742 19.1443 6.85742C18.6709 6.85742 18.2871 7.24118 18.2871 7.71458C18.2871 8.18797 18.6709 8.57174 19.1443 8.57174ZM20.0014 10.0002C20.0014 10.4736 19.6177 10.8574 19.1443 10.8574C18.6709 10.8574 18.2871 10.4736 18.2871 10.0002C18.2871 9.52683 18.6709 9.14307 19.1443 9.14307C19.6177 9.14307 20.0014 9.52683 20.0014 10.0002ZM6.28456 5.42868C6.28456 5.90208 5.90079 6.28584 5.4274 6.28584C4.95401 6.28584 4.57024 5.90208 4.57024 5.42868C4.57024 4.95529 4.95401 4.57152 5.4274 4.57152C5.90079 4.57152 6.28456 4.95529 6.28456 5.42868ZM7.71458 7.42867C8.18797 7.42867 8.57174 7.04491 8.57174 6.57151C8.57174 6.09812 8.18797 5.71436 7.71458 5.71436C7.24118 5.71436 6.85742 6.09812 6.85742 6.57151C6.85742 7.04491 7.24118 7.42867 7.71458 7.42867ZM13.1438 6.57153C13.1438 7.04492 12.7601 7.42868 12.2867 7.42868C11.8133 7.42868 11.4295 7.04492 11.4295 6.57153C11.4295 6.09813 11.8133 5.71437 12.2867 5.71437C12.7601 5.71437 13.1438 6.09813 13.1438 6.57153ZM14.57 6.2856C15.0434 6.2856 15.4272 5.90184 15.4272 5.42845C15.4272 4.95505 15.0434 4.57129 14.57 4.57129C14.0967 4.57129 13.7129 4.95505 13.7129 5.42845C13.7129 5.90184 14.0967 6.2856 14.57 6.2856ZM17.7143 4.28587C17.7143 4.75926 17.3306 5.14302 16.8572 5.14302C16.3838 5.14302 16 4.75926 16 4.28587C16 3.81247 16.3838 3.42871 16.8572 3.42871C17.3306 3.42871 17.7143 3.81247 17.7143 4.28587ZM16.8572 7.42867C17.3306 7.42867 17.7143 7.04491 17.7143 6.57151C17.7143 6.09812 17.3306 5.71436 16.8572 5.71436C16.3838 5.71436 16 6.09812 16 6.57151C16 7.04491 16.3838 7.42867 16.8572 7.42867ZM17.7143 8.85716C17.7143 9.33055 17.3306 9.71431 16.8572 9.71431C16.3838 9.71431 16 9.33055 16 8.85716C16 8.38376 16.3838 8 16.8572 8C17.3306 8 17.7143 8.38376 17.7143 8.85716ZM16.8572 12.0004C17.3306 12.0004 17.7143 11.6167 17.7143 11.1433C17.7143 10.6699 17.3306 10.2861 16.8572 10.2861C16.3838 10.2861 16 10.6699 16 11.1433C16 11.6167 16.3838 12.0004 16.8572 12.0004ZM9.99973 8.57174C10.4731 8.57174 10.8569 8.18797 10.8569 7.71458C10.8569 7.24118 10.4731 6.85742 9.99973 6.85742C9.52634 6.85742 9.14258 7.24118 9.14258 7.71458C9.14258 8.18797 9.52634 8.57174 9.99973 8.57174ZM1.71431 3.14293C1.71431 3.61632 1.33055 4.00009 0.857157 4.00009C0.383762 4.00009 0 3.61632 0 3.14293C0 2.66953 0.383762 2.28577 0.857157 2.28577C1.33055 2.28577 1.71431 2.66953 1.71431 3.14293ZM6.28456 3.14293C6.28456 3.61632 5.90079 4.00009 5.4274 4.00009C4.95401 4.00009 4.57024 3.61632 4.57024 3.14293C4.57024 2.66953 4.95401 2.28577 5.4274 2.28577C5.90079 2.28577 6.28456 2.66953 6.28456 3.14293ZM7.71458 5.14302C8.18797 5.14302 8.57174 4.75926 8.57174 4.28587C8.57174 3.81247 8.18797 3.42871 7.71458 3.42871C7.24118 3.42871 6.85742 3.81247 6.85742 4.28587C6.85742 4.75926 7.24118 5.14302 7.71458 5.14302ZM13.1438 4.2858C13.1438 4.75919 12.7601 5.14295 12.2867 5.14295C11.8133 5.14295 11.4295 4.75919 11.4295 4.2858C11.4295 3.8124 11.8133 3.42864 12.2867 3.42864C12.7601 3.42864 13.1438 3.8124 13.1438 4.2858ZM14.57 3.99996C15.0434 3.99996 15.4272 3.6162 15.4272 3.1428C15.4272 2.66941 15.0434 2.28564 14.57 2.28564C14.0967 2.28564 13.7129 2.66941 13.7129 3.1428C13.7129 3.6162 14.0967 3.99996 14.57 3.99996ZM17.7143 2.00022C17.7143 2.47362 17.3306 2.85738 16.8572 2.85738C16.3838 2.85738 16 2.47362 16 2.00022C16 1.52683 16.3838 1.14307 16.8572 1.14307C17.3306 1.14307 17.7143 1.52683 17.7143 2.00022ZM10.8569 5.42845C10.8569 5.90184 10.4731 6.2856 9.99973 6.2856C9.52634 6.2856 9.14258 5.90184 9.14258 5.42845C9.14258 4.95505 9.52634 4.57129 9.99973 4.57129C10.4731 4.57129 10.8569 4.95505 10.8569 5.42845ZM0.857157 1.71431C1.33055 1.71431 1.71431 1.33055 1.71431 0.857157C1.71431 0.383762 1.33055 0 0.857157 0C0.383762 0 0 0.383762 0 0.857157C0 1.33055 0.383762 1.71431 0.857157 1.71431Z" fill="#69808C"/>
</svg>
