<svg width="20" height="20" viewBox="0 0 20 20" fill="none" xmlns="http://www.w3.org/2000/svg">
<g clip-path="url(#clip0_111_1118)">
<path d="M9.99698 0C4.47571 0 0 4.48394 0 10.0337C0 11.0261 0.146745 12 0.440234 12.9373C0.623665 12.68 0.807096 12.4227 0.972183 12.1471C1.66922 11.118 2.34791 10.0889 3.02661 9.04138L3.52187 8.25118C3.68696 7.9939 3.85205 7.71825 3.99879 7.46098C4.32897 6.92805 4.6408 6.39512 4.93429 5.8622C5.08103 5.58654 5.22778 5.32927 5.39287 5.05362C5.55795 4.77796 5.68635 4.52069 5.8331 4.24504C5.97984 3.96939 6.12659 3.69373 6.25499 3.43646L6.65854 2.6095L6.69522 2.55437C6.91534 2.11333 7.44729 1.92956 7.90587 2.13171C8.23604 2.31548 8.43782 2.66463 8.41947 3.05055C8.41947 3.52834 8.32776 4.02452 8.29107 4.50231C8.25439 4.98011 8.23604 5.47628 8.19936 5.97246C8.16267 6.94643 8.14433 7.93877 8.14433 8.91274C8.14433 9.88671 8.19936 10.8607 8.29107 11.7979C8.3461 12.2573 8.41947 12.7167 8.51119 13.1762C8.58456 13.5804 8.71296 13.9847 8.89639 14.3523C8.95142 14.4625 9.02479 14.5728 9.11651 14.6647C9.17154 14.7014 9.13485 14.6831 9.17154 14.6831C9.20823 14.6831 9.18988 14.6831 9.20823 14.6831L9.24491 14.6647H9.26326L9.31828 14.6463C9.33663 14.6279 9.37331 14.6095 9.39166 14.5912C9.5384 14.4809 9.6668 14.3523 9.7952 14.2053C10.0887 13.8561 10.3638 13.5069 10.6023 13.121C10.8591 12.7351 11.0976 12.3124 11.336 11.8898C11.8129 11.0444 12.2532 10.1807 12.6751 9.29865C12.8768 8.85761 13.097 8.41657 13.2987 7.95715C13.5005 7.51611 13.7023 7.05669 13.8857 6.61564C14.0691 6.15622 14.6011 5.9357 15.0597 6.11947C15.3532 6.22973 15.5549 6.48701 15.61 6.79941C15.61 6.90967 15.6283 7.05669 15.6466 7.2037L15.7017 7.62637C15.7384 7.90202 15.775 8.17767 15.8301 8.45332C15.9218 9.00463 16.0319 9.55593 16.1786 10.0889C16.3253 10.6218 16.5088 11.1547 16.7289 11.6693C16.949 12.1838 17.2242 12.6616 17.5727 13.1026C17.646 13.2129 17.6277 13.3599 17.536 13.4334C17.4443 13.5069 17.3159 13.5069 17.2425 13.4334C16.7839 13.0291 16.3804 12.5697 16.0319 12.0735C15.6833 11.5774 15.3898 11.0444 15.1147 10.5115C14.9313 10.144 14.7845 9.77645 14.6194 9.40892C14.5094 9.62944 14.4177 9.84996 14.3076 10.0521C13.8674 10.9526 13.4271 11.853 12.9135 12.7535C12.6567 13.2313 12.3999 13.6723 12.1064 14.1134C11.8129 14.5728 11.4828 15.0138 11.1342 15.4181C10.9325 15.657 10.694 15.8592 10.4556 16.0613C10.3822 16.1164 10.3088 16.1716 10.2171 16.2083L10.052 16.3002L9.96029 16.337H9.94195L9.88692 16.3553H9.85023L9.77686 16.3737C9.72183 16.3921 9.68515 16.4105 9.63012 16.4105C9.52006 16.4288 9.41 16.4472 9.29994 16.4656C9.06148 16.484 8.80468 16.4472 8.58456 16.3737C8.36444 16.3002 8.16267 16.1716 7.97924 16.0246C7.70409 15.7857 7.46563 15.4916 7.30055 15.1608C7.04374 14.6463 6.86031 14.095 6.75025 13.5253C6.64019 13.0108 6.56682 12.4778 6.51179 11.9633C6.40173 10.9342 6.36505 9.92346 6.3467 8.89437C6.3467 8.41657 6.3467 7.9204 6.3467 7.4426C6.16327 7.79176 5.97984 8.14092 5.79641 8.4717C5.64967 8.74735 5.50292 9.023 5.33784 9.29865L4.87926 10.1256C4.25559 11.2282 3.61359 12.3124 2.93489 13.3967C2.513 14.095 2.07277 14.7933 1.63253 15.4733C4.65914 20.1042 10.8591 21.3906 15.4816 18.3584C20.104 15.3262 21.388 9.11489 18.3614 4.48394C16.5088 1.70904 13.3721 0 9.99698 0Z" fill="url(#paint0_linear_111_1118)"/>
</g>
<defs>
<linearGradient id="paint0_linear_111_1118" x1="-1.55346" y1="12.8077" x2="79.1723" y2="-6.60418" gradientUnits="userSpaceOnUse">
<stop stop-color="#21E418"/>
<stop offset="0.3" stop-color="#31B6E9"/>
<stop offset="0.9757" stop-color="#21E418"/>
</linearGradient>
<clipPath id="clip0_111_1118">
<rect width="20" height="20" fill="white"/>
</clipPath>
</defs>
</svg>
