<svg width="20" height="16" viewBox="0 0 20 16" fill="none" xmlns="http://www.w3.org/2000/svg">
<g clip-path="url(#clip0_111_1166)">
<path d="M3.23437 0L3.31245 0.116571L16.5001 14.6011C16.5001 14.6011 16.5001 14.6843 16.6249 14.7506C16.6309 14.7065 16.6309 14.6617 16.6249 14.6176V0H17.5936V16H16.7502C16.7053 16.0007 16.6609 15.9906 16.6203 15.9704C16.5796 15.9502 16.5438 15.9204 16.5155 15.8834L14.953 14.1353L3.31245 1.43177L3.23437 1.33211H3.12497V15.9666H2.21889V0H3.23437ZM0 2.19794H0.999614V14.1851H0V2.19748V2.19794Z" fill="#A1AEBA"/>
<path d="M4.95312 6.19332L12.3906 14.1851H4.95312V6.19332ZM20.0001 14.1851H18.9374V2.21436H20.0001V14.1851ZM15.1093 2.21436V10.0891C15.0158 9.98942 7.81254 2.38076 7.70314 2.21436H15.1101H15.1093Z" fill="#A1AEBA"/>
</g>
<defs>
<clipPath id="clip0_111_1166">
<rect width="20" height="16" fill="white"/>
</clipPath>
</defs>
</svg>
