<svg width="20" height="14" viewBox="0 0 20 14" fill="none" xmlns="http://www.w3.org/2000/svg">
<path fill-rule="evenodd" clip-rule="evenodd" d="M15.3235 1.1932C16.0679 -0.0267235 17.6313 -0.367106 18.8155 0.432938C19.9997 1.23298 20.3562 2.87049 19.6118 4.09042L14.5794 12.3377C14.1183 13.0934 13.3429 13.5116 12.5381 13.5303C11.6362 13.6183 10.7276 13.1989 10.2092 12.3569L7.56855 8.06775L4.67703 12.8065C3.93265 14.0264 2.36924 14.3668 1.18508 13.5667C0.0009082 12.7667 -0.355607 11.1292 0.388777 9.90926L5.4212 1.66194C6.04839 0.634081 7.257 0.230614 8.33032 0.607584C8.88188 0.776639 9.37764 1.14363 9.7115 1.68592L12.3791 6.01874L15.3235 1.1932Z" fill="#EC2308"/>
</svg>
