<svg width="20" height="10" viewBox="0 0 20 10" fill="none" xmlns="http://www.w3.org/2000/svg">
<g clip-path="url(#clip0_111_1174)">
<path d="M18.0842 4.75147C18.0842 5.10324 18.0842 5.38506 18.0129 5.66648C17.7294 7.21509 16.4527 8.1301 14.8217 7.98939C13.4033 7.84868 12.4815 7.21509 12.1271 6.01866C12.0558 5.66648 12.0558 5.38507 11.985 5.03289C11.985 4.89218 11.8432 4.75147 11.7723 4.75147H10.1413C9.99956 6.79296 10.9214 8.69334 12.6946 9.46764C14.3965 10.2419 16.2401 10.1716 17.8715 9.25658C19.2895 8.41192 20.2822 6.22972 19.9278 4.82182C19.2895 4.75147 18.7221 4.75147 18.0838 4.75147H18.0842ZM11.7014 4.18823C11.9854 4.18823 12.0563 4.11829 12.1271 3.83646C12.4106 2.78033 13.1198 2.2175 14.1125 2.00602C15.9566 1.5839 17.2332 2.2175 18.0129 3.97675C18.0842 4.04752 18.155 4.18823 18.2968 4.18823H19.9278C19.5026 1.16137 17.1623 -0.246531 14.3965 0.0352952C11.9145 0.31671 9.8578 2.42856 10.2122 4.18823C10.7087 4.18823 11.2053 4.11828 11.7014 4.18823ZM6.38231 4.11828H8.01332V3.7661C7.94286 1.86532 6.24055 0.105649 4.25515 0.0352952C2.97852 -0.0350586 1.70189 0.0352952 0.425266 0.0352952C0.212633 0.0352952 0.0708775 0.105238 0.0708775 0.31671V3.83646C0.0708775 3.9064 0.212633 4.11787 0.283511 4.11787H1.9854V2.28785C1.9854 2.00603 2.0567 1.86532 2.41108 1.86532H3.75818C4.89305 1.86532 6.02792 2.35821 6.16967 3.83605C6.0988 3.97717 6.24055 4.11787 6.38231 4.11787V4.11828ZM1.98582 5.17359C1.98582 5.03288 1.98582 4.89218 1.91453 4.75147H0V8.48228C0 8.90481 -1.97644e-07 9.32693 0.0708775 9.81941C0.567436 9.81941 0.992702 9.89018 1.48926 9.89018C1.84365 9.89018 1.98582 9.81982 1.98582 9.39729V5.17359ZM7.94286 4.89218C7.65935 4.68111 7.02104 4.82223 6.59577 4.82223H6.52448C6.38272 4.89218 6.17009 5.03288 6.17009 5.10365V9.60876C6.17009 9.81982 6.24055 9.96053 6.52448 9.96053H7.65935C7.94286 9.96053 8.08462 9.89018 8.08462 9.538V6.22972C8.01415 5.80719 8.15549 5.10324 7.94286 4.89259V4.89218Z" fill="#FFC71D"/>
</g>
<defs>
<clipPath id="clip0_111_1174">
<rect width="20" height="10" fill="white"/>
</clipPath>
</defs>
</svg>
