<svg width="20" height="20" viewBox="0 0 20 20" fill="none" xmlns="http://www.w3.org/2000/svg">
<g clip-path="url(#clip0_111_1148)">
<path d="M9.86312 0C12.2477 0.0511116 14.4413 0.391115 16.4827 1.50712C19.0292 2.90225 20.2782 5.34805 19.9481 8.35252C19.6666 10.9348 18.5436 13.1121 16.9908 15.065C15.2858 17.2081 13.2055 18.8211 10.7173 19.8451C10.2452 20.0388 9.77268 20.0593 9.31663 19.8584C5.33353 18.0659 2.33437 15.201 0.68771 10.9245C-0.0308032 9.06363 -0.272985 7.13117 0.383398 5.17471C0.891429 3.66092 1.85255 2.55513 3.16912 1.74179C5.28197 0.439115 7.5922 0.064445 9.86312 0ZM10.1577 4.77649C7.79254 4.77649 5.89989 6.76006 5.88679 9.25075C5.87411 11.7241 7.77014 13.7415 10.1252 13.7619C12.4709 13.7823 14.4092 11.7819 14.4024 9.35297C14.3961 6.78406 12.5326 4.77693 10.1577 4.77693V4.77649Z" fill="url(#paint0_linear_111_1148)"/>
<path fill-rule="evenodd" clip-rule="evenodd" d="M0.441963 5.00798C0.908996 3.72797 1.71077 2.74796 2.78474 1.99462C4.62329 1.06706 6.95719 0.918169 9.21586 1.77462C11.2784 2.55685 12.8811 4.02708 13.7932 5.76132C13.8338 5.88266 13.8718 6.00443 13.9073 6.12666C14.423 6.91422 14.737 7.96445 14.737 9.11691C14.737 10.8894 13.9944 12.4183 12.9217 13.1258C12.5098 13.6852 12.0076 14.1642 11.4382 14.541C10.4788 15.0863 9.36717 15.4094 8.19219 15.4752C5.74248 15.4325 3.20148 13.9085 1.6478 11.2685C0.464364 9.25824 0.0882005 6.99822 0.441963 5.00798ZM5.88703 9.25068C5.89971 6.76 7.79278 4.77642 10.1575 4.77642C12.5324 4.77642 14.3959 6.784 14.4027 9.35246C14.409 11.7818 12.4711 13.7823 10.1254 13.7618C7.76995 13.7414 5.87392 11.724 5.88703 9.25068Z" fill="url(#paint1_linear_111_1148)"/>
</g>
<defs>
<linearGradient id="paint0_linear_111_1148" x1="18.1742" y1="0.666673" x2="9.29047" y2="19.6684" gradientUnits="userSpaceOnUse">
<stop stop-color="#C02927"/>
<stop offset="1" stop-color="#F95250"/>
</linearGradient>
<linearGradient id="paint1_linear_111_1148" x1="12.0455" y1="7.77778" x2="3.80218" y2="18.3356" gradientUnits="userSpaceOnUse">
<stop stop-color="#7D0D0B"/>
<stop offset="1" stop-color="#F95250"/>
</linearGradient>
<clipPath id="clip0_111_1148">
<rect width="20.0002" height="20" fill="white"/>
</clipPath>
</defs>
</svg>
