<svg width="20" height="20" viewBox="0 0 20 20" fill="none" xmlns="http://www.w3.org/2000/svg">
    <g clip-path="url(#jwpx87j6ba)" fill="#69808C">
        <path d="M12.362 12.752a.682.682 0 0 0-.09.964c.244.29.68.33.972.089a4.97 4.97 0 0 0 1.812-3.837c0-2.752-2.254-4.99-5.026-4.99-2.771 0-5.025 2.238-5.025 4.99 0 1.52.685 2.94 1.878 3.892.297.237.73.19.969-.105a.68.68 0 0 0-.106-.963c-2.67-2.131-1.157-6.447 2.283-6.447 3.41 0 4.943 4.25 2.333 6.407zM14.46 16.095a7.505 7.505 0 0 0 3.149-6.107.686.686 0 0 0-.689-.684.687.687 0 0 0-.689.684 6.137 6.137 0 0 1-2.578 4.998.682.682 0 0 0-.156.956.695.695 0 0 0 .963.153z"/>
        <path d="M7.155.419a.683.683 0 0 0-.464.85.69.69 0 0 0 .857.46c5.52-1.634 11.074 2.493 11.074 8.198 0 .378.309.684.689.684a.686.686 0 0 0 .688-.684C20.001 3.317 13.566-1.48 7.155.419z"/>
        <path d="M14.817 4.152C9.9.172 2.454 3.645 2.454 9.987c0 4.15 3.4 7.524 7.577 7.524a.686.686 0 0 0 .69-.684.686.686 0 0 0-.69-.684c-3.418 0-6.2-2.762-6.2-6.156 0-5.196 6.1-8.025 10.114-4.774a.692.692 0 0 0 .97-.099.68.68 0 0 0-.098-.962z"/>
        <path d="M.689 9.354a.687.687 0 0 0-.689.684C0 15.531 4.5 20 10.031 20c2.352 0 4.64-.826 6.438-2.322a.68.68 0 0 0 .086-.964.691.691 0 0 0-.97-.085 8.699 8.699 0 0 1-5.554 2.003c-4.77 0-8.652-3.855-8.652-8.592a.689.689 0 0 0-.69-.686z"/>
    </g>
    <defs>
        <clipPath id="jwpx87j6ba">
            <path fill="#fff" d="M0 0h20v20H0z"/>
        </clipPath>
    </defs>
</svg>
