<svg width="20" height="20" viewBox="0 0 20 20" fill="none" xmlns="http://www.w3.org/2000/svg">
<g clip-path="url(#clip0_111_1128)">
<rect width="20" height="20" rx="4" fill="#002E5B"/>
<path d="M6.66602 5.16231H8.45274V6.20831C8.68678 5.84768 9.0118 5.54758 9.39867 5.33491C9.79648 5.11069 10.2521 4.99484 10.7152 5.00018C11.1275 4.9984 11.5348 5.08501 11.9065 5.25351C12.2783 5.422 12.6048 5.66797 12.8615 5.97295C13.4908 6.74609 13.8032 7.7083 13.741 8.68211C13.8057 9.67799 13.4918 10.6629 12.856 11.4593C12.6004 11.7678 12.2737 12.0172 11.9008 12.1885C11.528 12.3598 11.1187 12.4484 10.7041 12.4477C10.3206 12.4556 9.94082 12.3748 9.5978 12.2124C9.20558 12.0057 8.85684 11.7327 8.56892 11.407V15H6.66602V5.16231ZM8.56338 8.60368C8.51065 9.22957 8.68211 9.85402 9.05017 10.3766C9.18485 10.5547 9.36251 10.6997 9.5684 10.7998C9.77429 10.8998 10.0025 10.952 10.234 10.952C10.449 10.9536 10.6613 10.9071 10.8536 10.8162C11.0459 10.7253 11.2127 10.5926 11.3403 10.429C11.6817 9.9142 11.837 9.30849 11.7828 8.70305C11.8298 8.11581 11.6682 7.53054 11.3237 7.0399C11.1949 6.87751 11.0278 6.74571 10.8358 6.65493C10.6438 6.56415 10.432 6.5169 10.2174 6.5169C9.99334 6.51322 9.77146 6.5585 9.569 6.64921C9.36655 6.73993 9.18899 6.87364 9.05017 7.0399C8.70247 7.49269 8.53054 8.04499 8.56338 8.60368Z" fill="#FDE429"/>
</g>
<defs>
<clipPath id="clip0_111_1128">
<rect width="20" height="20" fill="white"/>
</clipPath>
</defs>
</svg>
