<svg width="20" height="16" viewBox="0 0 20 16" fill="none" xmlns="http://www.w3.org/2000/svg">
<g clip-path="url(#clip0_114_13507)">
<path d="M17.7888 4.58263C17.7765 4.54938 17.7693 4.51691 17.757 4.48286C17.0171 2.44857 14.2059 1.83212 10.9651 2.76166L10.4336 2.39017C12.029 1.61798 13.6179 1.21485 14.9494 1.32516C16.9354 1.49388 17.9067 2.76166 17.7888 4.58263ZM14.9075 8.85561C12.8296 11.8227 9.07463 13.8765 6.51946 13.6639C3.96863 13.4474 3.5817 10.8688 5.66026 7.90174C5.70149 7.8409 5.74633 7.78089 5.78973 7.72005L5.79629 11.4399C5.78256 12.3856 6.59473 12.8293 7.17838 12.4538L14.8178 7.22851C15.4152 6.79456 15.3523 5.82365 14.7896 5.44972L11.692 3.45031C12.5295 3.16804 13.3331 3.03502 14.0469 3.09423C16.5999 3.3108 16.9839 5.88854 14.9075 8.85562L14.9075 8.85561ZM5.19095 15.2602C2.84624 15.0623 1.9111 13.329 2.5215 10.9686C2.51781 11.362 2.57286 11.7392 2.70304 12.0896C3.61937 14.6162 7.7331 14.9585 11.8902 12.8609C11.9756 12.8179 12.0602 12.7709 12.1441 12.7287C9.81021 14.4183 7.2102 15.4281 5.19095 15.2602V15.2602ZM7.89221 2.05113L13.0206 5.67603C13.3996 5.93073 13.4452 6.59422 13.0416 6.88866L7.86111 10.4316C7.4655 10.6871 6.91078 10.383 6.92163 9.73651L6.89705 2.70165C6.91948 2.1144 7.43731 1.75994 7.89222 2.05113H7.89221ZM19.7633 3.35623C18.6886 0.394012 14.2248 -0.258134 9.39436 1.65855L7.25071 0.1523C6.58317 -0.275161 5.82089 0.245579 5.78401 1.11186L5.78545 3.55819C1.62255 6.35575 -0.791591 10.383 0.236119 13.2178C1.42728 16.4923 6.76253 16.9417 12.1535 14.218C17.5459 11.4958 20.9523 6.63234 19.7633 3.35623Z" fill="#69808C"/>
</g>
<defs>
<clipPath id="clip0_114_13507">
<rect width="20" height="16" fill="white"/>
</clipPath>
</defs>
</svg>
