<svg width="14" height="20" viewBox="0 0 14 20" fill="none" xmlns="http://www.w3.org/2000/svg">
<g clip-path="url(#clip0_111_1030)">
<path d="M7.9168 7.79242C5.74404 7.92697 6.71963 10.7465 9.12168 10.5976C11.4714 10.4521 10.2318 7.64909 7.9168 7.79242Z" fill="#F19021"/>
<path d="M7 6.05085C5.61553 6.05085 4.26215 6.4599 3.11101 7.22628C1.95986 7.99266 1.06266 9.08194 0.532845 10.3564C0.00303135 11.6308 -0.13559 13.0332 0.134507 14.3861C0.404603 15.739 1.07129 16.9818 2.05025 17.9572C3.02922 18.9326 4.2765 19.5969 5.63437 19.866C6.99224 20.1351 8.3997 19.997 9.67879 19.4691C10.9579 18.9412 12.0511 18.0473 12.8203 16.9003C13.5895 15.7533 14 14.4049 14 13.0254C14 11.1757 13.2625 9.40164 11.9497 8.09366C10.637 6.78567 8.85652 6.05085 7 6.05085ZM7 19.269C5.76091 19.2693 4.54958 18.9034 3.51921 18.2176C2.48883 17.5319 1.6857 16.5571 1.21137 15.4165C0.737034 14.276 0.612815 13.0209 0.854416 11.81C1.09602 10.5991 1.69259 9.48679 2.56868 8.61372C3.44478 7.74066 4.56104 7.14606 5.77631 6.90512C6.99158 6.66419 8.25126 6.78773 9.39605 7.26014C10.5408 7.73255 11.5193 8.5326 12.2077 9.55911C12.8962 10.5856 13.2636 11.7925 13.2636 13.0271C13.2636 14.6824 12.6037 16.2699 11.4291 17.4404C10.2545 18.611 8.66132 19.2687 7 19.269ZM6.7889 1.18183C5.12709 2.43341 5.41591 4.35279 5.41591 4.35279C5.41591 4.35279 4.37142 1.65138 3.01496 0C2.83197 2.12587 3.50055 4.94261 3.50055 4.94261C3.50055 4.94261 2.65118 3.19622 0.569924 3.09847C2.29622 4.08699 2.96591 5.86798 3.11914 6.34576C4.14789 5.71305 5.32436 5.35834 6.5326 5.3166C6.39646 4.87177 5.91252 2.99742 6.7889 1.18183Z" fill="#F19021"/>
</g>
<defs>
<clipPath id="clip0_111_1030">
<rect width="14" height="20" fill="white"/>
</clipPath>
</defs>
</svg>
