<svg width="20" height="20" viewBox="0 0 20 20" fill="none" xmlns="http://www.w3.org/2000/svg">
<g clip-path="url(#clip0_114_13673)">
<path d="M0 0V0.0983134C0 0.762777 0.0264246 1.42893 0.0784213 2.07814C0.130418 2.72735 0.210544 3.40029 0.314538 4.05712C0.422793 4.72921 0.558326 5.39537 0.716873 6.03865C0.88224 6.70904 1.07574 7.37351 1.2931 8.01763C1.50023 8.63124 1.7355 9.2457 1.99122 9.84406L2.01935 9.90931L2.05771 9.99407C2.35008 10.6619 2.67655 11.3281 3.0303 11.9747C3.32097 12.5078 3.64148 13.0452 3.98329 13.5715C4.06683 13.7003 4.15207 13.828 4.23901 13.9546C4.66522 14.5792 5.11955 15.1954 5.60286 15.7844L5.72561 15.9344C5.81085 16.0327 5.89609 16.1344 5.98133 16.2336C6.28308 16.5853 6.60188 16.9379 6.93091 17.2803C7.13634 17.4939 7.34859 17.7083 7.56169 17.9151C7.69041 18.0524 7.82594 18.1787 7.96573 18.3066C8.10553 18.4346 8.24106 18.5609 8.38085 18.6821C8.8565 19.1059 9.3543 19.5135 9.86063 19.8966C9.88791 19.9178 9.91518 19.939 9.94587 19.9593L10.0038 20L10.0618 19.9576C10.0882 19.9381 10.1155 19.9178 10.1402 19.8974C10.6448 19.5152 11.1435 19.1076 11.6217 18.6829C11.7726 18.549 11.9226 18.4117 12.0692 18.2761C12.1965 18.1586 12.3227 18.0391 12.4477 17.9176C12.6668 17.704 12.8739 17.4896 13.0759 17.2828C13.41 16.9353 13.7399 16.5709 14.0587 16.1971L14.0758 16.1776L14.2804 15.9352L14.4022 15.7861C14.8796 15.2013 15.3399 14.5851 15.7661 13.9554C15.8624 13.8122 15.9579 13.6673 16.0525 13.5223C16.373 13.0248 16.6824 12.6028 16.9723 12.0748C17.0285 11.9714 17.0848 11.8705 17.1427 11.7705C17.4291 11.251 17.6994 10.7611 17.9483 10.1907L18.0079 10.0542H6.75617L6.83374 10.1983C7.15996 10.7808 7.52 11.344 7.91203 11.8849L8.08251 12.1248H14.4687C14.2914 12.4087 14.1048 12.5968 13.913 12.8791C13.6922 13.202 13.4586 13.5257 13.2183 13.841C13.0614 14.0486 12.8892 14.2648 12.7068 14.4868C12.4613 14.7868 12.203 15.0852 11.9396 15.375C11.8203 15.5064 11.6839 15.6471 11.5348 15.8056C11.4879 15.8556 11.441 15.9047 11.3916 15.9539C10.9449 16.4116 10.4812 16.848 10.0124 17.2532C9.53842 16.8438 9.07471 16.4056 8.63061 15.9514C8.58202 15.9039 8.53514 15.8547 8.48826 15.8056C8.3621 15.6745 8.23765 15.5428 8.1149 15.4106C7.83787 15.1072 7.56936 14.797 7.3162 14.4877C7.14572 14.2843 6.98035 14.0741 6.80476 13.8435C6.57887 13.5478 6.35469 13.2401 6.14073 12.9282C5.90206 12.5799 5.67276 12.2282 5.45881 11.8807C5.06721 11.2442 4.70817 10.5885 4.38307 9.91609C4.3055 9.7593 4.23134 9.60081 4.15548 9.43131C3.93471 8.94567 3.72928 8.44817 3.54857 7.95322C3.31245 7.31587 3.10191 6.65565 2.9229 5.99034C2.75242 5.34961 2.6041 4.68853 2.48732 4.02576C2.38162 3.413 2.29809 2.78922 2.24097 2.16713H17.7548C17.6977 2.78922 17.615 3.41385 17.5084 4.02322C17.3959 4.66141 17.2527 5.29452 17.0924 5.91576H5.05221L5.08972 6.04119C5.28287 6.66401 5.50907 7.27622 5.76738 7.87524L5.81256 7.98542H18.6839L18.7257 7.86338C18.9388 7.23366 19.122 6.6904 19.2823 6.0378C19.4425 5.3852 19.5772 4.72837 19.6855 4.05628C19.7912 3.39859 19.8704 2.73328 19.9216 2.07729C19.9727 1.42131 20 0.761081 20 0.0974659V0H0Z" fill="#69808C"/>
</g>
<defs>
<clipPath id="clip0_114_13673">
<rect width="20" height="20" fill="white"/>
</clipPath>
</defs>
</svg>
