<svg width="8" height="20" viewBox="0 0 8 20" fill="none" xmlns="http://www.w3.org/2000/svg">
<g clip-path="url(#clip0_111_1176)">
<path fill-rule="evenodd" clip-rule="evenodd" d="M4.00035 0C1.79574 0 0 1.96123 0 4.37245C0 5.07069 0.51774 5.63618 1.158 5.63618C1.79646 5.63618 2.31491 5.07069 2.31491 4.37245C2.31491 3.35696 3.07122 2.52972 3.99999 2.52972C4.92912 2.52972 5.68507 3.35696 5.68507 4.37207C5.68507 5.07069 6.20317 5.63618 6.84271 5.63618C7.48224 5.63618 7.99962 5.07069 7.99962 4.37245C7.99962 1.96123 6.20604 0 4.00035 0ZM6.84271 12.0452C6.20317 12.0452 5.68507 12.6126 5.68507 13.3108C5.68507 14.3263 4.92912 15.1521 3.99999 15.1521C3.07122 15.1521 2.31491 14.3263 2.31491 13.3108C2.31491 12.6126 1.79646 12.0452 1.158 12.0452C0.51774 12.0452 0 12.6126 0 13.3108C0 15.7202 1.79574 17.6814 4.00035 17.6814C4.31166 17.6795 4.62164 17.6388 4.92373 17.5603L5.81298 19.3408C6.01777 19.7503 6.40006 19.9869 6.79815 19.9993C6.80821 20 6.81971 20 6.83049 20C7.01876 20 7.20775 19.9498 7.3838 19.8455C7.94609 19.5091 8.15232 18.7419 7.84549 18.1291L6.92355 16.2834C7.61975 15.464 8.00288 14.406 7.99998 13.3108C7.99998 12.6126 7.4826 12.0452 6.84271 12.0452ZM1.15764 11.326C1.58409 11.3275 1.99559 11.4901 2.31599 11.7839V5.89755C1.99581 6.19167 1.58417 6.35439 1.15764 6.35542C0.731923 6.35478 0.320874 6.19304 0.000718873 5.90018V11.7831C0.320717 11.4898 0.731755 11.3275 1.15764 11.3264V11.326ZM6.84271 6.3558C6.41638 6.35482 6.00494 6.19208 5.68507 5.89793V11.7839C6.00496 11.4898 6.41642 11.3272 6.84271 11.3264C7.2814 11.3264 7.68489 11.4985 7.99891 11.7827V5.90018C7.67865 6.19241 7.2681 6.3542 6.84271 6.3558Z" fill="#E46F2A"/>
</g>
<defs>
<clipPath id="clip0_111_1176">
<rect width="8" height="20" fill="white"/>
</clipPath>
</defs>
</svg>
