<svg width="20" height="16" viewBox="0 0 20 16" fill="none" xmlns="http://www.w3.org/2000/svg">
<g clip-path="url(#clip0_111_1131)">
<path d="M12.6998 9.64997C12.6835 9.74343 12.6656 9.8369 12.6504 9.93036C12.5357 10.6502 12.4218 11.37 12.3087 12.0898C12.2039 12.7538 12.0995 13.418 11.9954 14.0825C11.8992 14.6939 11.8027 15.3051 11.7057 15.9163C11.6966 15.9738 11.6723 16 11.6055 16C10.1844 15.998 8.76314 15.998 7.34178 16C7.32014 16 7.29812 15.997 7.25977 15.994C7.27533 15.8841 7.28786 15.7798 7.30495 15.6762C7.44342 14.8425 7.58264 14.0089 7.72262 13.1755C7.85362 12.3821 7.98158 11.5881 8.1122 10.7947C8.22421 10.1158 8.34002 9.43761 8.45128 8.75906C8.56253 8.0805 8.67226 7.40082 8.78428 6.72226C8.89629 6.0437 9.0121 5.36515 9.12335 4.68659C9.22891 4.04803 9.33143 3.4091 9.43661 2.77055C9.53583 2.16938 9.63582 1.56821 9.73657 0.967042C9.78328 0.68515 9.8315 0.403259 9.87478 0.12062C9.88238 0.0701487 9.90212 0.0522035 9.94731 0.0529512C9.97654 0.0529512 10.0058 0.0548205 10.0346 0.0529512C11.086 0.034632 12.1374 0.00472355 13.1892 0.00023722C13.8157 -0.00237981 14.4422 0.0166867 15.0687 0.0559422C15.9371 0.110526 16.7953 0.236517 17.6166 0.541962C18.0908 0.717303 18.5278 0.953209 18.9076 1.28707C19.452 1.76785 19.7664 2.37426 19.9085 3.07375C20.0224 3.64389 20.0125 4.21814 19.9696 4.79351C19.9295 5.41829 19.8063 6.0352 19.6032 6.62842C19.3036 7.47484 18.8346 8.20911 18.1052 8.76653C17.7294 9.06293 17.2953 9.27935 16.8302 9.4021C16.8089 9.40733 16.7892 9.41743 16.7543 9.43014L18.9144 15.9989H18.7967C17.2667 15.9989 15.7368 15.9989 14.2068 15.9989C14.1271 15.9989 14.0929 15.9832 14.0735 15.8968C13.7974 14.6008 13.5189 13.3047 13.2382 12.0087C13.0706 11.2315 12.9033 10.4544 12.7362 9.67726C12.7333 9.66873 12.7293 9.66058 12.7245 9.65296L12.6998 9.64997ZM13.1087 7.63112C13.1379 7.62915 13.1669 7.62566 13.1957 7.62065C13.6379 7.51771 14.0596 7.34283 14.4434 7.10323C14.907 6.809 15.2745 6.43289 15.4515 5.90687C15.6227 5.39767 15.5931 4.88361 15.4515 4.37404C15.3156 3.88802 14.9981 3.57697 14.4863 3.49023C14.2512 3.4506 14.0105 3.44238 13.7721 3.42742C13.7516 3.42742 13.7124 3.47565 13.7075 3.50556C13.6695 3.7381 13.6399 3.97139 13.6058 4.20431C13.5298 4.7135 13.4539 5.2227 13.3802 5.73228C13.3043 6.25095 13.2283 6.76974 13.1524 7.28866C13.1391 7.40007 13.1243 7.51223 13.1087 7.63224V7.63112Z" fill="#E6E6E6"/>
<path d="M5.44002 9.64997C5.42369 9.74343 5.40584 9.8369 5.39065 9.93036C5.27598 10.6502 5.16207 11.37 5.04892 12.0898C4.94412 12.7538 4.8397 13.418 4.73567 14.0825C4.63947 14.6939 4.5429 15.3051 4.44595 15.9163C4.43684 15.9738 4.41254 16 4.34571 16C2.9246 15.998 1.50337 15.998 0.0820161 16C0.060373 16 0.0383501 15.997 0 15.994C0.0155679 15.8841 0.0280982 15.7798 0.0451848 15.6762C0.18365 14.8425 0.322875 14.0089 0.462859 13.1755C0.593857 12.3821 0.721817 11.5881 0.852435 10.7947C0.964447 10.1158 1.08026 9.43761 1.19151 8.75906C1.30276 8.0805 1.4125 7.40082 1.52451 6.72226C1.63652 6.0437 1.75233 5.36515 1.86359 4.68659C1.96914 4.04803 2.07166 3.4091 2.17684 2.77055C2.27607 2.16938 2.37606 1.56821 2.47681 0.967042C2.52351 0.68515 2.57173 0.403259 2.61502 0.12062C2.62261 0.0701487 2.64236 0.0522035 2.68754 0.0529512C2.71678 0.0529512 2.74602 0.0548205 2.77487 0.0529512C3.82627 0.034632 4.87767 0.00472355 5.92945 0.00023722C6.55596 -0.00237981 7.18248 0.0166867 7.80899 0.0559422C8.67737 0.110526 9.5355 0.236517 10.3568 0.541962C10.831 0.717303 11.2681 0.953209 11.6478 1.28707C12.1923 1.76785 12.5067 2.37426 12.6487 3.07375C12.7626 3.64389 12.7527 4.21814 12.7098 4.79351C12.6692 5.41797 12.5457 6.03449 12.3423 6.6273C12.0431 7.47559 11.5722 8.20948 10.8447 8.76691C10.4689 9.06331 10.0348 9.27972 9.56967 9.40247C9.54841 9.40771 9.52867 9.4178 9.49373 9.43051L11.6546 15.9989H11.5381C10.0081 15.9989 8.47815 15.9989 6.9482 15.9989C6.86846 15.9989 6.83429 15.9832 6.81492 15.8968C6.53875 14.6008 6.2603 13.3047 5.97957 12.0087C5.812 11.2315 5.64468 10.4544 5.47761 9.67726C5.47466 9.66873 5.47071 9.66058 5.46584 9.65296L5.44002 9.64997ZM5.84896 7.63112C5.87811 7.62915 5.90713 7.62566 5.93591 7.62065C6.37815 7.51771 6.79984 7.34283 7.18362 7.10323C7.64723 6.809 8.01479 6.43289 8.19173 5.90687C8.36297 5.39767 8.33336 4.88361 8.19173 4.37404C8.05579 3.88802 7.73836 3.57697 7.22652 3.49023C6.99148 3.4506 6.75075 3.44238 6.5123 3.42742C6.49179 3.42742 6.45269 3.47565 6.44775 3.50556C6.40978 3.7381 6.38016 3.97139 6.34599 4.20431C6.27005 4.7135 6.19411 5.2227 6.12044 5.73228C6.0445 6.25095 5.96856 6.76974 5.89262 7.28866C5.87781 7.40007 5.8649 7.51223 5.84934 7.63224L5.84896 7.63112Z" fill="#DE1C31"/>
</g>
<defs>
<clipPath id="clip0_111_1131">
<rect width="20" height="16" fill="white"/>
</clipPath>
</defs>
</svg>
