<svg width="20" height="20" viewBox="0 0 20 20" fill="none" xmlns="http://www.w3.org/2000/svg">
<g clip-path="url(#clip0_111_1200)">
<path fill-rule="evenodd" clip-rule="evenodd" d="M14.2945 6.47937C14.2945 6.802 14.2945 7.17847 13.8337 7.33997C13.5261 7.44764 13.2192 7.01734 13.1679 6.74817C13.3214 6.53321 13.5261 6.3717 13.7312 6.31825C14.1919 6.10291 14.2948 6.10291 14.2948 6.47937H14.2945ZM5.99706 7.33997C5.53633 7.17847 5.53633 6.802 5.53633 6.47937C5.53633 6.10291 5.63851 6.10291 6.0996 6.31825C6.30433 6.42554 6.50942 6.53321 6.66324 6.74817C6.66324 7.01734 6.30433 7.44726 5.99706 7.33997ZM16.9068 16.8051C17.2141 16.6436 17.4701 16.482 17.6748 16.2133C18.8021 14.9762 19.0068 13.5245 19.1603 11.8033C19.2115 11.3734 19.2115 10.9431 19.2115 10.4594C19.2115 10.4052 19.2115 10.0825 19.2624 10.0825C19.365 10.1902 19.4163 10.2979 19.4675 10.4051C19.6213 10.7816 19.6726 11.2119 19.7235 11.6422C19.8773 12.449 19.8773 13.3092 19.7748 14.1164C19.7239 14.3848 19.6213 14.6539 19.5188 14.9227C18.8017 16.1598 18.0334 17.2888 17.3163 18.5259C17.2654 18.6336 17.2141 18.4182 17.1628 18.4182L17.1119 18.3648C16.9581 18.2571 16.8555 18.2571 16.8043 18.3105C16.7534 18.3644 16.7534 18.4182 16.7534 18.472C16.5995 18.9023 16.2406 19.5476 16.0359 19.9241C15.985 19.9775 15.9337 20.0317 15.8825 19.9775C15.8312 19.9775 15.8312 19.9241 15.8312 19.8706V18.472C15.8312 18.2032 15.8312 17.8268 15.4726 17.8268C15.1141 17.8268 15.1141 18.1494 15.0628 18.472V19.3326C15.0628 19.3861 15.0119 19.4938 14.9603 19.4938H14.9094C14.6017 19.225 14.2432 19.0635 13.8846 18.902C13.2701 18.6336 12.6047 18.7408 12.0919 19.1173L12.1945 19.0639C12.4152 18.8584 12.6773 18.7081 12.9612 18.6243C13.2451 18.5404 13.5434 18.5252 13.8337 18.5797C13.9872 18.6332 14.141 18.6332 14.3457 18.6332C14.3966 18.6332 14.4483 18.5797 14.4483 18.472V18.4186C14.2432 17.7729 13.4752 15.4069 14.9603 14.6001C15.0116 14.6001 15.0116 14.5463 15.0116 14.4924C15.0628 14.0621 15.8312 12.1798 13.7825 10.9431C13.4752 11.2658 13.0654 11.9648 12.5534 12.3951C13.4239 12.6101 13.9359 12.0187 14.3461 11.6422C14.1923 12.7178 13.3727 12.8254 12.7068 13.2019C13.2705 12.9327 13.8337 13.3092 14.4483 12.9327C13.9872 13.901 13.0141 13.4169 12.4508 13.901C13.0141 14.2775 13.5261 14.0621 14.0385 14.0083H14.4483C14.3457 14.1698 14.1923 14.3848 14.0385 14.4924C13.8337 14.6539 13.6287 14.7612 13.3727 14.8151C13.1167 14.8689 12.8603 14.9227 12.6043 14.8151C11.8872 14.6001 11.1701 14.2775 10.453 14.0083C10.2996 14.0621 10.197 13.901 10.197 13.7395C10.1461 13.4707 10.197 13.2557 10.197 12.9866C10.1461 12.6639 10.3509 12.3413 10.6581 12.2879C11.3236 12.0725 11.9385 11.6422 12.3483 11.1042C12.5017 10.8893 12.6043 10.6743 12.6556 10.4055C12.6556 10.1902 12.6047 9.97523 12.553 9.76027C12.5017 9.58487 12.5017 9.39732 12.553 9.22192V9.16847L12.7068 8.52321C12.7577 8.30787 12.8603 8.14674 13.0141 8.03907L13.065 7.98523L13.1167 7.93178C13.3727 7.77027 13.6799 7.6626 13.9872 7.55493C15.0116 7.12463 15.8308 6.21058 16.1385 5.13502C16.241 4.75855 16.2919 4.38209 16.241 3.95179C16.1385 4.16713 15.9846 4.59705 15.8825 4.81239C15.7799 5.13502 15.4214 5.34998 15.1141 5.34998C14.1923 5.34998 13.2705 5.51148 12.7577 6.58704C12.553 7.12463 12.1432 7.60877 11.6312 7.87756C11.6312 7.55493 11.6821 7.28614 11.7847 7.01734C11.3239 6.802 11.5287 6.53321 11.7338 6.26441C12.041 5.88795 12.3992 5.56532 12.7068 5.13502C12.3996 5.08118 12.1432 4.91968 11.9385 4.70472H13.7821V4.65126C13.2188 4.54359 12.6556 4.32825 12.1432 4.05946C13.0141 3.52149 14.8068 3.79066 15.1141 3.68299C15.1141 3.62954 14.8581 3.57532 14.6017 3.46765L13.1676 3.09119C12.6043 2.93006 11.9894 2.66127 11.4774 2.39247H13.8846C13.0654 1.90834 12.1436 1.58571 11.2214 1.47804C10.7094 1.42458 10.2996 1.42458 9.99231 1.42458V1.26308V1.4242C9.68504 1.4242 9.27522 1.4242 8.76322 1.47804C7.84105 1.58571 6.91923 1.90834 6.0996 2.39247H8.50686C7.99487 2.7151 7.43123 2.93006 6.81669 3.09119C6.20215 3.25269 5.99706 3.30653 5.43379 3.46765C5.17779 3.57532 4.92143 3.62916 4.92143 3.68299C5.22906 3.79066 7.02142 3.52149 7.89232 4.05946C7.37996 4.32825 6.86796 4.54321 6.25342 4.65126V4.70472H8.09705C7.89232 4.92006 7.63632 5.08118 7.32869 5.13502C7.68723 5.51148 7.9945 5.88795 8.30214 6.26441C8.55814 6.53321 8.71159 6.802 8.25086 7.01734C8.35105 7.29201 8.40304 7.58345 8.40432 7.87756C7.89232 7.60877 7.4825 7.12463 7.27778 6.58704C6.76542 5.56532 5.8436 5.40381 4.92143 5.34998C4.56325 5.40381 4.25598 5.18885 4.15343 4.81239C4.05089 4.59705 3.89707 4.16713 3.79489 3.95179C3.74362 4.32825 3.74362 4.75855 3.89707 5.13502C4.2047 6.26441 5.02434 7.17847 6.04833 7.55493C6.3556 7.6626 6.61196 7.77027 6.91923 7.9314C6.91923 7.9314 6.97014 7.9314 6.97014 7.98523C6.97014 7.98523 7.02142 7.98523 7.02142 8.03869C7.17523 8.14674 7.27778 8.3617 7.32905 8.52282L7.4825 9.16808V9.2223C7.53341 9.38342 7.53341 9.54493 7.4825 9.75989C7.4316 9.97523 7.37996 10.1902 7.37996 10.4051C7.43123 10.6743 7.53378 10.8893 7.68723 11.1042C8.09705 11.6961 8.71159 12.1264 9.3774 12.2879C9.68504 12.3413 9.88976 12.6639 9.83849 12.9866C9.83849 13.2557 9.88976 13.4707 9.83849 13.7395C9.78758 13.901 9.68504 14.0083 9.53122 14.116C8.81413 14.3848 8.09705 14.7078 7.37996 14.9227C7.12396 14.9762 6.86796 14.9762 6.6116 14.9227C6.3556 14.8689 6.15088 14.7612 5.94615 14.6001C5.79233 14.4386 5.63851 14.2775 5.53633 14.116C5.68979 14.0625 5.8436 14.0625 5.94615 14.116C6.45815 14.1694 6.97051 14.3848 7.53378 14.0083C6.97014 13.5245 5.99706 13.9548 5.53633 13.0404C6.20178 13.4169 6.76542 13.0404 7.27778 13.3092C6.6116 12.9327 5.84361 12.8254 5.63851 11.7499C6.04833 12.1264 6.56069 12.7178 7.43123 12.5024C6.91924 12.0725 6.50942 11.3734 6.20215 11.0508C4.15343 12.2879 4.92143 14.1698 4.97306 14.6001C4.97306 14.6536 5.02397 14.7074 5.02397 14.7074C6.50942 15.5142 5.79233 17.8802 5.53633 18.5255V18.6336C5.53633 18.687 5.58724 18.687 5.63851 18.687C5.79233 18.687 5.94615 18.687 6.15088 18.6336C6.76542 18.472 7.37996 18.687 7.78978 19.1173L7.89232 19.1711C7.37996 18.7947 6.71415 18.687 6.0996 18.9562C5.74106 19.1173 5.38252 19.2788 5.07525 19.548C5.02434 19.6014 4.92143 19.548 4.92143 19.4938V18.5797C4.92143 18.2571 4.92143 17.9345 4.51198 17.9345C4.05089 17.8268 4.05089 18.2032 4.05089 18.472V19.8702C4.05089 19.9241 3.99998 19.9779 3.89707 19.9779C3.84616 19.9779 3.79489 19.9779 3.79489 19.9241C3.5898 19.4938 3.28253 18.8485 3.0778 18.472C3.0778 18.4186 3.02653 18.3644 3.02653 18.3109C2.92399 18.2571 2.87271 18.2571 2.71926 18.3644L2.66799 18.4182C2.61708 18.472 2.56544 18.6336 2.51417 18.5259C1.79708 17.2888 0.977815 16.1594 0.312 14.9227C0.158183 14.6539 0.106911 14.3848 0.0556382 14.116C-0.046543 13.3092 0.00472934 12.449 0.106911 11.6418C0.158183 11.2119 0.209455 10.8355 0.363273 10.4051C0.414181 10.2979 0.465454 10.1364 0.567999 10.0825C0.618908 10.0825 0.618908 10.4052 0.618908 10.459C0.618908 10.8893 0.618908 11.3734 0.670544 11.8033C0.823997 13.4707 1.02909 14.9227 2.15563 16.2133C2.36072 16.4824 2.66799 16.6436 2.92399 16.8051C2.97526 16.8585 3.0778 16.8051 3.0778 16.7512V16.6436C2.71926 15.8906 2.36072 15.1915 2.10472 14.4386C1.84836 13.6857 1.64363 12.8254 1.43854 12.0725C1.43854 12.0187 1.43854 11.911 1.54108 11.911H1.59236C1.74617 11.9648 1.9509 12.0725 2.15599 12.1264C2.2069 12.1264 2.30944 12.1264 2.30944 12.0725V11.9648C2.10472 11.2119 1.38763 8.95312 1.38763 8.95312C1.43854 9.00696 1.84836 9.65222 1.84836 9.70606C2.16905 10.2623 2.4598 10.8369 2.71926 11.4273C2.82144 11.7499 2.92398 11.9648 2.97526 12.0725C2.97526 12.126 3.02617 12.1798 2.97526 12.2336C2.41162 12.7716 2.87271 13.7395 3.12907 14.0083C3.48762 14.4386 3.69234 14.9227 3.84616 15.4603C3.89707 15.568 3.94834 15.7295 3.99962 15.8906C3.99962 15.9445 4.10216 15.9983 4.15343 15.9445C4.20434 15.9445 4.25561 15.891 4.25561 15.8368C4.2047 15.1381 4.10216 14.2236 3.89707 14.0083C3.53853 13.6857 3.64107 12.5563 3.99962 12.3413C4.35816 12.1264 4.40943 11.9648 4.25561 11.6422C4.2047 11.5888 4.25561 11.4807 4.30689 11.4807L5.89488 10.5128C5.94579 10.4594 5.99706 10.4051 5.94579 10.3517C5.94579 10.2979 5.89488 10.2979 5.8436 10.2979C5.27997 10.244 4.7167 10.4051 4.30689 10.7816C3.94834 10.997 3.53853 10.8893 3.3338 10.5128C3.28289 10.4594 3.28289 10.4051 3.28289 10.3517C3.23126 10.244 3.23126 10.1902 3.18035 10.0825C3.18035 10.0291 3.23126 9.9214 3.28253 9.9214C4.05089 9.70605 4.20434 9.65222 4.25561 9.43726C4.25561 9.38381 4.20471 9.27614 4.15343 9.27614C3.89707 9.32959 3.5898 9.27614 3.3338 9.16847C3.18035 9.00696 3.0778 8.792 3.02653 8.57666C3.02653 8.52321 3.02653 8.41553 3.12907 8.41553H3.23126C3.48762 8.52321 3.5898 8.52321 3.74362 8.41553C3.79453 8.3617 3.79453 8.30787 3.74362 8.20019C3.69234 8.14674 3.69234 8.09291 3.64107 8.09291C3.07744 7.60877 2.15563 4.97351 2.2069 4.22058C1.9509 4.43592 1.79708 4.70472 1.6949 5.02735C1.08036 4.75855 0.619272 4.70472 0.721816 3.79028L1.38727 4.16713C1.38727 4.16713 1.43854 3.89795 1.08036 3.57532C0.312001 2.87661 0.158183 1.96217 0.158183 0.994282C0.107274 0.510146 0.465454 0.0798462 0.926542 0.0260109C1.08036 0.0260109 1.28509 0.0794643 1.4389 0.133681C2.97526 0.886612 5.02434 1.63954 6.76542 1.4242H6.81633C7.89232 1.20924 8.96795 1.04774 10.0945 1.04774C11.1701 1.04774 12.297 1.15541 13.3727 1.4242H13.4236C15.1654 1.63954 17.2141 0.886612 18.7508 0.133681C19.1603 -0.135495 19.6726 0.026011 19.8773 0.402476C19.9799 0.563982 20.0312 0.725106 19.9799 0.940447C19.9799 1.90834 19.8261 2.82277 19.0577 3.52149C18.6992 3.8445 18.7504 4.11329 18.7504 4.11329L19.4163 3.73683C19.5188 4.65088 19.0577 4.70472 18.4432 4.97389C18.341 4.65088 18.1872 4.38209 17.9312 4.16713C17.9821 4.91968 17.0603 7.55493 16.497 8.03869C16.4457 8.09291 16.3945 8.09291 16.3945 8.14674C16.3945 8.20019 16.3435 8.20019 16.3435 8.25403C16.3435 8.30786 16.3435 8.30787 16.3945 8.3617C16.5483 8.46937 16.5995 8.46937 16.9068 8.3617C16.9577 8.30825 17.0603 8.3617 17.0603 8.41515V8.52282C17.0094 8.73816 16.9068 8.95312 16.753 9.11463C16.497 9.2223 16.1894 9.27575 15.9337 9.2223C15.8825 9.2223 15.7799 9.27575 15.8312 9.38342C15.8821 9.65222 15.9846 9.65222 16.8043 9.86756C16.8552 9.86756 16.9577 9.92101 16.9068 10.0287C16.9068 10.1364 16.8555 10.1902 16.8043 10.2979C16.7017 10.6743 16.2919 10.8893 15.9334 10.7816C15.8825 10.7816 15.8312 10.7282 15.7799 10.7282C15.3188 10.3517 14.8068 10.1898 14.2432 10.244C14.1923 10.244 14.141 10.3517 14.141 10.4051C14.141 10.459 14.1919 10.459 14.1919 10.5128L15.7799 11.4807C15.8308 11.5345 15.8825 11.5884 15.8308 11.6961C15.6774 12.0187 15.729 12.2336 16.0872 12.3948C16.4457 12.6101 16.5483 13.7395 16.1897 14.0621C15.9846 14.2775 15.8312 15.1915 15.8312 15.891C15.8312 15.9445 15.8821 16.0521 15.9337 16.0521C15.9846 16.0521 16.0359 15.9983 16.0359 15.9445C16.0872 15.7833 16.1385 15.6218 16.1897 15.5142C16.3432 14.9766 16.5483 14.4924 16.9068 14.0621C17.1628 13.7395 17.6239 12.7716 17.0603 12.2875C17.0094 12.234 17.0094 12.1798 17.0603 12.1264C17.1115 12.0187 17.2141 11.8033 17.3166 11.4811C17.5726 10.8893 17.8286 10.2975 18.1872 9.75989C18.2381 9.70644 18.6483 9.06079 18.6483 9.00696C18.6483 9.00696 17.9312 11.2658 17.7261 12.0187C17.7261 12.0721 17.7261 12.1798 17.8286 12.1798H17.9312C18.0846 12.1264 18.2897 12.0187 18.4948 11.9648C18.5457 11.9648 18.6483 11.9648 18.6483 12.0725V12.1798C18.4432 12.9866 18.2384 13.7933 17.9821 14.5463C17.7261 15.2992 17.3166 16.0521 17.009 16.7512C16.9581 16.8047 17.009 16.9123 17.0603 16.9123C16.8555 16.8051 16.9068 16.8051 16.9068 16.8051ZM6.3556 10.8355C6.30469 10.8355 6.3556 10.8355 6.3556 10.8355V10.8355ZM3.43635 0.940447C3.5898 0.9939 3.69234 0.9939 3.84616 1.04774C3.69234 0.994282 3.5898 0.940065 3.43635 0.940065V0.940447ZM3.28253 1.15541C1.48981 0.9939 1.84836 2.39247 2.15563 3.19886L2.46326 3.68299L2.51417 3.73645C2.97526 4.86622 3.3338 7.17847 5.48506 8.09291C5.38252 8.03907 5.33124 7.98523 5.22906 7.9314C4.61452 7.39381 4.1018 6.69433 3.74362 5.94178C2.77053 3.89795 3.02653 2.66127 2.92399 2.12368C3.12908 2.17713 3.74362 2.33864 3.89707 2.39209C3.89707 2.33864 2.77053 1.8545 2.41199 1.63954C2.56544 1.53187 2.71926 1.47804 2.87271 1.47804C3.64107 1.37037 3.89707 1.63954 4.40943 1.74683C4.7167 1.80067 5.07525 1.74683 5.38252 1.69338L3.28253 1.15502V1.15541ZM13.4752 10.8355C13.4752 10.8355 13.5261 10.8355 13.4752 10.8355V10.8355ZM15.9846 1.04774C16.0872 0.994282 16.241 0.994282 16.3945 0.940065C16.241 0.940065 16.1385 0.9939 15.9846 1.04774ZM17.3166 3.79066C17.3166 3.79066 17.3166 3.73683 17.3166 3.79066C17.3166 3.73683 17.3675 3.73683 17.3675 3.68299L17.6748 3.19886C18.0334 2.39209 18.3406 0.9939 16.5483 1.15541L14.4483 1.693C14.7556 1.80067 15.1137 1.80067 15.4214 1.74683C15.9337 1.69338 16.1897 1.4242 16.9581 1.47804C17.1115 1.47804 17.3166 1.58571 17.4188 1.63954C17.1115 1.80067 15.9337 2.33826 15.9337 2.39209C16.0872 2.33864 16.7017 2.17713 16.9068 2.1233C16.8043 2.60743 17.0603 3.89795 16.0872 5.9414C15.7286 6.69472 15.2166 7.39381 14.6017 7.9314C14.4996 7.98523 14.4483 8.03907 14.3457 8.09291C16.497 7.2323 16.9068 4.86622 17.3166 3.79066ZM9.94067 10.9427H9.06977C8.7625 10.9427 8.40432 10.8889 8.14796 10.7274C7.9945 10.6201 7.89196 10.4048 7.94323 10.1898C7.94323 9.92101 8.30177 9.70567 8.30177 9.70567C8.30177 10.3509 8.81377 10.5663 9.99194 10.5663C11.1188 10.5663 11.6821 10.4048 11.6821 9.70567C11.6821 9.70567 12.0407 9.92101 12.0407 10.1898C12.0916 10.4048 11.9894 10.6201 11.8356 10.7274C11.5283 10.8351 11.221 10.9427 10.9138 10.9427H9.94067ZM9.94067 18.0414C9.99158 18.902 8.55777 19.0096 7.32832 18.2567C7.27741 17.9875 7.3796 17.5038 7.27741 17.3961C7.07232 17.235 6.71378 17.4496 6.50906 17.6111C6.30397 17.7726 6.15051 18.0414 5.94542 18.2029C6.04797 16.8581 7.32832 15.6214 9.27486 15.5138C9.47958 15.5138 9.68467 15.4603 9.8894 15.5138H10.5039C12.4505 15.6214 13.7821 16.8581 13.8334 18.2029C13.6283 18.0414 13.4748 17.7726 13.2697 17.6111C13.065 17.4499 12.7061 17.2884 12.5014 17.3961C12.3479 17.5038 12.5014 17.9879 12.4505 18.2567C11.3232 19.0096 9.8894 18.902 9.94067 18.0414Z" fill="#D71920"/>
</g>
<defs>
<clipPath id="clip0_111_1200">
<rect width="20" height="20" fill="white"/>
</clipPath>
</defs>
</svg>
