<svg width="20" height="20" viewBox="0 0 20 20" fill="none" xmlns="http://www.w3.org/2000/svg">
<g clip-path="url(#clip0_114_13697)">
<path d="M2.76924 5.80645C4.29864 5.80645 5.53846 4.50663 5.53846 2.90323C5.53846 1.29982 4.29864 0 2.76924 0C1.23983 0 0 1.29982 0 2.90323C0 4.50663 1.23983 5.80645 2.76924 5.80645Z" fill="#69808C"/>
<path d="M20.0001 2.90323C20.0001 4.51613 18.7694 5.80645 17.2309 5.80645C15.6924 5.80645 14.4617 4.51613 14.4617 2.90323C14.4617 1.29032 15.6924 0 17.2309 0C18.7694 0 20.0001 1.29032 20.0001 2.90323Z" fill="#69808C"/>
<path d="M2.76924 20.0001C4.29864 20.0001 5.53846 18.7002 5.53846 17.0968C5.53846 15.4934 4.29864 14.1936 2.76924 14.1936C1.23983 14.1936 0 15.4934 0 17.0968C0 18.7002 1.23983 20.0001 2.76924 20.0001Z" fill="#69808C"/>
<path d="M20.0001 17.0968C20.0001 18.7097 18.7694 20.0001 17.2309 20.0001C15.6924 20.0001 14.4617 18.7097 14.4617 17.0968C14.4617 15.4839 15.6924 14.1936 17.2309 14.1936C18.7694 14.1936 20.0001 15.4839 20.0001 17.0968Z" fill="#69808C"/>
<path d="M12.8205 10C12.8205 11.6129 11.5897 12.9033 10.0513 12.9033C8.5128 12.9033 7.28203 11.6129 7.28203 10C7.28203 8.38712 8.5128 7.0968 10.0513 7.0968C11.5897 7.0968 12.8205 8.38712 12.8205 10Z" fill="#69808C"/>
</g>
<defs>
<clipPath id="clip0_114_13697">
<rect width="20" height="20" fill="white"/>
</clipPath>
</defs>
</svg>
