<svg width="20" height="20" viewBox="0 0 20 20" fill="none" xmlns="http://www.w3.org/2000/svg">
<g clip-path="url(#clip0_111_1142)">
<path d="M16.3649 3.61103C16.3171 3.36033 16.2102 3.12461 16.0532 2.92336C15.8963 2.72211 15.6937 2.5611 15.4622 2.45362C14.9521 2.19936 14.3641 2.14967 13.8186 2.31473C13.3441 2.48834 5.7168 6.56242 5.7168 6.63186C5.7168 6.70131 16.1335 14.3865 16.5038 14.5948C16.6127 14.6746 16.7407 14.7241 16.8749 14.7383C17.009 14.7526 17.1446 14.731 17.2677 14.6758C18.2978 14.3402 18.4251 12.9397 17.4066 12.037C16.9552 11.6087 15.3927 10.3124 15.0918 10.0925C14.7909 9.8726 14.8603 9.90732 16.3649 9.02769C16.9116 8.72148 17.441 8.38532 17.9506 8.02075C18.0779 7.83557 17.7654 7.17584 17.4066 6.86334C17.1897 6.65818 16.9292 6.50476 16.6445 6.41456C16.3599 6.32436 16.0586 6.29973 15.7631 6.34251C15.0808 6.5327 14.4269 6.81295 13.8186 7.17584C13.3079 7.48154 12.7592 7.7189 12.1867 7.88186C11.771 7.6527 11.3827 7.37701 11.0293 7.0601C11.4399 6.78041 11.8692 6.52906 12.314 6.30779C13.0085 5.93742 14.2353 5.25455 15.0339 4.79158C16.1335 4.15501 16.3997 4.00455 16.4344 3.80779C16.4218 3.73893 16.3984 3.67251 16.3649 3.61103Z" fill="url(#paint0_linear_111_1142)"/>
<path d="M6.31872 3.37953C5.91673 3.05516 5.49118 2.76114 5.04557 2.4999C4.47737 2.32225 3.86373 2.35932 3.32104 2.60407C3.09494 2.71589 2.89785 2.8786 2.74523 3.07942C2.5926 3.28023 2.48861 3.5137 2.44141 3.76147C2.44141 4.16657 2.44141 4.17814 3.36733 4.91888H3.4252L4.46687 5.69434L5.74002 4.98832L6.74696 4.4212L7.10576 4.21286C7.25622 4.21286 7.00159 3.92351 6.31872 3.37953Z" fill="url(#paint1_linear_111_1142)"/>
<path d="M11.5853 12.8703C11.4579 12.3726 10.7635 11.8055 6.43479 8.70365C4.11998 7.03698 2.12924 5.65967 2.09452 5.65967C2.04415 6.11739 2.04415 6.57926 2.09452 7.03698C2.06651 7.58362 2.12908 8.13113 2.2797 8.65735C2.5459 9.36337 3.29822 9.89578 5.451 11.4699C6.60841 12.3032 7.53433 13.0092 7.53433 13.0439C7.16601 13.2966 6.77911 13.521 6.37692 13.7152L5.21952 14.3402V12.6157L3.63387 11.5856C3.12722 11.2118 2.60185 10.8642 2.05979 10.5439C1.96944 12.5537 1.99263 14.5669 2.12924 16.574C2.30279 17.049 2.65058 17.4401 3.10199 17.6679C3.55341 17.8958 4.07461 17.9433 4.55979 17.8009C6.83154 16.7565 9.04889 15.5976 11.2033 14.3287C11.3848 14.1375 11.515 13.9036 11.5818 13.6486C11.6486 13.3936 11.6498 13.1259 11.5853 12.8703Z" fill="url(#paint2_linear_111_1142)"/>
<path d="M14.6175 16.9444C14.7401 16.7021 14.7737 16.4245 14.7123 16.1601C14.651 15.8956 14.4986 15.6611 14.2818 15.4976C14.0842 15.3336 13.8401 15.2358 13.584 15.2178C13.3278 15.1999 13.0724 15.2628 12.8539 15.3977C12.6354 15.5326 12.4647 15.7327 12.3659 15.9697C12.2671 16.2067 12.2452 16.4688 12.3032 16.719C12.3613 16.9691 12.4963 17.1948 12.6894 17.3641C12.8825 17.5334 13.1238 17.6379 13.3794 17.6628C13.635 17.6877 13.892 17.6317 14.1141 17.5028C14.3362 17.374 14.5123 17.1786 14.6175 16.9444Z" fill="url(#paint3_linear_111_1142)"/>
<path fill-rule="evenodd" clip-rule="evenodd" d="M20 20V0H0V20H20ZM0.659722 19.3403V0.659722H19.3403V19.3403H0.659722Z" fill="url(#paint4_linear_111_1142)"/>
</g>
<defs>
<linearGradient id="paint0_linear_111_1142" x1="-2.91642" y1="-6.22416" x2="16.821" y2="13.5132" gradientUnits="userSpaceOnUse">
<stop stop-color="#06EDB1"/>
<stop offset="1" stop-color="#66DA44"/>
</linearGradient>
<linearGradient id="paint1_linear_111_1142" x1="6105.9" y1="-2326.14" x2="6276.93" y2="-2569.67" gradientUnits="userSpaceOnUse">
<stop stop-color="#06EDB1"/>
<stop offset="1" stop-color="#66DA44"/>
</linearGradient>
<linearGradient id="paint2_linear_111_1142" x1="12373.5" y1="-8749.32" x2="13027.1" y2="-9264.16" gradientUnits="userSpaceOnUse">
<stop stop-color="#06EDB1"/>
<stop offset="1" stop-color="#66DA44"/>
</linearGradient>
<linearGradient id="paint3_linear_111_1142" x1="3204.56" y1="-1725.49" x2="3339.54" y2="-1861.41" gradientUnits="userSpaceOnUse">
<stop stop-color="#06EDB1"/>
<stop offset="1" stop-color="#66DA44"/>
</linearGradient>
<linearGradient id="paint4_linear_111_1142" x1="25920.2" y1="-14108.4" x2="27020.4" y2="-15208.6" gradientUnits="userSpaceOnUse">
<stop stop-color="#06EDB1"/>
<stop offset="1" stop-color="#66DA44"/>
</linearGradient>
<clipPath id="clip0_111_1142">
<rect width="20" height="20" fill="white"/>
</clipPath>
</defs>
</svg>
