<svg width="18" height="20" viewBox="0 0 18 20" fill="none" xmlns="http://www.w3.org/2000/svg">
<g clip-path="url(#clip0_111_1197)">
<path d="M10.7621 14.7009L10.7926 14.4382L11.0682 14.5112C11.0989 14.5112 13.9172 15.2266 15.3267 14.0296C16.6896 12.8762 17.18 10.1752 15.4337 7.45988C13.7794 4.86155 9.7818 2.17555 9.00046 1.66455C8.21913 2.17555 4.22153 4.86122 2.56723 7.45988C0.82095 10.1752 1.32633 12.8762 2.67425 14.0296C4.08373 15.2262 6.90199 14.5112 6.93276 14.5112L7.20836 14.4379L7.23879 14.7012C7.23879 14.7592 7.37694 16.2922 6.19725 17.5329C5.21726 18.5549 3.65459 19.0662 1.5715 19.0662V19.9856C3.94558 19.9856 5.75307 19.3722 6.91737 18.1462C8.37232 16.6279 8.23452 14.8176 8.21913 14.6132L8.08133 13.2702L6.71802 13.6206C6.10561 13.7666 4.19075 14.0586 3.34822 13.3432C2.27624 12.4382 1.93909 10.2192 3.40977 7.92722C4.72691 5.86888 7.69836 3.69388 9.03124 2.77388C10.3638 3.67922 13.3198 5.85422 14.6527 7.92722C16.123 10.2192 15.7859 12.4382 14.7139 13.3432C13.8714 14.0586 11.9569 13.7812 11.3441 13.6206L9.96541 13.2706L9.843 14.6279C9.82761 14.8322 9.68981 16.6426 11.1448 18.1609C12.3091 19.3726 14.1165 20.0002 16.491 20.0002V19.0802C14.3925 19.0802 12.8456 18.5549 11.8652 17.5476C10.6243 16.2922 10.7621 14.7742 10.7621 14.7009Z" fill="#A1AEBA"/>
<path d="M16.2758 15.051C18.1137 13.489 18.8338 10.1313 16.6587 6.74433C14.6673 3.62067 9.87297 0.555 9.65857 0.423333L9 0L8.34143 0.423333C8.14207 0.554667 3.33271 3.60567 1.34126 6.73C-0.833812 10.1167 -0.113685 13.4743 1.72423 15.0367C2.81194 15.9707 4.32809 16.1313 5.50743 16.073C5.4158 16.263 5.278 16.438 5.10942 16.613C4.42042 17.3283 3.22534 17.6787 1.57104 17.6787V18.5987C3.51633 18.5987 4.95624 18.1313 5.84459 17.2117C6.61053 16.4087 6.76372 15.445 6.77911 14.9927C5.967 15.1533 3.7003 15.4743 2.3828 14.336C0.835876 13.022 0.284326 10.146 2.18345 7.18267C4.06823 4.23333 8.70936 1.28433 8.89298 1.16767L9.03113 1.08L9.16893 1.16767C9.36793 1.299 13.9937 4.23333 15.8778 7.182C17.7769 10.1457 17.2103 13.0217 15.6784 14.3353C14.3613 15.4597 12.0946 15.153 11.2824 14.9923C11.2978 15.445 11.451 16.4083 12.217 17.2113C13.1053 18.1313 14.5298 18.598 16.4905 18.598V17.6783C14.8362 17.6783 13.6415 17.3137 12.9521 16.6127C12.7944 16.4507 12.6605 16.269 12.5541 16.0727C13.6723 16.1457 15.1884 15.985 16.2761 15.0507L16.2758 15.051Z" fill="#A1AEBA"/>
</g>
<defs>
<clipPath id="clip0_111_1197">
<rect width="18" height="20" fill="white"/>
</clipPath>
</defs>
</svg>
