<svg width="14" height="20" viewBox="0 0 14 20" fill="none" xmlns="http://www.w3.org/2000/svg">
<g clip-path="url(#clip0_111_1040)">
<path d="M7.02501 1.44282L13.35 16.7507L10.4625 19.4721H3.58751L0.65 16.7507L7.02501 1.44282ZM7.02501 0L0 16.8915L3.3625 20H10.7L14 16.8915L7.02501 0Z" fill="#FF5858"/>
<path d="M6.56328 12.9619C5.61329 12.3871 2.60078 13.7009 2.60078 13.7009L1.42578 16.5162L2.83828 17.8534C3.17578 17.5367 8.05078 13.8769 6.56328 12.9619Z" fill="#FF5858"/>
<path d="M7.29925 3.44873C7.29925 3.44873 6.54922 5.59538 5.86172 7.50737C4.89922 10.1584 5.19924 10.9091 6.48672 10.5338C8.33672 10.0059 9.67425 9.12615 10.1117 11.0734C10.5742 13.3256 8.36174 15.4839 6.44922 17.091C5.62422 17.7831 4.66172 18.4517 4.07422 18.8505H10.2492L12.7117 16.4927L7.29925 3.44873Z" fill="#FF5858"/>
</g>
<defs>
<clipPath id="clip0_111_1040">
<rect width="14" height="20" fill="white"/>
</clipPath>
</defs>
</svg>
