<svg width="20" height="20" viewBox="0 0 20 20" fill="none" xmlns="http://www.w3.org/2000/svg">
<g clip-path="url(#clip0_111_1050)">
<path d="M0.0946827 12.7772L0.521979 13.027C1.90257 13.8406 3.39555 14.2645 5.02098 14.2617C7.92659 14.2547 10.8322 14.2617 13.7357 14.2617C14.0476 14.2617 14.048 14.2617 14.0485 13.9555C14.0485 13.7025 14.0485 13.4495 14.0485 13.1966C14.0485 12.8875 14.0485 12.8875 13.716 12.8875H11.9056C9.00851 12.8875 6.11144 12.8865 3.21437 12.8846C2.64137 12.8846 2.06794 12.8274 1.56202 12.5348C0.600174 11.9746 0.0254608 11.1515 0.0160603 10.0712C-0.0125685 6.83472 0.00580499 3.59742 0.00580499 0.360524C0.00580499 0.0164627 0.0228968 0 0.390372 0C3.40993 0 6.43063 0 9.45247 0C12.1346 0.00411556 14.4416 0.952754 16.4601 2.61009C17.3624 3.34756 18.1696 4.18653 18.8645 5.10906C19.3397 5.74204 19.6683 6.45732 19.937 7.21747C19.8809 7.19283 19.8261 7.16536 19.773 7.13516C18.662 6.43057 17.4519 5.97086 16.1307 5.80171C15.8018 5.76102 15.4705 5.74095 15.1389 5.74162C12.1724 5.73696 9.20563 5.736 6.23877 5.73874H6.01359V7.11417H16.8067C18.3407 7.11417 19.3298 7.76484 19.867 9.14561C19.9479 9.35379 19.9904 9.57399 19.9926 9.79628C20.0003 13.0926 20.002 16.389 19.9977 19.6856C19.9977 19.9634 19.9648 19.9979 19.6811 19.9979C16.5058 19.9955 13.3306 20.0115 10.1558 19.9811C8.46541 19.9646 6.89339 19.4749 5.4299 18.6666C3.69166 17.706 2.29227 16.3832 1.1172 14.8391C0.652732 14.2287 0.33696 13.5291 0.0489623 12.8225L0.0946827 12.7772Z" fill="url(#paint0_linear_111_1050)"/>
</g>
<defs>
<linearGradient id="paint0_linear_111_1050" x1="-0.000177022" y1="9.99918" x2="19.9981" y2="9.99918" gradientUnits="userSpaceOnUse">
<stop stop-color="#2DBFD6"/>
<stop offset="0.05" stop-color="#34B8D2"/>
<stop offset="0.5" stop-color="#707EB6"/>
<stop offset="0.83" stop-color="#955AA4"/>
<stop offset="1" stop-color="#A34C9D"/>
</linearGradient>
<clipPath id="clip0_111_1050">
<rect width="20" height="20" fill="white"/>
</clipPath>
</defs>
</svg>
