<svg width="18" height="20" viewBox="0 0 18 20" fill="none" xmlns="http://www.w3.org/2000/svg">
<path d="M16.7941 13.6847L17.38 9.40182L14.9299 4.02935L13.2654 4.62531L11.0955 2.18813L7.27388 0L6.42462 3.24661L5.83015 1.54325L2.88322 4.55859L1.23142 7.5606L1.15923 10.6738L0 10.0956L0.789809 15.1212L2.58599 18.3456L6.83227 19.8666L10.3015 20L16.2803 17.7185L18 13.2711L16.7941 13.6847ZM14.2081 11.3053L10.811 11.4032L10.6879 15.4058L10.5053 17.7718L7.5329 17.7407V15.4725L7.29087 11.5099L3.74947 11.67L3.62632 7.83634L8.84501 7.8052L14.2463 7.6451L14.3397 8.15655L14.2081 11.3053Z" fill="#7081FF"/>
</svg>
