<svg width="20" height="20" viewBox="0 0 20 20" fill="none" xmlns="http://www.w3.org/2000/svg">
<g clip-path="url(#clip0_111_1134)">
<path d="M17.077 5.59185C16.7257 5.94042 16.2504 6.13536 15.7555 6.13387C15.2606 6.13238 14.7865 5.93459 14.4374 5.58391C15.5449 6.77323 16.1465 8.34643 16.1152 9.97107C16.0838 11.5957 15.422 13.1445 14.2694 14.2903C13.1168 15.436 11.5639 16.0889 9.93867 16.111C8.31346 16.1331 6.74331 15.5227 5.56 14.4087L5.54015 14.3902C5.50043 14.3518 5.45939 14.3134 5.41703 14.279C5.37014 14.2401 5.32108 14.2039 5.27009 14.1705H5.26083C5.21185 14.1387 5.16286 14.1096 5.11124 14.0818H5.09932C4.83335 13.9443 4.53829 13.8726 4.23886 13.8726C3.93943 13.8726 3.64436 13.9443 3.37839 14.0818L3.32544 14.1136C3.23537 14.164 3.14949 14.2215 3.06862 14.2856C3.01866 14.3272 2.97094 14.3714 2.92566 14.418C2.57457 14.7669 2.3765 15.2409 2.37501 15.7358C2.37352 16.2307 2.56873 16.706 2.91771 17.057C3.84403 17.9871 4.94454 18.7258 6.1564 19.2308C7.36826 19.7357 8.66775 19.9971 9.98065 20C11.2936 20.0029 12.5942 19.7472 13.8082 19.2476C15.0223 18.748 16.1261 18.0141 17.0565 17.0881C17.9869 16.162 18.7257 15.0617 19.2308 13.8502C19.7359 12.6386 19.9974 11.3395 20.0003 10.0269C20.0032 8.71434 19.7474 7.41405 19.2477 6.20029C18.7479 4.98652 18.0139 3.88305 17.0876 2.95288C17.4362 3.30424 17.631 3.77966 17.629 4.27456C17.627 4.76946 17.4284 5.24331 17.077 5.59185Z" fill="url(#paint0_linear_111_1134)"/>
<path d="M2.95184 2.9052C1.07102 4.77279 0.00924551 7.31081 6.00935e-05 9.961C-0.00912532 12.6112 1.03503 15.1565 2.90286 17.0371C2.55715 16.6854 2.36472 16.2112 2.3676 15.7182C2.37049 15.2251 2.56845 14.7532 2.91825 14.4056C3.26804 14.058 3.74124 13.8629 4.23444 13.863C4.72765 13.8631 5.20077 14.0583 5.55044 14.406C4.39085 13.2257 3.74569 11.6344 3.75592 9.97999C3.76615 8.32555 4.43095 6.7424 5.60507 5.57645C6.77918 4.41051 8.36716 3.75654 10.0221 3.75743C11.6769 3.75833 13.2642 4.41402 14.4371 5.58123C14.6083 5.76165 14.8138 5.90603 15.0416 6.0059C15.2694 6.10576 15.5149 6.15911 15.7636 6.16279C16.0123 6.16646 16.2592 6.12041 16.4899 6.02732C16.7206 5.93423 16.9303 5.79599 17.1067 5.62072C17.2832 5.44546 17.4228 5.23669 17.5174 5.00671C17.6121 4.77672 17.6597 4.53015 17.6577 4.28148C17.6556 4.03281 17.6039 3.78705 17.5055 3.55866C17.4071 3.33027 17.264 3.12385 17.0846 2.95152C16.1598 2.02024 15.0604 1.28026 13.8494 0.773836C12.6384 0.267414 11.3395 0.00448123 10.0268 5.67844e-05C8.71412 -0.00436766 7.41344 0.249803 6.19904 0.748049C4.98465 1.2463 3.88034 1.97886 2.94919 2.90388" fill="url(#paint1_linear_111_1134)"/>
</g>
<defs>
<linearGradient id="paint0_linear_111_1134" x1="2.36172" y1="11.4706" x2="19.992" y2="11.4706" gradientUnits="userSpaceOnUse">
<stop stop-color="#C7E3F8"/>
<stop offset="0.28" stop-color="#26B1E7"/>
<stop offset="1" stop-color="#223B86"/>
</linearGradient>
<linearGradient id="paint1_linear_111_1134" x1="2648.66" y1="1096.51" x2="5000.32" y2="1096.51" gradientUnits="userSpaceOnUse">
<stop stop-color="#C7E3F8"/>
<stop offset="0.28" stop-color="#26B1E7"/>
<stop offset="1" stop-color="#223B86"/>
</linearGradient>
<clipPath id="clip0_111_1134">
<rect width="20" height="20" fill="white"/>
</clipPath>
</defs>
</svg>
