<svg width="20" height="12" viewBox="0 0 20 12" fill="none" xmlns="http://www.w3.org/2000/svg">
<g clip-path="url(#clip0_114_13532)">
<path d="M8.90889 11.9992C8.77765 11.9974 8.65173 11.9329 8.55595 11.8185L0.142046 1.08598C0.0950579 1.02652 0.0582115 0.95533 0.0338172 0.876867C0.00942284 0.798403 -0.0019933 0.71436 0.000284596 0.630007C0.000777061 0.545825 0.0145146 0.462625 0.0406835 0.385333C0.0668525 0.308042 0.104921 0.238232 0.152634 0.180038C0.198833 0.121974 0.253606 0.0761684 0.313783 0.0452735C0.37396 0.0143785 0.438346 -0.000992616 0.503213 4.96688e-05H8.91477C9.04652 0.00201042 9.17241 0.0698154 9.26536 0.188883C9.35831 0.307951 9.4109 0.46877 9.41182 0.636757V11.3693C9.41132 11.4535 9.39759 11.5367 9.37142 11.614C9.34525 11.6913 9.30718 11.7611 9.25947 11.8193C9.16474 11.9357 9.03814 12.0006 8.90653 12L8.90889 11.9992Z" fill="#69808C"/>
<path d="M11.0912 11.9992C11.2225 11.9974 11.3484 11.9329 11.4442 11.8185L19.8557 1.08598C19.9032 1.02678 19.9404 0.955703 19.9652 0.877227C19.99 0.798752 20.0018 0.714577 19.9999 0.630007C19.9994 0.545825 19.9856 0.462625 19.9595 0.385333C19.9333 0.308042 19.8952 0.238232 19.8475 0.180038C19.8013 0.121974 19.7465 0.0761684 19.6864 0.0452735C19.6262 0.0143785 19.5618 -0.000992616 19.4969 4.96688e-05H11.0854C10.9536 0.00201042 10.8277 0.0698154 10.7348 0.188883C10.6418 0.307951 10.5892 0.46877 10.5883 0.636757V11.3693C10.5888 11.4535 10.6025 11.5367 10.6287 11.614C10.6549 11.6913 10.693 11.7611 10.7407 11.8193C10.8354 11.9357 10.962 12.0006 11.0936 12L11.0912 11.9992Z" fill="#69808C"/>
</g>
<defs>
<clipPath id="clip0_114_13532">
<rect width="20" height="12" fill="white"/>
</clipPath>
</defs>
</svg>
