<svg width="16" height="16" viewBox="0 0 16 16" fill="none" xmlns="http://www.w3.org/2000/svg">
    <g clip-path="url(#zqidl9ts3a)">
        <path d="M3.985.136C5.635.9 6.246 2.615 7.163 4.013 9.12 6.97 9.18 7 11.411 4.267c.49-.603.948-1.239 1.315-1.938.458-.826 1.039-1.303 1.956-1.112.702.127 1.253.572 1.314 1.334.06.985-.55 1.526-1.406 1.812-1.253.445-2.323 1.27-3.393 2.097-.764.604-.764 1.144.062 1.716a12.846 12.846 0 0 0 3.147 1.589c.826.286 1.498.7 1.437 1.748-.061.985-.611 1.557-1.467 1.78-.978.285-1.742-.191-2.14-1.081-.458-1.08-1.008-2.034-1.803-2.892-.764-.826-1.314-.699-2.017.064-1.253 1.366-2.109 2.955-2.964 4.607-1.253 2.384-3.423 2.67-5.165.731-.367-.508-.398-1.048 0-1.588.825-.89 1.803-1.494 2.903-1.939 1.559-.572 2.812-1.62 4.095-2.67.978-.794.826-1.366-.122-2.033a14.593 14.593 0 0 0-4.126-1.97c-1.008-.286-1.986-.7-2.109-1.97C.806 1.247 1.693.611 2.701.103c.55-.158.948-.127 1.284.032z" fill="#FE8356"/>
    </g>
    <defs>
        <clipPath id="zqidl9ts3a">
            <path fill="#fff" d="M0 0h16v16H0z"/>
        </clipPath>
    </defs>
</svg>
