<?xml version="1.0" encoding="utf-8"?>
<!-- Generator: Adobe Illustrator 27.8.1, SVG Export Plug-In . SVG Version: 6.00 Build 0)  -->
<svg version="1.1" id="Layer_1" xmlns="http://www.w3.org/2000/svg" xmlns:xlink="http://www.w3.org/1999/xlink" x="0px" y="0px"
	 viewBox="0 0 340.2 113.4" style="enable-background:new 0 0 340.2 113.4;" xml:space="preserve">
<style type="text/css">
	.st0{fill:#A6CE39;}
	.st1{fill-rule:evenodd;clip-rule:evenodd;fill:#A6CE39;}
</style>
<g>
	<g>
		<path class="st0" d="M215,66.5V46.9c0-0.3,0.2-0.5,0.5-0.5l3.9,0c0.1,0,0.3,0.1,0.4,0.2l9.4,11.3v-11c0-0.3,0.2-0.5,0.5-0.5h4.5
			c0.3,0,0.5,0.2,0.5,0.5v19.6c0,0.3-0.2,0.5-0.5,0.5l-3.9,0c-0.1,0-0.3-0.1-0.4-0.2l-9.4-11.3v11c0,0.3-0.2,0.5-0.5,0.5h-4.4
			C215.2,67,215,66.7,215,66.5z"/>
	</g>
	<g>
		<path class="st0" d="M238.8,66.5V46.9c0-0.3,0.2-0.5,0.5-0.5h15.1c0.3,0,0.5,0.2,0.5,0.5v3.4c0,0.3-0.2,0.5-0.5,0.5h-10.1v3.8
			l8.8,0c0.3,0,0.5,0.2,0.5,0.5v3.1c0,0.3-0.2,0.5-0.5,0.5l-8.8,0v4.1l10.5,0c0.3,0,0.5,0.2,0.5,0.5l0,3.4c0,0.3-0.2,0.5-0.5,0.5
			h-15.5C239,67,238.8,66.7,238.8,66.5z"/>
	</g>
	<g>
		<path class="st0" d="M263.7,66.5V50.8h-5.9c-0.3,0-0.5-0.2-0.5-0.5v-3.4c0-0.3,0.2-0.5,0.5-0.5h17.4c0.3,0,0.5,0.2,0.5,0.5v3.4
			c0,0.3-0.2,0.5-0.5,0.5l-5.9,0v15.7c0,0.3-0.2,0.5-0.5,0.5h-4.6C263.9,67,263.7,66.7,263.7,66.5z"/>
	</g>
	<g>
		<g>
			<circle class="st1" cx="89.6" cy="56" r="8.3"/>
		</g>
		<path class="st1" d="M102.9,62.5c-0.2,0.1-0.5-0.1-0.3-0.3c4.2-4.9,5.6-10.7,3.1-15c-3.1-5.3-11.1-6.4-18.9-3.6
			c-8.3,3-13.7,9.3-12.6,15.7c2.2,13,28,11.9,37,11.2c0.3,0,0.3,0.4,0.1,0.4c-23.1,5.3-43.5,2.1-46.5-9.5
			c-2.9-11.2,13.8-17.7,21.3-19.7c10.3-2.7,23.5-2.6,26.2,4.9C114.1,51.4,110.1,57.6,102.9,62.5z"/>
	</g>
	<g>
		<path class="st0" d="M119,66.3l8.7-19.6c0.1-0.2,0.3-0.3,0.5-0.3h4.9c0.2,0,0.4,0.1,0.5,0.3l8.7,19.6c0.1,0.3-0.1,0.7-0.5,0.7
			h-4.7c-0.2,0-0.4-0.1-0.5-0.3l-1.5-3.7H126l-1.5,3.7c-0.1,0.2-0.3,0.3-0.5,0.3h-4.6C119.1,67,118.9,66.6,119,66.3z M133.5,58.9
			l-3-7.4l-3,7.4H133.5z"/>
	</g>
	<g>
		<path class="st0" d="M144.4,66.5V46.9c0-0.3,0.2-0.5,0.5-0.5l3.8,0c0.2,0,0.3,0.1,0.4,0.2l7.2,12l7.2-12c0.1-0.1,0.2-0.2,0.4-0.2
			l3.8,0c0.3,0,0.5,0.2,0.5,0.5v19.6c0,0.3-0.2,0.5-0.5,0.5l-4.1,0c-0.3,0-0.5-0.2-0.5-0.5V55.4l-5.5,9.3c-0.1,0.1-0.2,0.2-0.4,0.2
			h-1.9c-0.2,0-0.3-0.1-0.4-0.2l-5.5-9v10.8c0,0.3-0.2,0.5-0.5,0.5l-4.1,0C144.6,67,144.4,66.7,144.4,66.5z"/>
	</g>
	<g>
		<path class="st0" d="M182.2,67.4c-3,0-5.4-0.8-7.1-2.5c-1.7-1.7-2.5-4-2.5-7.1V46.9c0-0.3,0.2-0.5,0.5-0.5l4.6,0
			c0.3,0,0.5,0.2,0.5,0.5v10.7c0,3.5,1.3,5.2,4.1,5.2c2.8,0,4.2-1.8,4.2-5.2V46.9c0-0.3,0.2-0.5,0.5-0.5h4.5c0.3,0,0.5,0.2,0.5,0.5
			v10.9c0,3-0.9,5.4-2.5,7.1C187.6,66.5,185.2,67.4,182.2,67.4z"/>
	</g>
	<g>
		<path class="st0" d="M203.1,67.4c-1.7,0-3.3-0.2-4.9-0.6c-1.3-0.3-2.5-0.8-3.4-1.3c-0.2-0.1-0.3-0.4-0.2-0.6l1.4-3.2
			c0-0.1,0.1-0.2,0.3-0.2c0.2-0.1,0.3,0,0.4,0c0.8,0.5,1.7,0.8,2.7,1.1c1.2,0.4,2.5,0.6,3.7,0.6c2.4,0,3.6-0.6,3.6-1.9
			c0-0.5-0.2-1.1-1.1-1.5c-0.7-0.3-1.7-0.6-3.2-0.9c-1.6-0.3-2.9-0.7-3.9-1.1c-1-0.4-1.9-1-2.6-1.8c-0.7-0.8-1.1-1.9-1.1-3.3
			c0-1.2,0.3-2.4,1-3.3c0.7-1,1.7-1.8,3-2.4c1.4-0.6,3-0.9,5-0.9c1.4,0,2.7,0.2,4,0.5c1.1,0.3,2.1,0.6,3,1.1
			c0.2,0.1,0.3,0.4,0.2,0.6l-1.3,3.2c0,0.1-0.1,0.2-0.3,0.3c-0.2,0-0.3,0-0.3,0c-1.8-0.9-3.5-1.3-5.3-1.3c-1.2,0-2.1,0.2-2.7,0.6
			c-0.6,0.4-0.9,0.9-0.9,1.5c0,0.4,0.2,1,1.1,1.4c0.6,0.3,1.7,0.6,3.1,0.9c1.6,0.3,2.9,0.7,3.9,1.1c1,0.4,1.9,1,2.6,1.8
			c0.7,0.8,1.1,1.9,1.1,3.3c0,1.2-0.3,2.3-1,3.3c-0.7,1-1.7,1.8-3.1,2.4C206.8,67.1,205.1,67.4,203.1,67.4z"/>
	</g>
</g>
</svg>
