<svg width="40" height="40" viewBox="0 0 40 40" fill="none" xmlns="http://www.w3.org/2000/svg">
<circle cx="20" cy="20" r="19.5" fill="url(#paint0_linear_2_1088)" stroke="#DCE2E5"/>
<g clip-path="url(#clip0_2_1088)">
<path d="M29.414 19.419H29.3452V17.2878C29.3452 16.9642 29.0828 16.7019 28.7592 16.7019C28.4356 16.7019 28.1732 16.9642 28.1732 17.2878V19.419H27.3959V18.6764C27.3959 18.1733 26.9866 17.7639 26.4834 17.7639H25.9014V22.246H26.4835C26.9867 22.246 27.396 21.8367 27.396 21.3335V20.5909H28.1733V22.7221C28.1733 23.0457 28.4356 23.308 28.7592 23.308C29.0828 23.308 29.3452 23.0457 29.3452 22.7221V20.5909H29.414C29.7376 20.5909 30 20.3286 30 20.0049C30 19.6814 29.7376 19.419 29.414 19.419Z" fill="#69808C"/>
<path d="M23.2444 10H21.0054C20.2622 10 19.6575 10.6047 19.6575 11.3479V12.7826H24.5923V11.3479C24.5923 10.6047 23.9876 10 23.2444 10Z" fill="#F0B905"/>
<path d="M24.5922 13.9543H19.6574V26.0553H24.5922V13.9543Z" fill="#69808C"/>
<path d="M19.6575 27.2272V28.6555C19.6575 29.3988 20.2622 30.0035 21.0054 30.0035H23.2444C23.9876 30.0035 24.5923 29.3988 24.5923 28.6555V27.2272H19.6575Z" fill="#F0B905"/>
<path d="M14.496 17.7639L13.9369 16.5804C13.82 16.3327 13.5674 16.1727 13.2935 16.1727H10.7121C10.467 16.1727 10.2423 16.2963 10.111 16.5034C9.97981 16.7105 9.96391 16.9665 10.0686 17.1882L11.3689 19.9411L10.0687 22.694C9.96391 22.9157 9.97981 23.1717 10.111 23.3788C10.2423 23.5858 10.467 23.7095 10.7122 23.7095H13.2936C13.5675 23.7095 13.8201 23.5494 13.937 23.3018L14.4357 22.246H18.4246V17.7639H14.496Z" fill="#69808C"/>
</g>
<defs>
<linearGradient id="paint0_linear_2_1088" x1="20" y1="0" x2="20" y2="40" gradientUnits="userSpaceOnUse">
<stop stop-color="white"/>
<stop offset="1" stop-color="#F3F5F6"/>
</linearGradient>
<clipPath id="clip0_2_1088">
<rect width="20" height="20.0035" fill="white" transform="translate(10 10)"/>
</clipPath>
</defs>
</svg>
