<svg width="40" height="40" viewBox="0 0 40 40" fill="none" xmlns="http://www.w3.org/2000/svg">
<circle cx="20" cy="20" r="19.5" fill="url(#paint0_linear_37_174)" stroke="#DCE2E5"/>
<path d="M25.1582 11.6667H14.8418C14.6226 11.6667 14.5147 11.925 14.6724 12.0726L19.8304 16.898C19.9249 16.9864 20.0747 16.9864 20.1692 16.898L25.3276 12.0726C25.4853 11.9251 25.3774 11.6667 25.1582 11.6667Z" fill="#69808C"/>
<path d="M17.756 16.927L13.2182 12.6819C13.1074 12.5782 12.9264 12.5988 12.8434 12.7244L10.0388 16.9695C9.935 17.1266 10.0516 17.3328 10.2443 17.3328H17.5865C17.8057 17.3328 17.9136 17.0745 17.756 16.927Z" fill="#F0B905"/>
<path d="M29.9612 16.9695L27.1566 12.7244C27.0736 12.5988 26.8926 12.5782 26.7818 12.6818L22.2437 16.9269C22.0861 17.0745 22.1939 17.3329 22.4131 17.3329H29.7557C29.9484 17.3328 30.065 17.1267 29.9612 16.9695Z" fill="#F0B905"/>
<path d="M19.0245 18.7496H10.4297C10.2178 18.7496 10.1067 18.9934 10.2497 19.1449L18.8445 28.2555C18.9946 28.4146 19.2684 28.3118 19.2684 28.0963V18.9857C19.2683 18.8553 19.1592 18.7496 19.0245 18.7496Z" fill="#69808C"/>
<path d="M29.5703 18.7496H20.9752C20.8405 18.7496 20.7314 18.8553 20.7314 18.9857V28.0966C20.7314 28.3122 21.0051 28.415 21.1553 28.2559L29.7504 19.1449C29.8933 18.9933 29.7823 18.7496 29.5703 18.7496Z" fill="#69808C"/>
<defs>
<linearGradient id="paint0_linear_37_174" x1="20" y1="0" x2="20" y2="40" gradientUnits="userSpaceOnUse">
<stop stop-color="white"/>
<stop offset="1" stop-color="#F3F5F6"/>
</linearGradient>
</defs>
</svg>
