<svg width="40" height="40" viewBox="0 0 40 40" fill="none" xmlns="http://www.w3.org/2000/svg">
<circle cx="20" cy="20" r="19.5" fill="url(#paint0_linear_1_266)" stroke="#DCE2E5"/>
<path d="M18.1131 28.6217L18.6938 25.7566C18.7629 25.4157 18.7974 25.2451 18.7038 25.1324C18.6101 25.0196 18.4339 25.0196 18.0815 25.0196H16.1995C15.7106 25.0196 15.4661 25.0196 15.3765 24.8634C15.2868 24.707 15.4126 24.5002 15.6641 24.0865L18.2758 19.7913C18.5273 19.3776 18.6531 19.1709 18.5634 19.0145C18.4738 18.8582 18.2292 18.8582 17.7403 18.8582H14.7489C14.3396 18.8582 14.1349 18.8582 14.0418 18.7256C13.9487 18.593 14.0206 18.4039 14.1643 18.0257L17.4424 9.3998C17.5159 9.20641 17.5526 9.10972 17.6329 9.05486C17.7131 9 17.8178 9 18.0271 9H23.9844C24.4733 9 24.7178 9 24.8075 9.15629C24.8971 9.31257 24.7714 9.51943 24.5199 9.93314L21.9081 14.2282C21.6566 14.642 21.5308 14.8488 21.6205 15.0051C21.7102 15.1614 21.9547 15.1614 22.4436 15.1614H23.8384C24.3832 15.1614 24.6557 15.1614 24.742 15.3317C24.8283 15.502 24.6649 15.7171 24.3379 16.1472L22.0901 19.1047C21.7631 19.5349 21.5996 19.7499 21.6859 19.9202C21.7722 20.0905 22.0447 20.0905 22.5896 20.0905H25.0594C25.6148 20.0905 25.8926 20.0905 25.9781 20.2633C26.0638 20.4359 25.8932 20.6523 25.5523 21.085L19.2182 29.1208C18.5758 29.9358 18.2546 30.3433 18.0299 30.2419C17.8053 30.1405 17.9079 29.6341 18.1131 28.6217Z" fill="#69808C"/>
<path d="M21.0565 28.1537L21.3469 26.6711C21.3814 26.4947 21.3987 26.4064 21.3519 26.3481C21.3051 26.2897 21.217 26.2897 21.0407 26.2897H20.0998C19.8553 26.2897 19.7331 26.2897 19.6882 26.2089C19.6434 26.1279 19.7063 26.0209 19.8321 25.8069L21.1379 23.5842C21.2637 23.3701 21.3265 23.2631 21.2817 23.1822C21.2369 23.1014 21.1146 23.1014 20.8702 23.1014H19.3745C19.1698 23.1014 19.0675 23.1014 19.0209 23.0328C18.9743 22.9641 19.0103 22.8663 19.0821 22.6706L20.7212 18.2069C20.758 18.1068 20.7763 18.0568 20.8165 18.0284C20.8566 18 20.9089 18 21.0135 18H23.9922C24.2366 18 24.3589 18 24.4037 18.0809C24.4486 18.1617 24.3857 18.2688 24.2599 18.4829L22.9541 20.7055C22.8283 20.9196 22.7654 21.0266 22.8103 21.1075C22.8551 21.1884 22.9773 21.1884 23.2218 21.1884H23.9192C24.1916 21.1884 24.3279 21.1884 24.371 21.2765C24.4142 21.3646 24.3324 21.4759 24.169 21.6985L23.045 23.2289C22.8816 23.4515 22.7998 23.5628 22.843 23.6509C22.8861 23.739 23.0224 23.739 23.2948 23.739H24.5297C24.8074 23.739 24.9463 23.739 24.9891 23.8284C25.0319 23.9178 24.9466 24.0298 24.7761 24.2536L21.6091 28.412C21.2879 28.8337 21.1273 29.0446 21.015 28.9921C20.9026 28.9396 20.954 28.6776 21.0565 28.1537Z" fill="#F0B905"/>
<defs>
<linearGradient id="paint0_linear_1_266" x1="20" y1="0" x2="20" y2="40" gradientUnits="userSpaceOnUse">
<stop stop-color="white"/>
<stop offset="1" stop-color="#F3F5F6"/>
</linearGradient>
</defs>
</svg>
