<svg width="40" height="40" viewBox="0 0 40 40" fill="none" xmlns="http://www.w3.org/2000/svg">
<circle cx="20" cy="20" r="19.5" fill="url(#paint0_linear_2_1078)" stroke="#DCE2E5"/>
<g clip-path="url(#clip0_2_1078)">
<path d="M14.8149 10.0001C14.5826 9.99703 14.3492 10.081 14.1695 10.2532C13.8026 10.6047 13.8018 11.1854 14.1678 11.538L15.5384 12.8902L16.7306 14.0665L17.4301 14.7566H14.2139C12.8849 14.7566 11.7944 15.6404 11.0937 16.8121C10.3929 17.9838 10 19.5058 10 21.1789V23.5786C10 25.2516 10.3929 26.7727 11.0937 27.9445C11.7944 29.1162 12.8849 30 14.2139 30H25.7825C27.1116 30 28.2056 29.1162 28.9063 27.9445C29.6071 26.7727 30 25.2516 30 23.5786V21.1789C30 19.5058 29.6071 17.9838 28.9063 16.8121C28.2056 15.6404 27.1116 14.7566 25.7825 14.7566H22.5699L23.2694 14.0665L24.4616 12.8902L25.8322 11.538C26.1981 11.1854 26.1974 10.6047 25.8305 10.2532C25.6508 10.081 25.4174 9.99705 25.1851 10.0001C24.9529 10.0031 24.7219 10.093 24.5469 10.2698L23.1763 11.6221L21.9841 12.7983L20.0001 14.7566L18.016 12.7983L16.8238 11.6221L15.4532 10.2698C15.2782 10.093 15.0471 10.0031 14.8149 10.0001ZM14.2139 16.5476H25.7825C26.2846 16.5476 26.8453 16.8966 27.3395 17.7229C27.8337 18.5493 28.181 19.7898 28.181 21.1789V23.5786C28.181 24.9676 27.8337 26.2082 27.3395 27.0345C26.8453 27.8609 26.2846 28.209 25.7825 28.209H14.2139C13.7117 28.209 13.151 27.8609 12.6568 27.0345C12.1626 26.2082 11.8188 24.9676 11.8188 23.5786V21.1789C11.8188 19.7898 12.1626 18.5493 12.6568 17.7229C13.151 16.8966 13.7117 16.5476 14.2139 16.5476Z" fill="#69808C"/>
<path d="M18.071 20.3276C17.371 20.3277 16.6706 20.5886 16.142 21.1105L15.5002 21.7446C15.1417 22.09 15.1343 22.6564 15.4833 23.011C15.8395 23.3729 16.4282 23.3733 16.7856 23.0127L17.4274 22.3787C17.79 22.0206 18.3509 22.0208 18.7137 22.3787L19.3564 23.0127L19.9991 23.6468C21.0568 24.6902 22.7998 24.6898 23.857 23.6459L24.4989 23.0127C24.8647 22.6601 24.864 22.0795 24.497 21.7279C24.1375 21.3836 23.5635 21.391 23.2134 21.7445L22.5707 22.3777C22.2081 22.7358 21.6472 22.7365 21.2844 22.3786L20.6417 21.7445L19.999 21.1096C19.4701 20.5879 18.7709 20.3275 18.071 20.3276Z" fill="#F0B905"/>
</g>
<defs>
<linearGradient id="paint0_linear_2_1078" x1="20" y1="0" x2="20" y2="40" gradientUnits="userSpaceOnUse">
<stop stop-color="white"/>
<stop offset="1" stop-color="#F3F5F6"/>
</linearGradient>
<clipPath id="clip0_2_1078">
<rect width="20" height="20" fill="white" transform="translate(10 10)"/>
</clipPath>
</defs>
</svg>
