<svg width="40" height="40" viewBox="0 0 40 40" fill="none" xmlns="http://www.w3.org/2000/svg">
<circle cx="20" cy="20" r="19.5" fill="url(#paint0_linear_2_1098)" stroke="#DCE2E5"/>
<g clip-path="url(#clip0_2_1098)">
<path d="M22.9589 19.076L22.5237 18.6424L20.3867 16.5119C20.1724 16.2978 19.8252 16.2978 19.6109 16.5119L17.4792 18.6371L17.0415 19.0736C16.3474 19.7711 16.3502 20.8993 17.0477 21.5934C17.6367 22.1794 18.5525 22.2807 19.2553 21.8373L19.0131 23.1439C18.9701 23.3751 19.1226 23.5975 19.3538 23.6405C19.3796 23.6453 19.4058 23.6477 19.432 23.6477H20.5679C20.8031 23.6478 20.9939 23.4573 20.994 23.2221C20.994 23.1959 20.9916 23.1697 20.9868 23.1439L20.7418 21.83C21.4465 22.2765 22.3664 22.1756 22.9577 21.5871C23.6514 20.8968 23.6542 19.7748 22.9639 19.0811C22.9623 19.0794 22.9606 19.0777 22.9589 19.076V19.076Z" fill="#F0B905"/>
<path d="M12.8593 19.755C12.9173 18.0301 13.6 16.385 14.7803 15.1258L14.7766 15.1225L12.7556 13.1014C11.0399 14.8984 10.0572 17.2713 10 19.755H12.8581H12.8593Z" fill="#69808C"/>
<path d="M15.1262 14.7803C16.3853 13.6001 18.0302 12.9174 19.755 12.8593C19.7548 12.8578 19.7548 12.8563 19.755 12.8548V10C17.2715 10.0572 14.899 11.0398 13.1022 12.7552L15.1229 14.7766L15.1262 14.7803Z" fill="#69808C"/>
<path d="M24.8742 25.2192C23.6151 26.3997 21.97 27.0826 20.245 27.1407C20.2452 27.1422 20.2452 27.1437 20.245 27.1452V30C22.7294 29.9434 25.103 28.9606 26.9002 27.2444L24.8791 25.2229L24.8742 25.2192Z" fill="#69808C"/>
<path d="M19.755 27.1407C18.0299 27.0826 16.3846 26.3998 15.1253 25.2192L15.1225 25.2229L13.1014 27.2444C14.8987 28.9606 17.2723 29.9434 19.7567 30V27.1452C19.7559 27.1438 19.7553 27.1423 19.755 27.1407V27.1407Z" fill="#69808C"/>
<path d="M14.7803 24.8738C13.6001 23.6147 12.9174 21.9698 12.8593 20.245H10.0012C10.0575 22.7292 11.0398 25.1028 12.7556 26.9002L14.7766 24.8787C14.7775 24.8768 14.7787 24.8752 14.7803 24.8738V24.8738Z" fill="#69808C"/>
<path d="M27.1407 20.245C27.0827 21.9699 26.4 23.615 25.2197 24.8742C25.2211 24.875 25.2223 24.8759 25.2234 24.8771L27.2444 26.9002C28.9606 25.103 29.9434 22.7294 30 20.245H27.1419H27.1407Z" fill="#69808C"/>
<path d="M25.2197 15.1262C26.3999 16.3853 27.0826 18.0302 27.1407 19.755H29.9988C29.9418 17.2715 28.9595 14.8988 27.2444 13.1018L25.2234 15.1229L25.2197 15.1262Z" fill="#69808C"/>
<path d="M20.245 12.8593C21.9699 12.9173 23.615 13.6 24.8742 14.7803L24.8775 14.7766L26.8982 12.7552C25.1013 11.0397 22.7286 10.0571 20.245 10V12.8548C20.2452 12.8563 20.2452 12.8578 20.245 12.8593V12.8593Z" fill="#69808C"/>
</g>
<defs>
<linearGradient id="paint0_linear_2_1098" x1="20" y1="0" x2="20" y2="40" gradientUnits="userSpaceOnUse">
<stop stop-color="white"/>
<stop offset="1" stop-color="#F3F5F6"/>
</linearGradient>
<clipPath id="clip0_2_1098">
<rect width="20" height="20" fill="white" transform="translate(10 10)"/>
</clipPath>
</defs>
</svg>
