<svg width="40" height="40" viewBox="0 0 40 40" fill="none" xmlns="http://www.w3.org/2000/svg">
<circle cx="20" cy="20" r="19.5" fill="url(#paint0_linear_37_144)" stroke="#DCE2E5"/>
<path d="M20.3292 16.8659C20.7504 16.4428 21.2778 16.1412 21.8561 15.9927V11.6702C21.8561 11.2272 21.6801 10.8024 21.3669 10.4892C21.0537 10.176 20.6289 10 20.1859 10H12.6702C12.2272 10 11.8024 10.176 11.4892 10.4892C11.176 10.8024 11 11.2272 11 11.6702V19.1859C11 19.6289 11.176 20.0537 11.4892 20.3669C11.8024 20.6801 12.2272 20.8561 12.6702 20.8561H16.3391L20.3292 16.8659ZM18.5157 12.5052C18.6809 12.5052 18.8424 12.5542 18.9797 12.646C19.117 12.7377 19.224 12.8682 19.2872 13.0208C19.3505 13.1733 19.367 13.3413 19.3348 13.5032C19.3025 13.6652 19.223 13.814 19.1062 13.9308C18.9894 14.0476 18.8406 14.1271 18.6787 14.1594C18.5167 14.1916 18.3488 14.175 18.1962 14.1118C18.0436 14.0486 17.9131 13.9416 17.8214 13.8043C17.7296 13.6669 17.6807 13.5055 17.6807 13.3403C17.6807 13.1188 17.7686 12.9064 17.9252 12.7498C18.0819 12.5932 18.2943 12.5052 18.5157 12.5052V12.5052ZM18.5157 15.8456C18.6809 15.8456 18.8424 15.8945 18.9797 15.9863C19.117 16.0781 19.224 16.2085 19.2872 16.3611C19.3505 16.5137 19.367 16.6816 19.3348 16.8436C19.3025 17.0056 19.223 17.1544 19.1062 17.2711C18.9894 17.3879 18.8406 17.4675 18.6787 17.4997C18.5167 17.5319 18.3488 17.5154 18.1962 17.4522C18.0436 17.389 17.9131 17.2819 17.8214 17.1446C17.7296 17.0073 17.6807 16.8458 17.6807 16.6807C17.6807 16.4592 17.7686 16.2468 17.9252 16.0902C18.0819 15.9336 18.2943 15.8456 18.5157 15.8456V15.8456ZM14.3403 12.5052C14.5055 12.5052 14.6669 12.5542 14.8043 12.646C14.9416 12.7377 15.0486 12.8682 15.1118 13.0208C15.175 13.1733 15.1916 13.3413 15.1594 13.5032C15.1271 13.6652 15.0476 13.814 14.9308 13.9308C14.814 14.0476 14.6652 14.1271 14.5032 14.1594C14.3413 14.1916 14.1733 14.175 14.0208 14.1118C13.8682 14.0486 13.7377 13.9416 13.646 13.8043C13.5542 13.6669 13.5052 13.5055 13.5052 13.3403C13.5052 13.1188 13.5932 12.9064 13.7498 12.7498C13.9064 12.5932 14.1188 12.5052 14.3403 12.5052ZM14.3403 18.3508C14.1752 18.3508 14.0137 18.3018 13.8764 18.2101C13.7391 18.1183 13.632 17.9879 13.5688 17.8353C13.5056 17.6827 13.4891 17.5148 13.5213 17.3528C13.5535 17.1908 13.633 17.042 13.7498 16.9252C13.8666 16.8085 14.0154 16.7289 14.1774 16.6967C14.3394 16.6645 14.5073 16.681 14.6599 16.7442C14.8125 16.8074 14.9429 16.9145 15.0347 17.0518C15.1264 17.1891 15.1754 17.3506 15.1754 17.5157C15.1754 17.7372 15.0874 17.9496 14.9308 18.1062C14.7742 18.2628 14.5618 18.3508 14.3403 18.3508Z" fill="#F0B905"/>
<path d="M28.596 21.5899L24.3229 17.3167C24.1816 17.1749 24.0159 17.0597 23.8338 16.9767C22.7763 16.4972 21.658 16.7179 20.9197 17.4568L16.6465 21.7295C16.5047 21.8708 16.3896 22.0365 16.3065 22.2186C15.8271 23.2761 16.0478 24.3944 16.7867 25.1327L21.0598 29.4059C21.2011 29.5477 21.3668 29.6628 21.5489 29.7459C22.6064 30.2253 23.7247 30.0047 24.463 29.2657L28.7362 24.9926C28.8779 24.8513 28.9931 24.6857 29.0762 24.5036C29.5552 23.4465 29.3345 22.3279 28.596 21.5899V21.5899ZM22.6911 24.1964C22.526 24.1964 22.3645 24.1474 22.2272 24.0556C22.0899 23.9639 21.9828 23.8335 21.9196 23.6809C21.8564 23.5283 21.8399 23.3604 21.8721 23.1984C21.9043 23.0364 21.9839 22.8876 22.1006 22.7708C22.2174 22.654 22.3662 22.5745 22.5282 22.5423C22.6902 22.51 22.8581 22.5266 23.0107 22.5898C23.1633 22.653 23.2937 22.76 23.3855 22.8973C23.4772 23.0347 23.5262 23.1961 23.5262 23.3613C23.5262 23.5828 23.4382 23.7952 23.2816 23.9518C23.125 24.1084 22.9126 24.1964 22.6911 24.1964V24.1964Z" fill="#69808C"/>
<defs>
<linearGradient id="paint0_linear_37_144" x1="20" y1="0" x2="20" y2="40" gradientUnits="userSpaceOnUse">
<stop stop-color="white"/>
<stop offset="1" stop-color="#F3F5F6"/>
</linearGradient>
</defs>
</svg>
