<svg width="40" height="40" viewBox="0 0 40 40" fill="none" xmlns="http://www.w3.org/2000/svg">
<circle cx="20" cy="20" r="19.5" fill="url(#paint0_linear_37_338)" stroke="#DCE2E5"/>
<g clip-path="url(#clip0_37_338)">
<path d="M28.711 11.3538L21.1693 10.024C20.321 9.87438 19.5121 10.4408 19.3626 11.289L19.2912 11.6938C20.3819 11.8282 21.3033 12.6139 21.5934 13.6965L22.0543 15.4167C22.2983 15.3108 22.575 15.2727 22.8566 15.3224C23.3908 15.4166 23.8007 15.8011 23.9534 16.2849C24.2624 15.8825 24.7791 15.6613 25.3133 15.7556C26.078 15.8904 26.5885 16.6196 26.4537 17.3842C26.1607 19.0457 24.3778 20.3811 23.5317 20.9304L24.8235 25.7516C24.8928 26.0101 24.9216 26.2698 24.9153 26.5247L26.0021 26.7163C26.8504 26.8659 27.6593 26.2995 27.8089 25.4512L29.976 13.1606C30.1257 12.3122 29.5592 11.5033 28.711 11.3538V11.3538Z" fill="#F0B905"/>
<path d="M20.4636 13.9993C20.2769 13.3025 19.6467 12.8429 18.9581 12.843C18.8245 12.843 18.6886 12.8603 18.5535 12.8965L11.1563 14.8785C10.3243 15.1015 9.8306 15.9567 10.0535 16.7887L13.2836 28.8437C13.4704 29.5405 14.1005 30 14.7891 30C14.9227 30 15.0586 29.9827 15.1937 29.9465L22.5908 27.9644C23.4228 27.7415 23.9166 26.8863 23.6937 26.0543L20.4636 13.9993ZM14.7074 22.2396C14.582 22.1292 14.5352 21.9544 14.5886 21.7961L15.7197 18.447C15.8143 18.1668 16.1636 18.0732 16.3856 18.2685L19.0398 20.6035C19.1652 20.7138 19.212 20.8887 19.1586 21.0469L18.0275 24.3961C17.9329 24.6762 17.5836 24.7699 17.3616 24.5745L14.7074 22.2396Z" fill="#69808C"/>
</g>
<defs>
<linearGradient id="paint0_linear_37_338" x1="20" y1="0" x2="20" y2="40" gradientUnits="userSpaceOnUse">
<stop stop-color="white"/>
<stop offset="1" stop-color="#F3F5F6"/>
</linearGradient>
<clipPath id="clip0_37_338">
<rect width="20" height="20" fill="white" transform="translate(10 10)"/>
</clipPath>
</defs>
</svg>
