<svg width="40" height="40" viewBox="0 0 40 40" fill="none" xmlns="http://www.w3.org/2000/svg">
<circle cx="20" cy="20" r="19.5" fill="url(#paint0_linear_2_1077)" stroke="#DCE2E5"/>
<path d="M19.5898 11.0503C18.6562 11.2768 18.0625 12.2026 18.2578 13.1284C18.2891 13.2808 18.3633 13.4995 18.418 13.6167C18.5547 13.8784 18.9102 14.2378 19.1719 14.3706L19.375 14.4722V15.0893V15.7065L18.5469 15.7534C15.5156 15.9253 12.9961 16.5893 11.4297 17.6245C11.0586 17.8706 10.5508 18.3628 10.3516 18.6714C10.0977 19.0581 10 19.3823 10 19.8276C10 20.5034 10.2422 21.0112 10.8438 21.5815C11.2422 21.9604 11.6406 22.2261 12.3242 22.5581C13.6523 23.2065 15.3398 23.6284 17.5977 23.8745C18.3945 23.9604 21.418 23.9722 22.1875 23.894C24.582 23.6479 26.2891 23.2339 27.6758 22.5581C28.3477 22.2339 28.7539 21.9643 29.1562 21.5815C29.7578 21.0112 30 20.5034 30 19.8276C29.9961 19.1753 29.7578 18.6831 29.168 18.1167C27.7852 16.7925 24.8164 15.9018 21.2227 15.7378L20.625 15.7104V15.0933V14.4722L20.8281 14.3706C21.0898 14.2378 21.4453 13.8784 21.582 13.6167C21.6367 13.4995 21.7109 13.2808 21.7422 13.1284C22.0078 11.8745 20.8359 10.7456 19.5898 11.0503ZM20.5859 16.4839C20.5859 17.3315 20.4844 17.23 21.3672 17.2612C23.6367 17.3472 25.8047 17.8745 26.8203 18.5972C27.3203 18.9487 27.5859 19.3511 27.6094 19.7847C27.6758 20.9761 25.8867 21.9253 22.8711 22.3003C21.5703 22.4643 19.3867 22.5112 18.1641 22.4097C15.0312 22.1401 13.0195 21.4097 12.5 20.3511C12.3633 20.0776 12.3633 19.6128 12.4922 19.3472C12.9141 18.4956 14.3047 17.8433 16.4648 17.4839C17.1133 17.3745 17.9961 17.2847 18.6719 17.2612C19.5117 17.23 19.4141 17.3315 19.4141 16.4839V15.7612H20H20.5859V16.4839Z" fill="#69808C"/>
<path d="M18.4766 18.4019C18.4023 18.4097 18.125 18.437 17.8633 18.4566C16.6133 18.5659 15.3047 18.8394 14.4922 19.1636C13.9141 19.3941 13.5156 19.6714 13.5156 19.8433C13.5156 20.0581 14.0898 20.398 14.8867 20.6597C17.2773 21.4448 21.3008 21.5542 24.1914 20.9136C25.4297 20.6401 26.4844 20.148 26.4844 19.8394C26.4844 19.5503 25.4805 19.0737 24.2852 18.7925C23.3477 18.5698 21.7656 18.3784 20.8945 18.3784H20.5938L20.5781 19.0308C20.5664 19.605 20.5547 19.7026 20.4883 19.8237C20.2656 20.1987 19.7344 20.1987 19.5117 19.8237C19.4453 19.7026 19.4336 19.605 19.4219 19.0308L19.4062 18.3784L19.0117 18.3862C18.793 18.3862 18.5508 18.398 18.4766 18.4019Z" fill="#F0B905"/>
<path d="M10 23.144C10.0039 24.2729 10.0078 24.3472 10.0898 24.5933C10.4805 25.7339 11.8867 26.7065 14.0664 27.3394C17.5312 28.3433 22.4531 28.3472 25.9141 27.3433C27.4141 26.9097 28.5508 26.3237 29.2383 25.6245C29.5859 25.269 29.7812 24.9722 29.9102 24.5933C29.9922 24.3472 29.9961 24.2729 30 23.144V21.9487L29.7734 22.1597C27.9844 23.8394 24.3867 24.8198 20.0156 24.8237C15.6328 24.8237 12.0195 23.8433 10.2266 22.1597L10 21.9487V23.144Z" fill="#69808C"/>
<defs>
<linearGradient id="paint0_linear_2_1077" x1="20" y1="0" x2="20" y2="40" gradientUnits="userSpaceOnUse">
<stop stop-color="white"/>
<stop offset="1" stop-color="#F3F5F6"/>
</linearGradient>
</defs>
</svg>
