<svg width="40" height="40" viewBox="0 0 40 40" fill="none" xmlns="http://www.w3.org/2000/svg">
<circle cx="20" cy="20" r="19.5" fill="url(#paint0_linear_1_271)" stroke="#DCE2E5"/>
<path d="M24.5292 13.9417C25.1383 13.3204 25.5384 12.5797 25.5384 11.7576C25.5384 11.4337 25.2632 11.1716 24.9231 11.1716C24.2657 11.1716 23.5512 11.316 22.8604 11.5631C22.9859 11.9688 23.0769 12.4132 23.0769 12.9294C23.0769 13.1925 23.0455 13.4312 23.0091 13.6651C23.5086 13.7268 24.0197 13.8166 24.5292 13.9417V13.9417Z" fill="#F0B905"/>
<path d="M15.0769 11.1716C14.7368 11.1716 14.4615 11.4337 14.4615 11.7576C14.4615 12.5797 14.8617 13.3204 15.4708 13.9417C15.9803 13.8166 16.4916 13.7268 16.9909 13.6651C16.9546 13.4312 16.9231 13.1924 16.9231 12.9294C16.9231 12.4132 17.0141 11.9686 17.1395 11.563C16.4488 11.316 15.7342 11.1716 15.0769 11.1716V11.1716Z" fill="#F0B905"/>
<path d="M21.7885 13.554C21.8223 13.3587 21.8461 13.1535 21.8461 12.9294C21.8461 10.9593 20.3738 10.1153 20.3113 10.0798C20.119 9.97339 19.881 9.97339 19.6887 10.0798C19.6262 10.1153 18.1538 10.9593 18.1538 12.9294C18.1538 13.1535 18.1777 13.3587 18.2115 13.554C18.9067 13.5155 19.5268 13.5154 20 13.5154C20.4732 13.5154 21.0932 13.5155 21.7885 13.554V13.554Z" fill="#F0B905"/>
<path d="M12 19.4139C12 24.5398 17.2025 30 20 30C22.7975 30 28 24.5398 28 19.4139C28 14.7264 22.5968 14.6873 20 14.6873C17.4032 14.6873 12 14.7264 12 19.4139V19.4139ZM15.6923 19.9999C15.6923 20.3238 15.4171 20.5858 15.0769 20.5858C14.7368 20.5858 14.4615 20.3238 14.4615 19.9999V18.828C14.4615 18.5041 14.7368 18.242 15.0769 18.242C15.4171 18.242 15.6923 18.5041 15.6923 18.828V19.9999ZM24.3077 18.828C24.3077 18.5041 24.5829 18.242 24.9231 18.242C25.2632 18.242 25.5385 18.5041 25.5385 18.828V19.9999C25.5385 20.3238 25.2632 20.5858 24.9231 20.5858C24.5829 20.5858 24.3077 20.3238 24.3077 19.9999V18.828ZM18.1538 23.5156C18.1538 23.8394 17.8786 24.1015 17.5385 24.1015C17.1983 24.1015 16.9231 23.8394 16.9231 23.5156V22.3437C16.9231 22.0198 17.1983 21.7577 17.5385 21.7577C17.8786 21.7577 18.1538 22.0198 18.1538 22.3437V23.5156ZM20.6154 27.0312C20.6154 27.3551 20.3401 27.6172 20 27.6172C19.6599 27.6172 19.3846 27.3551 19.3846 27.0312V25.8593C19.3846 25.5355 19.6599 25.2734 20 25.2734C20.3401 25.2734 20.6154 25.5355 20.6154 25.8593V27.0312ZM21.8462 22.3437C21.8462 22.0198 22.1214 21.7577 22.4615 21.7577C22.8017 21.7577 23.0769 22.0198 23.0769 22.3437V23.5156C23.0769 23.8394 22.8017 24.1015 22.4615 24.1015C22.1214 24.1015 21.8462 23.8394 21.8462 23.5156V22.3437ZM20.6154 18.828V19.9999C20.6154 20.3238 20.3401 20.5858 20 20.5858C19.6599 20.5858 19.3846 20.3238 19.3846 19.9999V18.828C19.3846 18.5041 19.6599 18.242 20 18.242C20.3401 18.242 20.6154 18.5041 20.6154 18.828Z" fill="#69808C"/>
<defs>
<linearGradient id="paint0_linear_1_271" x1="20" y1="0" x2="20" y2="40" gradientUnits="userSpaceOnUse">
<stop stop-color="white"/>
<stop offset="1" stop-color="#F3F5F6"/>
</linearGradient>
</defs>
</svg>
