<svg width="40" height="40" viewBox="0 0 40 40" fill="none" xmlns="http://www.w3.org/2000/svg">
<circle cx="20" cy="20" r="19.5" fill="url(#paint0_linear_37_154)" stroke="#DCE2E5"/>
<g clip-path="url(#clip0_37_154)">
<path d="M18.5634 17.6949V20.1356C18.5634 20.3661 18.3803 20.5424 18.1408 20.5424H17.0141C16.7747 20.5424 16.5916 20.3661 16.5916 20.1356V17.6949C16.5916 17.4644 16.7747 17.2881 17.0141 17.2881H18.1408C18.3662 17.2881 18.5634 17.4644 18.5634 17.6949Z" fill="#F0B905"/>
<path d="M23.3521 17.6949V20.1356C23.3521 20.3661 23.169 20.5424 22.9296 20.5424H21.8028C21.5634 20.5424 21.3803 20.3661 21.3803 20.1356V17.6949C21.3803 17.4644 21.5634 17.2881 21.8028 17.2881H22.9296C23.1549 17.2881 23.3521 17.4644 23.3521 17.6949Z" fill="#F0B905"/>
<path d="M20 12C15.7183 12 12.2535 15.2136 12.2535 19.1864C12.2535 23.1593 15.7183 26.3729 20 26.3729C24.2817 26.3729 27.7465 23.1593 27.7465 19.1864C27.7465 15.2136 24.2817 12 20 12ZM24.9155 23.1186C23.5634 23.9729 21.8592 24.4746 20 24.4746C18.1408 24.4746 16.4366 23.9729 15.0845 23.1186C14.6338 22.8339 14.3662 22.3458 14.3662 21.8169V16.8271C14.3662 16.3119 14.6338 15.8102 15.0845 15.5254C16.4366 14.6712 18.1408 14.1695 20 14.1695C21.8592 14.1695 23.5634 14.6712 24.9155 15.5254C25.3662 15.8102 25.6338 16.2983 25.6338 16.8271V21.8169C25.6338 22.3322 25.3662 22.8339 24.9155 23.1186Z" fill="#69808C"/>
<path d="M20 27.2271C17.2535 27.2271 14.8592 26.0474 13.662 23.9322C14.507 26.4407 17.0282 28 20 28C22.9718 28 25.493 26.4407 26.338 23.9322C25.1408 26.0474 22.7465 27.2271 20 27.2271Z" fill="#69808C"/>
<path d="M12.1549 22.4407H11.4085C10.6338 22.4407 10 21.8305 10 21.0847V18.3729C10 17.6271 10.6338 17.0169 11.4085 17.0169H11.7324C11.5211 17.7085 11.4085 18.4407 11.4085 19.1864C11.4085 20.339 11.6761 21.4508 12.1549 22.4407Z" fill="#69808C"/>
<path d="M30 18.3729V21.0847C30 21.8305 29.3662 22.4407 28.5915 22.4407H27.8451C28.3239 21.4508 28.5915 20.339 28.5915 19.1864C28.5915 18.4407 28.4789 17.7085 28.2676 17.0169H28.5915C29.3662 17.0169 30 17.6271 30 18.3729Z" fill="#69808C"/>
</g>
<defs>
<linearGradient id="paint0_linear_37_154" x1="20" y1="0" x2="20" y2="40" gradientUnits="userSpaceOnUse">
<stop stop-color="white"/>
<stop offset="1" stop-color="#F3F5F6"/>
</linearGradient>
<clipPath id="clip0_37_154">
<rect width="20" height="16" fill="white" transform="translate(10 12)"/>
</clipPath>
</defs>
</svg>
