<svg width="40" height="40" viewBox="0 0 40 40" fill="none" xmlns="http://www.w3.org/2000/svg">
<circle cx="20" cy="20" r="19.5" fill="url(#paint0_linear_37_335)" stroke="#DCE2E5"/>
<g clip-path="url(#clip0_37_335)">
<path d="M20.0002 10C14.477 10 10 14.4768 10 20C9.99927 25.5225 14.477 29.9993 20.0002 30C25.5232 30 30.001 25.5232 30 19.9993C30.001 14.476 25.5223 10 20.0002 10ZM26.7757 24.8388L25.3747 23.82L21.9732 26.2915L22.5107 27.946C21.7182 28.1965 20.875 28.3333 19.9997 28.3333C19.1247 28.3333 18.2822 28.1965 17.4897 27.9467L18.0274 26.2915L14.625 23.82L13.2245 24.838C12.26 23.4903 11.6845 21.8473 11.67 20.0675L13.4068 20.0665L14.7055 16.0685L13.3058 15.0513C14.3133 13.6897 15.7223 12.6465 17.3618 12.0995L17.8982 13.75H22.1015L22.6377 12.0995C24.2782 12.6473 25.6868 13.6905 26.6942 15.0513L25.2942 16.0685L26.593 20.0665H28.3307C28.3163 21.8475 27.7405 23.4905 26.7757 24.8388Z" fill="#69808C"/>
<path d="M22.503 17H18.298L17 20.998L20.401 23.4688L23.802 20.998L22.503 17Z" fill="#F0B905"/>
</g>
<defs>
<linearGradient id="paint0_linear_37_335" x1="20" y1="0" x2="20" y2="40" gradientUnits="userSpaceOnUse">
<stop stop-color="white"/>
<stop offset="1" stop-color="#F3F5F6"/>
</linearGradient>
<clipPath id="clip0_37_335">
<rect width="20" height="20" fill="white" transform="translate(10 10)"/>
</clipPath>
</defs>
</svg>
