<svg width="40" height="40" viewBox="0 0 40 40" fill="none" xmlns="http://www.w3.org/2000/svg">
<circle cx="20" cy="20" r="19.5" fill="url(#paint0_linear_37_164)" stroke="#DCE2E5"/>
<path d="M19.168 10.0273C18.483 10.1796 17.7632 10.6054 17.2717 11.1406C17.0162 11.4179 16.6563 11.957 16.7028 11.996C16.757 12.0507 18.1927 12.5038 18.243 12.4843C18.2701 12.4726 18.5488 12.2773 18.8584 12.0507L19.4195 11.6367V10.8163V9.99994L19.3344 10.0038C19.2841 10.0077 19.2105 10.0156 19.168 10.0273Z" fill="#F0B905"/>
<path d="M20.5805 10.8163V11.6367L21.1417 12.0507C21.4512 12.2773 21.7299 12.4726 21.757 12.4843C21.8073 12.5038 23.2392 12.0507 23.2972 11.996C23.3437 11.957 22.9838 11.4179 22.7283 11.1406C22.4342 10.8202 22.1285 10.582 21.7299 10.371C21.4048 10.1992 20.8437 9.99994 20.6734 9.99994H20.5805V10.8163Z" fill="#F0B905"/>
<path d="M19.4969 12.9687C19.2299 13.1641 19.0093 13.3437 19.0015 13.3711C18.9977 13.3945 19.0789 13.6719 19.1796 13.9844L19.3692 14.5508H20H20.6308L20.8204 13.9844C20.921 13.6758 21.0062 13.4023 21.0062 13.3789C21.0062 13.3398 20.1277 12.6719 20.0232 12.6328C20 12.625 19.7601 12.7734 19.4969 12.9687Z" fill="#F0B905"/>
<path d="M16.308 13.2304C16.2306 13.7226 16.3274 14.5312 16.5364 15.0585C16.7299 15.5507 17.2214 16.2929 17.3684 16.3164C17.4032 16.3203 17.6122 16.0625 17.8831 15.6796L18.3398 15.0351L18.1231 14.3437C18.0031 13.9648 17.8831 13.6328 17.8599 13.6054C17.8251 13.5742 16.4125 13.0859 16.3467 13.0859C16.339 13.0859 16.3235 13.1523 16.308 13.2304Z" fill="#F0B905"/>
<path d="M22.9025 13.3281C22.5077 13.457 22.1672 13.582 22.1401 13.6055C22.1169 13.6328 21.9969 13.9649 21.8769 14.3438L21.6602 15.0391L22.1169 15.6797C22.3684 16.0352 22.5929 16.3242 22.62 16.3242C22.678 16.3281 22.9025 16.0625 23.1231 15.7305C23.483 15.1875 23.7152 14.4024 23.7152 13.7305C23.7152 13.3633 23.6842 13.082 23.6416 13.0899C23.63 13.0899 23.2972 13.1992 22.9025 13.3281Z" fill="#F0B905"/>
<path d="M18.8042 16.3086L18.3669 16.9141H17.0163H15.6656V17.5195V18.125H16.3158H16.966L17.2059 18.6211C17.7361 19.7344 17.9722 20.6836 18.0147 21.8789C18.0612 23.168 17.8328 24.3516 17.322 25.4883C17.2175 25.7227 17.1053 25.9766 17.0743 26.043L17.0201 26.1719H20H22.9799L22.9257 26.043C22.8948 25.9766 22.7825 25.7187 22.6742 25.4727C22.1595 24.3203 21.9427 23.1953 21.9853 21.9141C22.024 20.6875 22.2562 19.75 22.7941 18.6211L23.0341 18.125H23.6842H24.3344V17.5195V16.9141H22.9838H21.6293L21.1997 16.3086L20.7663 15.7031H20.0039H19.2415L18.8042 16.3086Z" fill="#69808C"/>
<path d="M15.2245 28.5625C15.1238 29.2578 15.031 29.8633 15.0193 29.9102L15 30H20H25L24.9806 29.9141C24.969 29.8633 24.8762 29.2578 24.7755 28.5625L24.5859 27.3047H20H15.4141L15.2245 28.5625Z" fill="#69808C"/>
<defs>
<linearGradient id="paint0_linear_37_164" x1="20" y1="0" x2="20" y2="40" gradientUnits="userSpaceOnUse">
<stop stop-color="white"/>
<stop offset="1" stop-color="#F3F5F6"/>
</linearGradient>
</defs>
</svg>
