<svg width="40" height="40" viewBox="0 0 40 40" fill="none" xmlns="http://www.w3.org/2000/svg">
<circle cx="20" cy="20" r="19.5" fill="url(#paint0_linear_2_1075)" stroke="#DCE2E5"/>
<path d="M21.1385 10.0106C18.8337 10.3499 16.9565 11.4615 15.6465 13.2651C15.2909 13.7517 14.7777 14.7606 14.5887 15.3455C13.963 17.2785 14.1025 19.4303 14.9803 21.216L15.1829 21.6356L13.8729 22.9615L12.5585 24.2874L13.9675 25.6847C14.7417 26.4526 15.399 27.0821 15.426 27.0821C15.453 27.0821 16.0427 26.5106 16.7404 25.8142L18.0054 24.5508L18.5636 24.8276C19.2028 25.1446 19.9051 25.3856 20.6298 25.5285C21.0665 25.6178 21.2735 25.6312 22.1063 25.6312C22.9301 25.6267 23.1507 25.6133 23.5829 25.5285C25.1494 25.216 26.5584 24.4838 27.6433 23.4169C27.8414 23.2249 28.0034 23.0463 28.0034 23.024C28.0034 23.0017 27.8369 23.0597 27.6298 23.1535C26.923 23.4749 26.1217 23.7071 25.1404 23.8767C24.2986 24.0196 23.0111 24.0196 22.2999 23.8767C20.8234 23.5821 19.5719 22.899 18.6356 21.8812C17.5372 20.6892 17.042 19.5463 16.988 18.0821C16.9565 17.283 17.015 16.8321 17.2086 16.283C17.9559 14.1847 19.7115 12.7651 21.8587 12.524C22.7095 12.4303 23.5558 12.591 24.3571 13.0017C25.388 13.5285 26.2838 14.4794 26.7025 15.4928C27.4407 17.274 26.797 19.0999 25.0189 20.2383C23.9025 20.9571 22.525 20.9437 21.4221 20.2026C20.3012 19.4481 19.7745 18.3231 20.0086 17.1758C20.2427 16.0464 21.0124 15.2696 22.1333 15.0419C22.7366 14.9214 23.3983 15.0642 23.961 15.4437C24.3616 15.7115 24.5102 15.9124 24.5102 16.1803C24.5102 16.4749 24.3616 16.7071 24.1005 16.8231C23.8259 16.9437 23.6234 16.899 23.2947 16.658C22.7861 16.2785 22.3179 16.283 21.8002 16.6669C21.4896 16.899 21.2825 17.5553 21.3771 18.0106C21.4761 18.4749 21.9173 18.9615 22.4665 19.216C22.6465 19.3008 22.8131 19.3365 23.0787 19.3499C23.7449 19.3856 24.2986 19.149 24.8793 18.5776C25.5455 17.9258 25.7526 17.216 25.5275 16.3499C25.2484 15.2606 24.2266 14.2785 23.0517 13.9749C22.6375 13.8633 21.8767 13.8722 21.4221 13.9928C20.2157 14.3142 19.2703 15.1133 18.7076 16.2874C18.4105 16.908 18.3565 17.1937 18.3835 17.9972C18.406 18.7696 18.4871 19.0955 18.7932 19.7383C19.4684 21.149 20.8549 22.1535 22.6645 22.5374C23.2632 22.6624 24.4697 22.6713 25.1449 22.5553C26.8645 22.2517 28.197 21.6178 29.2999 20.591C29.6015 20.3097 29.6195 20.2785 29.7095 19.9392C30.1327 18.3856 30.0921 16.7785 29.597 15.2964C28.7102 12.6624 26.4774 10.7026 23.6819 10.1133C23.2902 10.033 23.0427 10.0106 22.2414 10.0017C21.7102 9.99724 21.215 10.0017 21.1385 10.0106Z" fill="#69808C"/>
<path d="M11.0279 25.8186C10.6093 26.2427 10.4247 26.4704 10.3032 26.707C9.60541 28.0285 10.1591 29.4124 11.4826 29.6356C12.0453 29.7294 12.7475 29.5329 13.3417 29.1044C13.6253 28.9035 14.4086 28.1579 14.4086 28.091C14.4086 28.0642 13.7739 27.4124 12.9996 26.6445L11.5906 25.2472L11.0279 25.8186Z" fill="#F0B905"/>
<defs>
<linearGradient id="paint0_linear_2_1075" x1="20" y1="0" x2="20" y2="40" gradientUnits="userSpaceOnUse">
<stop stop-color="white"/>
<stop offset="1" stop-color="#F3F5F6"/>
</linearGradient>
</defs>
</svg>
