<svg width="40" height="40" viewBox="0 0 40 40" fill="none" xmlns="http://www.w3.org/2000/svg">
<circle cx="20" cy="20" r="19.5" fill="url(#paint0_linear_37_336)" stroke="#DCE2E5"/>
<path d="M28.5744 22.0151C26.2575 23.2586 26.0338 20.9947 26.0338 20.9947C24.1181 20.7741 22.6921 18.6453 22.6921 18.6453C20.1074 19.975 21.5474 23.7275 22.6631 25.1664C24.0962 27.0123 23.0467 30 23.0467 30C23.0467 30 17.2047 29.5299 14.2232 25.8013C11.985 23.0041 12.5623 20.3592 13.1995 18.6117C13.9664 16.5124 15.0036 15.3622 16.5171 14.1358C18.7632 12.3131 22.9158 12.0841 22.9158 12.0841C23.0478 11.33 25.2325 10 25.2325 10C25.0094 10.2216 24.9213 11.419 24.9213 11.419C25.1444 11.0198 25.8567 10.6199 25.8567 10.6199C25.4561 11.5506 25.8567 13.546 25.8567 13.546C27.0158 14.7008 28.3078 18.6908 28.3078 18.6908L28.7991 19.4C29.4204 20.2877 29.1924 21.6835 28.5744 22.0151Z" fill="#69808C"/>
<path d="M21.5751 11.743C21.8926 11.743 22.1509 11.4864 22.1509 11.1702C22.1509 10.8537 21.8938 10.597 21.5751 10.597C21.2582 10.597 20.9993 10.8531 20.9993 11.1702C21 11.4858 21.2582 11.743 21.5751 11.743ZM19.0823 12.1887C19.3996 12.1887 19.6579 11.9326 19.6579 11.6149C19.6579 11.2991 19.4003 11.0424 19.0823 11.0424C18.7642 11.0424 18.5063 11.2984 18.5063 11.6149C18.5069 11.9326 18.7642 12.1887 19.0823 12.1887ZM17.0354 13.0787C17.3528 13.0787 17.6115 12.8226 17.6115 12.5064C17.6115 12.1899 17.3536 11.9333 17.0354 11.9333C16.7177 11.9333 16.4603 12.1887 16.4603 12.5064C16.4609 12.822 16.7183 13.0787 17.0354 13.0787ZM15.1185 14.2238C15.4363 14.2238 15.6945 13.9683 15.6945 13.6506C15.6945 13.335 15.4369 13.0774 15.1185 13.0774C14.7997 13.0774 14.5431 13.3335 14.5431 13.6506C14.5431 13.9683 14.7997 14.2238 15.1185 14.2238ZM13.6469 15.8148C13.965 15.8148 14.223 15.5594 14.223 15.2423C14.223 14.9252 13.9657 14.6685 13.6469 14.6685C13.3297 14.6685 13.0715 14.9252 13.0715 15.2423C13.0715 15.5594 13.3298 15.8148 13.6469 15.8148ZM13.1348 17.151C13.1348 16.8352 12.8781 16.5779 12.5594 16.5779C12.2422 16.5779 11.9842 16.8345 11.9842 17.151C11.9842 17.4682 12.2416 17.7243 12.5594 17.7243C12.8781 17.723 13.1348 17.4666 13.1348 17.151ZM11.7924 20.0132C12.1105 20.0132 12.3685 19.7574 12.3685 19.4404C12.3685 19.1232 12.1112 18.8673 11.7924 18.8673C11.4759 18.8673 11.217 19.1232 11.217 19.4404C11.217 19.7574 11.4759 20.0132 11.7924 20.0132ZM11.9849 21.9217C11.9849 21.6058 11.7273 21.3482 11.4087 21.3482C11.0912 21.3482 10.8333 21.6046 10.8333 21.9217C10.8333 22.2369 11.0907 22.4951 11.4087 22.4951C11.7273 22.4951 11.9849 22.2368 11.9849 21.9217ZM11.8576 23.6396C11.5395 23.6396 11.2815 23.8953 11.2815 24.2124C11.2815 24.5295 11.5388 24.7858 11.8576 24.7858C12.1764 24.7858 12.433 24.5295 12.433 24.2124C12.4331 23.8953 12.1757 23.6396 11.8576 23.6396Z" fill="#F0B905"/>
<defs>
<linearGradient id="paint0_linear_37_336" x1="20" y1="0" x2="20" y2="40" gradientUnits="userSpaceOnUse">
<stop stop-color="white"/>
<stop offset="1" stop-color="#F3F5F6"/>
</linearGradient>
</defs>
</svg>
