<svg width="40" height="40" viewBox="0 0 40 40" fill="none" xmlns="http://www.w3.org/2000/svg">
<circle cx="20" cy="20" r="19.5" fill="url(#paint0_linear_37_127)" stroke="#DCE2E5"/>
<g clip-path="url(#clip0_37_127)">
<path d="M22.9689 26.0303C21.4291 26.0303 19.2805 25.6303 17.0287 24.9464V27.0345C17.0287 27.5669 17.4668 28 18.0052 28H24.618C25.1565 28 25.5946 27.5669 25.5946 27.0345V25.7305C24.7762 25.9288 23.8963 26.0303 22.9689 26.0303V26.0303Z" fill="#69808C"/>
<path d="M11.0044 16.5483C11.7501 16.0778 12.7147 15.5935 13.8262 15.1295L11.6264 14.0595C11.4448 13.9712 11.2299 13.9817 11.0581 14.0875C10.8863 14.1933 10.7819 14.3792 10.7819 14.5793V16.6899C10.8555 16.6426 10.9297 16.5954 11.0044 16.5483V16.5483Z" fill="#69808C"/>
<path d="M11.0047 22.3815C10.9299 22.3343 10.8556 22.2871 10.7819 22.2397V24.3503C10.7819 24.5504 10.8863 24.7364 11.0581 24.8421C11.1526 24.9002 11.26 24.9296 11.3678 24.9296C11.4562 24.9296 11.5446 24.9099 11.6264 24.8701L13.8264 23.8C12.7148 23.3361 11.7503 22.8517 11.0047 22.3815V22.3815Z" fill="#69808C"/>
<path d="M29.9923 19.1933C29.7006 18.3478 28.0053 17.474 23.9455 17.474C20.3984 17.474 14.8043 18.7146 11.7457 19.4648C14.8043 20.2151 20.3985 21.4556 23.9455 21.4556C25.506 21.4556 27.6457 21.3203 28.9773 20.6755C29.3793 20.4808 29.8451 20.1718 29.9919 19.7432C29.9973 19.6509 30 19.5581 30 19.4648C30 19.3738 29.9974 19.2833 29.9923 19.1933Z" fill="#F0B905"/>
<path d="M23.9455 16.3154C26.3363 16.3154 28.171 16.6034 29.402 17.1711C29.0765 16.5893 28.6232 16.0619 28.0531 15.6127C26.7622 14.5956 25.0041 14.058 22.9689 14.058C21.0545 14.058 17.9545 14.7735 15.0712 15.8808C13.6828 16.414 12.4946 16.9826 11.6347 17.525C10.9932 17.9297 10.3516 18.3143 10 18.6858C12.4184 18.0556 19.5784 16.3154 23.9455 16.3154V16.3154Z" fill="#69808C"/>
<path d="M23.9455 22.6142C19.5784 22.6142 12.4185 20.8741 10 20.2439C10.3516 20.6155 10.9933 21 11.6349 21.4048C12.4948 21.9471 13.6832 22.5156 15.0716 23.0489C17.955 24.1562 21.0549 24.8718 22.9688 24.8718C25.0036 24.8718 26.7616 24.3341 28.0526 23.317C28.6227 22.8679 29.0761 22.3405 29.4018 21.7588C28.1707 22.3264 26.3361 22.6142 23.9455 22.6142Z" fill="#69808C"/>
</g>
<defs>
<linearGradient id="paint0_linear_37_127" x1="20" y1="0" x2="20" y2="40" gradientUnits="userSpaceOnUse">
<stop stop-color="white"/>
<stop offset="1" stop-color="#F3F5F6"/>
</linearGradient>
<clipPath id="clip0_37_127">
<rect width="20" height="14" fill="white" transform="translate(10 14)"/>
</clipPath>
</defs>
</svg>
