<svg width="16" height="14" viewBox="0 0 16 14" fill="none" xmlns="http://www.w3.org/2000/svg">
    <g clip-path="url(#kz0mi4ft9a)">
        <path d="M4.818 1.288c.977.02 1.93.454 2.612 1.607a.668.668 0 0 0 1.14 0c.684-1.153 1.636-1.587 2.613-1.607.977-.021 1.978.429 2.595 1.152 1.19 1.397 1.343 3.84-.4 5.55L8 12.508 2.622 7.99c-1.742-1.71-1.591-4.153-.4-5.55.618-.723 1.618-1.173 2.596-1.152zM4.846 0a4.69 4.69 0 0 0-3.638 1.617c-1.637 1.92-1.736 5.115.483 7.286l.037.034 5.842 4.907a.673.673 0 0 0 .86 0l5.843-4.907a.85.85 0 0 0 .036-.034c2.22-2.171 2.12-5.366.482-7.286A4.686 4.686 0 0 0 11.154 0C9.996.024 8.88.651 8 1.679 7.121.652 6.004.024 4.846.001z" fill="#AEBBC2"/>
    </g>
    <defs>
        <clipPath id="kz0mi4ft9a">
            <path fill="#fff" d="M0 0h16v14H0z"/>
        </clipPath>
    </defs>
</svg>
