<svg width="174" height="32" viewBox="0 0 174 32" fill="none" xmlns="http://www.w3.org/2000/svg">
    <g clip-path="url(#zzbqtvdnwa)">
        <path d="M52.688 17.142c-.541-.795-1.287-1.36-2.233-1.71 1.554-.752 2.335-2.005 2.335-3.774 0-1.365-.501-2.458-1.487-3.294-.99-.83-2.454-1.248-4.385-1.248h-8.3v17.768h8.548c2.078 0 3.653-.457 4.723-1.36 1.074-.906 1.611-2.177 1.611-3.804 0-.933-.275-1.796-.812-2.582v.004zm-9.92-6.657h3.879c.64 0 1.132.164 1.491.497.351.334.524.778.524 1.347 0 .6-.173 1.075-.524 1.427-.36.342-.852.52-1.491.52h-3.88v-3.791zm5.854 10.506c-.4.351-.968.52-1.704.52h-4.15v-4.04h4.15c1.54 0 2.308.676 2.308 2.022 0 .65-.2 1.147-.604 1.498z" fill="url(#vcrvuz5rdb)"/>
        <path d="M69.156 7.111v3.77h-9.21v3.221h8.371v3.543h-8.371v3.47h9.183v3.77H55.795V7.11h13.361z" fill="url(#o9bfnwdsoc)"/>
        <path d="M71.7 7.116h14.905v3.768h-5.376v14h-4.177v-14H71.7V7.116z" fill="url(#z4w68n96dd)"/>
        <path d="M93.405 24.884h-4.15V7.116h4.15v17.768z" fill="url(#x1snpgtu6e)"/>
        <path d="M107.423 10.831v-3.72h3.955v17.773h-4.47l-4.275-7.084c-1.309-2.209-2.219-3.827-2.72-4.844.066 2.284.097 5.013.097 8.213v3.72h-3.955V7.111h4.47l4.275 7.085c1.229 2.066 2.139 3.693 2.725 4.893a291.834 291.834 0 0 1-.098-8.262l-.004.004z" fill="url(#lg0kzi8m0f)"/>
        <path d="M127.393 7.111v3.77h-9.211v3.221h8.372v3.543h-8.372v3.47h9.184v3.77h-13.334V7.11h13.361z" fill="url(#w6t7saxlug)"/>
        <path d="M142.405 24.889c-1.682 0-3.05-.564-4.102-1.689-1.06-1.115-1.589-2.622-1.589-4.533 0-1.911.524-3.405 1.576-4.534 1.052-1.124 2.419-1.688 4.115-1.688 1.332 0 2.477.35 3.44 1.053.963.716 1.576 1.769 1.846 3.164h-1.828c-.227-.87-.64-1.524-1.243-1.964-.604-.44-1.341-.658-2.211-.658-1.167 0-2.09.414-2.778 1.245-.688.83-1.035 1.96-1.035 3.386 0 1.427.347 2.556 1.035 3.387s1.611 1.244 2.778 1.244c.87 0 1.647-.257 2.335-.786.666-.525 1.065-1.285 1.203-2.294h1.811c-.146 1.485-.728 2.636-1.744 3.45-1.004.813-2.206 1.217-3.609 1.217h-.005.005zM154.665 24.889c-1.785 0-3.209-.578-4.27-1.72-1.083-1.133-1.629-2.64-1.629-4.502 0-1.862.541-3.356 1.629-4.516 1.061-1.137 2.485-1.706 4.27-1.706 1.784 0 3.182.569 4.27 1.706 1.07 1.16 1.607 2.667 1.607 4.516 0 1.849-.537 3.35-1.607 4.502-1.083 1.151-2.504 1.72-4.27 1.72zm0-1.609c1.216 0 2.188-.422 2.912-1.253.723-.814 1.083-1.934 1.083-3.36 0-1.427-.364-2.551-1.083-3.382-.737-.827-1.705-1.24-2.912-1.24-1.208 0-2.18.413-2.912 1.24-.737.844-1.101 1.977-1.101 3.382 0 1.404.369 2.533 1.101 3.36.723.835 1.696 1.253 2.912 1.253zM169.086 18.88l2.388-6.169H174v11.911h-1.745v-3.729c0-2.684.023-4.697.067-6.04a58.448 58.448 0 0 1-1.016 2.76l-2.726 7.01h-1.522l-2.761-7.01c-.373-.977-.702-1.884-.999-2.71.049 1.328.067 3.324.067 5.99v3.73h-1.745V12.71h2.504l2.472 6.342c.51 1.316.919 2.436 1.234 3.36.373-1.106.795-2.28 1.256-3.533h-.004.004z" fill="#AEB7C5"/>
        <path d="M93.405 5.333h-4.15V1.778h4.15v3.555z" fill="url(#diva3bwa7h)"/>
        <path d="M134.388 24.889h-3.551v-2.667h3.551v2.667z" fill="#AEB7C5"/>
    </g>
    <g clip-path="url(#hp301cjgei)">
        <path d="M20.61 16.404a.586.586 0 0 0 0 .826l4.504 4.504c.413.412.726.799.93 1.166.282.502.359.967.209 1.411-.089.264-.256.52-.509.773-.23.23-.477.393-.746.482-.378.124-.795.102-1.255-.091-.438-.185-.914-.525-1.43-1.04l-3.672-3.671a.584.584 0 0 0-.998.413c0 .15.057.3.172.414l3.892 3.893c.42.42.75.825.98 1.214.17.287.288.563.35.83.155.654-.017 1.25-.549 1.782-.574.576-1.21.777-1.883.649a2.868 2.868 0 0 1-.923-.36 5.87 5.87 0 0 1-1.162-.929l-3.111-3.111a.586.586 0 0 0-.827 0l-.03.03a.586.586 0 0 0 0 .826l3.267 3.267c.536.536 1.09.96 1.649 1.256a6.19 6.19 0 0 1-7.845-.75l-9.81-9.811a6.19 6.19 0 0 1 0-8.753l9.81-9.811a6.19 6.19 0 0 1 8.753 0l1.931 1.93c-2.427-.033-6.761.134-8.278 2.974-1.25 2.343-2.292 3.797-3.18 4.446-.563.412-1.09.887-1.132 1.579-.043.713.457 1.181.645 1.357.038.035.101.105.166.178.585.647 1.952 2.163 4.946 1.08l.07-.025.128-.07c.72-.39 1.343-.729 3.18-2.496.201-.141.504-.32 1.071-.264.667.065 1.857.475 3.743 2.06l.038.03c1.11.841 3.454 3.541 4.415 4.717.315.383.584.706.806.973.233.28.417.5.536.652l.074.095-1.99 1.989c-.273-.664-.774-1.34-1.44-2.007l-4.638-4.637a.586.586 0 0 0-.826 0l-.03.03z" fill="url(#rt51d38wxj)"/>
        <path d="M30.244 20.32c-.248-.316-.703-.845-1.354-1.64-.884-1.082-3.34-3.937-4.585-4.88-3.896-3.274-5.501-2.226-6.09-1.8-1.835 1.768-2.359 2.03-3.08 2.422-2.717.982-3.568-.556-4.092-1.048-.524-.49-.458-.786.393-1.408.852-.622 1.931-1.898 3.471-4.78 1.477-2.765 6.722-2.456 8.417-2.426l6.863 6.864a6.189 6.189 0 0 1 .056 8.695z" fill="#F0B905"/>
    </g>
    <defs>
        <linearGradient id="vcrvuz5rdb" x1="46.059" y1="7.116" x2="46.059" y2="24.884" gradientUnits="userSpaceOnUse">
            <stop stop-color="#fff"/>
            <stop offset="1" stop-color="#ADBCC6"/>
        </linearGradient>
        <linearGradient id="o9bfnwdsoc" x1="62.476" y1="7.111" x2="62.476" y2="24.884" gradientUnits="userSpaceOnUse">
            <stop stop-color="#fff"/>
            <stop offset="1" stop-color="#ADBCC6"/>
        </linearGradient>
        <linearGradient id="z4w68n96dd" x1="79.152" y1="7.116" x2="79.152" y2="24.884" gradientUnits="userSpaceOnUse">
            <stop stop-color="#fff"/>
            <stop offset="1" stop-color="#ADBCC6"/>
        </linearGradient>
        <linearGradient id="x1snpgtu6e" x1="91.33" y1="7.116" x2="91.33" y2="24.884" gradientUnits="userSpaceOnUse">
            <stop stop-color="#fff"/>
            <stop offset="1" stop-color="#ADBCC6"/>
        </linearGradient>
        <linearGradient id="lg0kzi8m0f" x1="103.717" y1="7.111" x2="103.717" y2="24.889" gradientUnits="userSpaceOnUse">
            <stop stop-color="#fff"/>
            <stop offset="1" stop-color="#ADBCC6"/>
        </linearGradient>
        <linearGradient id="w6t7saxlug" x1="120.713" y1="7.111" x2="120.713" y2="24.884" gradientUnits="userSpaceOnUse">
            <stop stop-color="#fff"/>
            <stop offset="1" stop-color="#ADBCC6"/>
        </linearGradient>
        <linearGradient id="diva3bwa7h" x1="91.33" y1="1.778" x2="91.33" y2="5.333" gradientUnits="userSpaceOnUse">
            <stop stop-color="#fff"/>
            <stop offset="1" stop-color="#ADBCC6"/>
        </linearGradient>
        <linearGradient id="rt51d38wxj" x1="14.768" y1="0" x2="14.768" y2="32" gradientUnits="userSpaceOnUse">
            <stop stop-color="#fff"/>
            <stop offset="1" stop-color="#ADBCC6"/>
        </linearGradient>
        <clipPath id="zzbqtvdnwa">
            <path fill="#fff" transform="translate(38.617 1.778)" d="M0 0h135.383v23.111H0z"/>
        </clipPath>
        <clipPath id="hp301cjgei">
            <path fill="#fff" d="M0 0h32v32H0z"/>
        </clipPath>
    </defs>
</svg>
