<svg width="174" height="32" viewBox="0 0 174 32" fill="none" xmlns="http://www.w3.org/2000/svg">
    <g clip-path="url(#5uvygzlpha)">
        <path d="M52.689 17.142c-.541-.795-1.287-1.36-2.233-1.71 1.554-.752 2.335-2.005 2.335-3.774 0-1.365-.502-2.458-1.487-3.294-.99-.83-2.455-1.248-4.385-1.248h-8.3v17.768h8.548c2.078 0 3.653-.457 4.723-1.36 1.074-.906 1.611-2.177 1.611-3.804 0-.933-.275-1.796-.812-2.582v.004zm-9.92-6.657h3.879c.64 0 1.132.164 1.491.497.351.334.524.778.524 1.347 0 .6-.173 1.075-.524 1.427-.36.342-.852.52-1.491.52h-3.88v-3.791zm5.854 10.506c-.4.351-.967.52-1.704.52h-4.15v-4.04h4.15c1.54 0 2.308.676 2.308 2.022 0 .65-.2 1.147-.604 1.498z" fill="url(#xq4a8igdvb)"/>
        <path d="M69.157 7.111v3.77h-9.21v3.222h8.37v3.542h-8.37v3.47h9.183v3.77H55.796V7.11h13.36z" fill="url(#8fbsdp2f7c)"/>
        <path d="M71.7 7.116h14.906v3.769H81.23v14h-4.177v-14H71.7v-3.77z" fill="url(#8lx5sw4u6d)"/>
        <path d="M93.406 24.885h-4.15V7.115h4.15v17.77z" fill="url(#u7qdxkswde)"/>
        <path d="M107.423 10.832v-3.72h3.955v17.773h-4.47l-4.274-7.085c-1.31-2.209-2.219-3.826-2.721-4.844.067 2.284.098 5.013.098 8.213v3.72h-3.955V7.111h4.469l4.275 7.085c1.23 2.067 2.139 3.693 2.725 4.893a296.056 296.056 0 0 1-.097-8.262l-.005.005z" fill="url(#jaxkh9j5rf)"/>
        <path d="M127.393 7.111v3.77h-9.211v3.222h8.372v3.542h-8.372v3.47h9.184v3.77h-13.334V7.11h13.361z" fill="url(#sl947dn5rg)"/>
        <path d="M142.405 24.89c-1.682 0-3.049-.565-4.101-1.69-1.061-1.115-1.589-2.622-1.589-4.533 0-1.911.524-3.404 1.576-4.533 1.052-1.125 2.419-1.69 4.114-1.69 1.332 0 2.477.352 3.44 1.054.964.716 1.576 1.769 1.847 3.165h-1.829c-.226-.872-.639-1.525-1.243-1.965-.603-.44-1.34-.658-2.21-.658-1.168 0-2.091.414-2.779 1.245-.688.83-1.034 1.96-1.034 3.387 0 1.426.346 2.555 1.034 3.386.688.831 1.611 1.245 2.779 1.245.87 0 1.647-.258 2.335-.787.665-.524 1.065-1.284 1.202-2.293h1.811c-.146 1.484-.727 2.635-1.744 3.449-1.003.813-2.206 1.217-3.609 1.217h-.004.004zM154.665 24.89c-1.785 0-3.209-.579-4.27-1.72-1.083-1.134-1.629-2.64-1.629-4.503 0-1.862.541-3.356 1.629-4.516 1.061-1.137 2.485-1.706 4.27-1.706 1.784 0 3.182.569 4.27 1.707 1.07 1.16 1.607 2.666 1.607 4.515 0 1.849-.537 3.351-1.607 4.502-1.083 1.151-2.504 1.72-4.27 1.72zm0-1.61c1.216 0 2.188-.422 2.912-1.253.723-.813 1.083-1.933 1.083-3.36 0-1.427-.364-2.551-1.083-3.382-.737-.827-1.705-1.24-2.912-1.24-1.208 0-2.18.413-2.912 1.24-.737.844-1.101 1.978-1.101 3.382 0 1.404.369 2.533 1.101 3.36.723.836 1.696 1.253 2.912 1.253zM169.086 18.88l2.388-6.169H174v11.911h-1.745v-3.728c0-2.685.023-4.698.067-6.04a57.484 57.484 0 0 1-1.017 2.76l-2.725 7.008h-1.522l-2.761-7.008c-.373-.978-.702-1.885-.999-2.712.049 1.33.067 3.325.067 5.992v3.729h-1.745V12.71h2.504l2.472 6.343c.51 1.315.919 2.435 1.234 3.36.373-1.107.794-2.28 1.256-3.534h-.004.004z" fill="#656F7E"/>
        <path d="M93.406 5.334h-4.15V1.778h4.15v3.556z" fill="url(#ysruk17wzh)"/>
        <path d="M134.389 24.89h-3.551v-2.668h3.551v2.667z" fill="#656F7E"/>
    </g>
    <g clip-path="url(#bldarlvzmi)">
        <path d="M20.601 16.404a.586.586 0 0 0 0 .826l4.502 4.504c.412.412.725.799.93 1.166.28.502.358.967.207 1.411-.088.264-.255.52-.508.773-.23.23-.477.393-.745.482-.378.124-.796.102-1.255-.091-.438-.185-.914-.525-1.428-1.04l-3.671-3.671a.583.583 0 0 0-.998.413c0 .15.056.3.171.414l3.891 3.893c.42.42.749.825.98 1.214.17.287.287.563.349.83.156.654-.017 1.25-.548 1.782-.574.576-1.21.777-1.882.649a2.866 2.866 0 0 1-.923-.36 5.866 5.866 0 0 1-1.162-.929l-3.11-3.111a.585.585 0 0 0-.826 0l-.03.03a.586.586 0 0 0 0 .826l3.266 3.267c.536.536 1.09.96 1.648 1.256a6.185 6.185 0 0 1-7.841-.75l-9.806-9.811a6.192 6.192 0 0 1 0-8.753l9.806-9.811a6.185 6.185 0 0 1 8.749 0l1.93 1.93c-2.426-.033-6.758.134-8.274 2.974-1.25 2.343-2.291 3.797-3.18 4.446-.562.412-1.089.887-1.13 1.579-.044.713.457 1.181.645 1.357.037.035.1.105.165.178.585.647 1.951 2.163 4.944 1.08l.07-.025.127-.07c.72-.39 1.343-.729 3.18-2.496.2-.141.503-.32 1.07-.264.666.065 1.856.475 3.74 2.06l.04.03c1.108.841 3.451 3.541 4.412 4.717.315.383.583.706.806.973.233.28.416.5.535.652l.074.095-1.988 1.989c-.274-.664-.774-1.34-1.44-2.007l-4.636-4.637a.585.585 0 0 0-.826 0l-.03.03z" fill="url(#fz21xyi7tj)"/>
        <path d="M30.23 20.32c-.248-.316-.704-.845-1.354-1.64-.884-1.082-3.338-3.937-4.582-4.88-3.895-3.274-5.5-2.226-6.088-1.8-1.834 1.768-2.357 2.03-3.078 2.422-2.716.982-3.567-.556-4.09-1.048-.524-.49-.459-.786.392-1.408.852-.622 1.93-1.898 3.47-4.78 1.475-2.765 6.718-2.456 8.413-2.426l6.86 6.864a6.19 6.19 0 0 1 .056 8.695z" fill="#F0B905"/>
    </g>
    <defs>
        <linearGradient id="xq4a8igdvb" x1="46.06" y1="7.116" x2="46.06" y2="24.884" gradientUnits="userSpaceOnUse">
            <stop stop-color="#55646C"/>
            <stop offset="1" stop-color="#1C2124"/>
        </linearGradient>
        <linearGradient id="8fbsdp2f7c" x1="62.476" y1="7.111" x2="62.476" y2="24.885" gradientUnits="userSpaceOnUse">
            <stop stop-color="#55646C"/>
            <stop offset="1" stop-color="#1C2124"/>
        </linearGradient>
        <linearGradient id="8lx5sw4u6d" x1="79.153" y1="7.116" x2="79.153" y2="24.885" gradientUnits="userSpaceOnUse">
            <stop stop-color="#55646C"/>
            <stop offset="1" stop-color="#1C2124"/>
        </linearGradient>
        <linearGradient id="u7qdxkswde" x1="91.331" y1="7.116" x2="91.331" y2="24.885" gradientUnits="userSpaceOnUse">
            <stop stop-color="#55646C"/>
            <stop offset="1" stop-color="#1C2124"/>
        </linearGradient>
        <linearGradient id="jaxkh9j5rf" x1="103.717" y1="7.111" x2="103.717" y2="24.889" gradientUnits="userSpaceOnUse">
            <stop stop-color="#55646C"/>
            <stop offset="1" stop-color="#1C2124"/>
        </linearGradient>
        <linearGradient id="sl947dn5rg" x1="120.713" y1="7.111" x2="120.713" y2="24.885" gradientUnits="userSpaceOnUse">
            <stop stop-color="#55646C"/>
            <stop offset="1" stop-color="#1C2124"/>
        </linearGradient>
        <linearGradient id="ysruk17wzh" x1="91.331" y1="1.778" x2="91.331" y2="5.334" gradientUnits="userSpaceOnUse">
            <stop stop-color="#55646C"/>
            <stop offset="1" stop-color="#1C2124"/>
        </linearGradient>
        <linearGradient id="fz21xyi7tj" x1="14.761" y1="0" x2="14.761" y2="32" gradientUnits="userSpaceOnUse">
            <stop stop-color="#55646C"/>
            <stop offset="1" stop-color="#1C2124"/>
        </linearGradient>
        <clipPath id="5uvygzlpha">
            <path fill="#fff" transform="translate(38.618 1.778)" d="M0 0h135.382v23.111H0z"/>
        </clipPath>
        <clipPath id="bldarlvzmi">
            <path fill="#fff" d="M0 0h31.985v32H0z"/>
        </clipPath>
    </defs>
</svg>
