<svg width="60" height="28" viewBox="0 0 60 28" fill="none" xmlns="http://www.w3.org/2000/svg">
<path fill-rule="evenodd" clip-rule="evenodd" d="M0 0H4V4H0V0ZM8 0H12V4H8V0ZM20 0H16V4H20V0ZM16 24H20V28H16V24ZM28 0H24V4H28V0ZM24 24H28V28H24V24ZM36 0H32V4H36V0ZM32 8H36V12H32V8ZM28 8H24V12H28V8ZM32 24H36V28H32V24ZM44 0H40V4H44V0ZM40 8H44V12H40V8ZM44 24H40V28H44V24ZM48 0H52V4H48V0ZM52 8H48V12H52V8ZM48 16H52V20H48V16ZM52 24H48V28H52V24ZM56 0H60V4H56V0ZM60 8H56V12H60V8ZM56 16H60V20H56V16ZM60 24H56V28H60V24Z" fill="#232B2F"/>
</svg>
