<svg width="26" height="28" viewBox="0 0 26 28" fill="none" xmlns="http://www.w3.org/2000/svg">
<g clip-path="url(#clip0_548_38985)">
<path fill-rule="evenodd" clip-rule="evenodd" d="M5.65548 4.7099C5.29188 5.02656 4.94552 5.36277 4.61794 5.71706C2.36265 8.15836 1.18807 11.1027 1.09419 14.5501C1.18376 18.8634 2.63674 22.3183 5.45315 24.915C6.45131 25.7755 7.37878 26.3731 8.23557 26.7077L8.15626 27.1086C6.52253 26.4414 5.04263 25.4429 3.80863 24.1751C1.26954 21.6263 0 18.5467 0 14.9363C0 11.326 1.26954 8.25017 3.80863 5.70891C4.33948 5.17519 4.91157 4.68473 5.51952 4.24217L5.65548 4.7099ZM20.1292 4.00098C20.8678 4.50373 21.5568 5.07676 22.1865 5.71217C24.7288 8.26538 26 11.3412 26 14.9396C26 18.538 24.731 21.6176 22.193 24.1784C21.2747 25.1127 20.2241 25.9052 19.0755 26.5301L18.878 26.165C19.587 25.7956 20.4244 25.1529 21.3901 24.2371C23.6983 21.7968 24.8605 18.601 24.8767 14.6495C24.8767 14.4718 24.8605 14.2958 24.8492 14.1215C24.6693 11.0075 23.4817 8.03846 21.4678 5.66817C21.0176 5.17949 20.5068 4.75117 19.948 4.39374L20.1292 4.00098Z" fill="#F99500"/>
<path fill-rule="evenodd" clip-rule="evenodd" d="M14.6874 0.252441L18.9929 2.73612C18.9168 2.89909 18.8424 3.04902 18.7695 3.2071C15.9283 9.32068 14.88 15.2262 15.6246 20.9236C13.8009 14.3385 13.3833 8.01256 14.3717 1.94571C14.4624 1.3764 14.5676 0.811974 14.6874 0.252441Z" fill="#737F8C"/>
<path fill-rule="evenodd" clip-rule="evenodd" d="M12.7792 21.9376C12.7414 21.7855 12.7042 21.6356 12.6675 21.4878C14.0336 24.0008 15.3825 26.0021 16.714 27.4916C15.7949 27.7584 14.8493 27.9224 13.8944 27.9805C13.6265 25.9482 13.2543 23.9312 12.7792 21.9376Z" fill="#737F8C"/>
<path fill-rule="evenodd" clip-rule="evenodd" d="M6.90004 3.36372C6.84987 3.12415 6.79969 2.88458 6.74951 2.64176L13.3308 0C13.2586 0.634499 13.1943 1.26139 13.1382 1.88068C12.4908 9.22958 13.0843 15.6571 14.9187 21.1634C15.6136 23.2593 16.525 25.276 17.638 27.1803H17.6283C12.6084 21.2438 9.03231 13.3049 6.90004 3.36372ZM12.0796 22.1053C12.5223 24.0417 12.7878 26.0148 12.8728 28C11.7778 27.9957 10.6875 27.8573 9.62581 27.5877C10.529 24.3283 10.7421 20.7033 10.2652 16.7126C10.9838 18.3059 11.556 19.9621 11.9744 21.6604C12.0149 21.812 12.0505 21.9603 12.0796 22.1086V22.1053Z" fill="#728697"/>
</g>
<defs>
<clipPath id="clip0_548_38985">
<rect width="26" height="28" fill="white"/>
</clipPath>
</defs>
</svg>
