<svg width="28" height="28" viewBox="0 0 28 28" fill="none" xmlns="http://www.w3.org/2000/svg">
<g clip-path="url(#clip0_548_38980)">
<path fill-rule="evenodd" clip-rule="evenodd" d="M9.87946 4.66123C8.26703 4.9938 6.55176 5.72329 6.55176 5.72329C7.40108 4.55492 9.12501 3.12357 9.12501 3.12357C8.65066 2.22343 8.23067 0.890701 8.23067 0.890701C8.23067 0.890701 10.2243 1.00121 11.7848 1.51283C11.7848 1.51283 14.436 0.0451121 17.183 0C17.183 0 15.1807 1.16767 14.33 2.2549C14.5558 2.37485 16.1571 2.85885 17.4043 3.60127C17.4043 3.60127 15.1496 3.66562 13.0804 3.95168C13.0804 3.95168 12.352 4.9896 11.736 7.35187C11.7356 7.35187 10.6748 6.17161 9.87946 4.66123Z" fill="#728697"/>
<path fill-rule="evenodd" clip-rule="evenodd" d="M20.5909 6.61717C19.2257 5.08336 17.4038 3.6013 17.4038 3.6013C19.0796 3.62543 21.5666 4.62419 21.5666 4.62419C22.0528 3.69607 22.3931 2.41895 22.3931 2.41895C22.3931 2.41895 23.3446 4.04543 23.7767 5.84397C23.7767 5.84397 25.752 7.03856 27.2425 9.03783C27.2425 9.03783 25.6872 8.71016 24.5422 8.71575C24.5388 8.97383 24.9622 11.0958 24.8701 12.5548C24.8701 12.5548 23.6022 10.4737 22.4125 8.74023C22.4125 8.74023 20.5002 8.7752 18.491 9.32983C18.4913 9.32983 19.6166 8.01704 20.5909 6.61717ZM22.7788 16.6149C23.7857 14.9003 24.8705 12.5552 24.8705 12.5552C25.2032 14.1236 25.233 16.1246 25.233 16.1246C26.2319 15.912 28.0001 15.0552 28.0001 15.0552C28.0001 15.0552 27.2124 17.1744 25.4466 18.7995C25.4466 18.7995 25.6253 20.0693 25.646 21.7447C25.646 21.7447 24.3971 21.1828 23.3615 20.5543C23.141 20.6841 21.8893 21.544 19.7749 21.986C19.7749 21.986 20.6702 20.5732 21.4108 19.1933C21.4108 19.1933 19.9365 18.2124 18.7687 16.6048C18.7687 16.6044 21.0393 16.894 22.7788 16.6149Z" fill="#728697"/>
<path fill-rule="evenodd" clip-rule="evenodd" d="M15.6562 13.1159C17.2008 15.0484 18.7682 16.6046 18.7682 16.6046C16.2074 16.2202 14.1283 15.495 14.1283 15.495C13.0882 17.1791 11.9532 19.1371 11.9532 19.1371C11.9532 19.1371 11.3186 17.013 11.2112 14.6022C11.2112 14.6022 9.92494 14.1475 7.55424 13.2047C7.55424 13.2047 9.18953 12.1794 11.1686 11.6202C11.053 11.3898 11.3563 8.52357 11.7358 7.35205C11.7358 7.35205 12.8898 9.24151 13.8295 10.6305C13.8295 10.6305 15.6687 10.0004 18.4916 9.32964C18.4912 9.32964 16.9467 11.3093 15.6562 13.1159ZM1.59582 20.4255C1.4403 20.13 1.29537 19.8289 1.16129 19.5229C1.18829 18.4979 1.27901 17.1777 1.53869 16.1538C1.53869 16.1538 0.794619 15.6324 0.0252761 14.9547C0.0166201 14.8368 0.00657854 14.7179 0 14.5987C0.441801 14.4322 1.37976 14.0975 2.19896 13.9059C2.29279 13.6649 2.8028 12.0049 3.78855 10.8596C3.78855 10.8596 3.85503 11.9881 4.12301 13.4904C4.12301 13.4904 5.67901 13.1344 7.5539 13.204C7.5539 13.204 5.81647 14.5861 4.72235 15.9901C5.11914 17.6089 5.91757 19.1627 5.91757 19.1627C4.72443 18.4807 3.46239 17.5775 3.46239 17.5775C3.0192 18.1097 2.12833 19.5456 1.59582 20.4255ZM11.5214 27.7759C11.3283 27.7408 11.1361 27.7008 10.945 27.656C10.2937 26.9506 9.30032 25.799 8.54171 24.5887C8.54171 24.5887 5.74341 24.3607 3.77158 23.4885C3.77158 23.4885 5.40237 23.179 7.19311 22.2464C7.07747 22.0159 6.39469 20.7444 5.91722 19.1634C5.91722 19.1634 7.62764 20.559 8.89488 21.376C8.89488 21.376 10.5052 20.4401 11.9529 19.1371C11.9529 19.1371 11.5858 20.9381 11.3826 22.9951C12.3179 23.5346 13.2609 24.0602 14.2114 24.5719C12.7513 24.7866 11.3141 24.7415 11.3141 24.7415C11.2573 25.8837 11.4093 27.0842 11.5214 27.7759ZM23.6956 24.1033C23.6956 24.1033 21.7656 24.6184 19.8821 24.6898C19.8821 24.6898 19.8679 23.392 19.7744 21.9858C19.7744 21.9858 18.7741 23.4196 17.4684 24.7985C15.9266 24.7761 14.2114 24.5723 14.2114 24.5723C14.7996 25.1769 15.4047 25.7645 16.026 26.3344C14.8647 27.3314 13.7914 27.9976 13.7914 27.9976C13.9437 27.9997 14.0989 28.0008 14.2522 27.9987C17.9179 27.9382 21.2307 26.4645 23.6956 24.1033Z" fill="#728697"/>
<path fill-rule="evenodd" clip-rule="evenodd" d="M0.169434 11.4633C0.169434 11.4633 1.20053 10.1645 2.40406 9.10978C2.40406 9.10978 2.80639 9.86025 3.78832 10.8601C3.78832 10.8601 3.79559 9.63818 3.93617 7.72109C5.03582 6.73912 6.55131 5.72323 6.55131 5.72323C5.29446 5.64244 4.3565 5.70434 4.3565 5.70434C4.64803 4.24956 5.30658 2.68848 5.30658 2.68848C2.63431 4.82868 0.753539 7.93092 0.169434 11.4633Z" fill="#728697"/>
</g>
<defs>
<clipPath id="clip0_548_38980">
<rect width="28" height="28" fill="white"/>
</clipPath>
</defs>
</svg>
