<svg width="22" height="28" viewBox="0 0 22 28" fill="none" xmlns="http://www.w3.org/2000/svg">
<g clip-path="url(#clip0_548_38930)">
<path d="M21.9708 6.03005C21.9499 5.82329 21.8861 5.19434 21.492 5.19434C21.2438 5.19434 21.0177 5.46685 20.9736 5.52337C20.3374 6.08649 19.6848 6.59673 19.0337 7.03965C16.3996 8.82754 13.5696 9.68595 10.639 9.58889C4.81845 9.39607 0.477682 5.46617 0.434549 5.4265L0.368312 5.36572L0 5.72939L0.000209525 5.76333C0.0365048 10.7624 1.27275 14.5819 2.30337 16.9057C3.42143 19.4264 4.54816 20.7842 4.55944 20.7976L4.71482 20.9829L4.79296 18.4224L4.77676 18.3999C2.47387 15.2053 1.44072 9.51056 1.25923 8.41655C4.28179 10.2165 7.43354 11.1913 10.6305 11.3146C10.8613 11.3238 11.0952 11.3281 11.3259 11.3281C15.4055 11.3281 18.4971 9.95995 19.9769 9.14451C20.2611 8.98828 20.4694 8.86084 20.5972 8.77904C20.1389 23.5466 10.5783 25.1453 6.47694 25.1453C5.65262 25.1453 5.13858 25.0749 5.13352 25.0741L5.02045 25.0583L5.02931 25.1643C5.24075 27.6704 6.0313 27.9816 6.06486 27.9935L6.08489 28.0001L6.10629 27.9985C10.0623 27.6404 13.3591 26.2605 15.9048 23.8972C17.9398 22.0083 19.5006 19.4912 20.544 16.416C22.3183 11.1874 21.9746 6.08314 21.9708 6.02994L21.9708 6.03005Z" fill="#728697"/>
<path d="M17.1813 0.676887L16.4182 2.55177L17.6467 4.19899L15.4927 4.10366L14.1868 5.69908L13.6187 3.76585L11.584 3.10421L13.387 2.00448L13.4346 0L15.1162 1.25424L17.1813 0.676887Z" fill="#E21937"/>
</g>
<defs>
<clipPath id="clip0_548_38930">
<rect width="22" height="28" fill="white"/>
</clipPath>
</defs>
</svg>
