<svg width="22" height="28" viewBox="0 0 22 28" fill="none" xmlns="http://www.w3.org/2000/svg">
<g clip-path="url(#clip0_548_38976)">
<path fill-rule="evenodd" clip-rule="evenodd" d="M5.87747 5.33404C9.04803 3.58519 12.3003 3.35903 15.2991 4.17495C15.4279 3.15266 15.5009 2.26112 16.0694 1.03147C15.3161 1.57786 14.8332 2.197 14.2791 2.86611L14.0923 0.0147482L11.687 2.68177L10.0405 0L9.02778 2.99912L6.0841 0.925687L6.5795 3.81015C5.90373 3.25043 5.14987 2.69067 4.39355 2.37916C4.9746 3.14313 5.54004 4.19862 5.87747 5.33404Z" fill="#728697" stroke="#728697" stroke-width="0.216566" stroke-linejoin="round"/>
<path fill-rule="evenodd" clip-rule="evenodd" d="M18.1453 6.54256C17.3065 5.84721 16.4638 5.24023 14.6124 4.78568C14.7799 5.1512 14.9186 5.61481 14.9168 6.09803C14.4389 5.59001 13.8592 4.95943 13.1508 4.58496C10.8116 4.27923 8.40578 4.86493 6.52117 5.81233C7.3202 5.90492 7.9498 6.52547 8.16214 7.2104C5.90535 5.64019 4.60964 7.90437 5.91648 10.1594C4.51228 9.49126 4.44681 7.86312 4.87472 6.7928C3.82049 7.59141 2.20932 9.13144 1.20529 11.2175L2.49397 11.3989C0.93655 13.227 0.1522 15.8604 0 17.4083L2.09681 16.7302C1.43295 19.1292 1.96449 22.8634 2.81127 24.2267C4.11993 23.1995 5.16961 21.914 6.25578 20.2827C6.94428 22.4526 6.82045 24.7102 6.28485 27.0122C9.34311 28.7394 13.1494 28.0395 15.6436 26.1635C15.7498 26.6079 15.8222 26.8163 16.0303 27.7821C19.0573 25.6901 20.0841 23.1308 20.378 20.6494L21.3626 21.7349C22.6806 17.4875 21.8955 14.036 19.5539 10.6927L19.4572 11.4724C19.1851 11.1321 18.7397 10.7178 18.5321 10.4577C18.4996 10.4169 18.5076 10.3938 18.4863 10.3606C18.5972 10.2932 18.8022 10.1973 18.8561 10.0516C18.8338 9.84891 18.5983 9.32606 18.4243 9.22874C17.9905 9.26928 17.6425 9.6478 17.6396 9.7865C17.4142 9.57401 17.2013 9.33895 16.544 9.09706C16.8389 9.39483 17.1222 9.85195 17.3304 10.2578C17.7628 10.5743 18.4865 11.181 19.0261 11.734L18.9221 11.8387C18.3303 11.3758 16.7452 11.4151 15.8732 11.8544C15.4486 11.3468 14.957 10.783 14.2683 10.1611C14.1007 9.87524 14.0852 9.36434 14.6189 8.92258C14.0295 8.97496 13.7842 9.22936 13.5065 9.46475C13.0939 9.15431 12.5542 8.83168 11.6792 8.58346C10.9936 8.72237 10.1664 9.16076 9.84762 9.54491C10.6476 9.9719 10.8918 10.1009 11.3775 10.135C12.0903 10.1851 12.7105 10.0237 13.1659 10.3144C13.7311 10.8156 14.7898 11.7538 14.94 12.18C14.025 11.6568 12.6546 11.9333 11.1311 11.8541C9.6906 11.6822 8.89675 10.6186 8.88172 9.76203L7.8579 9.60089C8.43379 8.81189 9.16295 8.46092 9.70125 8.27277L9.13914 7.80854C10.0394 7.03607 11.4397 6.4167 12.8648 6.29356C13.8526 6.78103 14.699 7.31488 15.2795 7.79248C15.5419 7.35521 15.5802 6.87994 15.6125 6.56861C16.7386 7.0859 17.9961 7.97248 18.916 8.90629C18.5471 8.23485 18.2674 7.46019 18.1453 6.54256V6.54256ZM13.7453 17.06C13.3132 16.2331 12.8902 15.2969 12.3941 14.5098C13.3533 13.824 14.2609 13.1133 15.8161 12.7164C16.1445 12.9884 16.6279 13.3148 17.3175 13.5651L17.3165 15.1996C16.3386 15.8681 15.3612 16.9575 13.7453 17.06ZM17.0019 16.7595L18.1862 16.7557C18.3867 16.9437 18.8047 17.5819 18.8346 18.0791C18.7415 18.7844 18.1934 20.0811 17.23 20.5761C17.2605 19.9757 17.1914 19.1984 17.0704 18.7657C16.5206 19.3834 15.6257 19.6614 15.1644 19.7636C14.9727 19.2535 14.6582 18.6901 14.3515 18.2286C15.1765 18.0578 16.2204 17.4534 17.0019 16.7595ZM19.3132 12.7817C20.093 14.4307 19.9252 16.012 19.3779 16.8223C19.1113 16.2137 18.5995 15.6045 18.1653 15.221L18.183 13.6197C18.6765 13.3547 19.0129 13.0766 19.3132 12.7817Z" fill="#728697" stroke="#728697" stroke-width="0.216566" stroke-linejoin="round"/>
</g>
<defs>
<clipPath id="clip0_548_38976">
<rect width="22" height="28" fill="white"/>
</clipPath>
</defs>
</svg>
