<svg width="28" height="20" viewBox="0 0 28 20" fill="none" xmlns="http://www.w3.org/2000/svg">
<g clip-path="url(#clip0_548_38973)">
<path d="M26.4045 4.2032C26.0813 4.18214 25.7576 4.23368 25.4533 4.35465C25.149 4.47562 24.8704 4.66347 24.6348 4.90665C24.3992 5.14983 24.2114 5.44322 24.0831 5.76877C23.9548 6.09433 23.8886 6.44518 23.8886 6.79979C23.8886 7.15439 23.9548 7.50524 24.0831 7.8308C24.2114 8.15636 24.3992 8.44974 24.6348 8.69292C24.8704 8.9361 25.149 9.12395 25.4533 9.24492C25.7576 9.36589 26.0813 9.41743 26.4045 9.39637C26.4548 9.39637 26.5023 9.39637 26.5512 9.39637V18.1822C26.5512 18.6643 26.3763 19.1267 26.0651 19.4676C25.7539 19.8085 25.3317 20 24.8916 20H1.65962C1.21947 20 0.79733 19.8085 0.48609 19.4676C0.17485 19.1267 0 18.6643 0 18.1822V1.81777C0 1.33566 0.17485 0.873307 0.48609 0.53241C0.79733 0.191513 1.21947 0 1.65962 0H24.8902C25.3303 0 25.7525 0.191513 26.0637 0.53241C26.3749 0.873307 26.5498 1.33566 26.5498 1.81777V4.2032H26.4045ZM6.58541 14.1336C6.67062 14.4029 6.77959 14.7456 6.90811 15.1587C6.34932 14.8527 4.55558 15.7249 3.91576 15.9605C3.7414 15.782 3.54927 15.6254 3.343 15.4938C3.25562 15.4671 3.16374 15.4631 3.07471 15.4823C2.98568 15.5014 2.90197 15.5431 2.8303 15.604C2.79258 15.578 2.74369 15.5076 2.66266 15.6377C2.60958 15.7218 2.63612 15.7402 2.6906 15.7815C2.65743 15.8388 2.62712 15.8981 2.5998 15.959C2.55509 15.9452 2.51877 15.8917 2.4601 16.0202C2.40142 16.1487 2.4601 16.1732 2.51877 16.1962C2.33996 16.5986 2.041 16.8419 1.86079 17.2565C1.80352 17.232 1.7616 17.203 1.70433 17.3667C1.66242 17.483 1.70433 17.5029 1.76579 17.5381C1.73779 17.6463 1.71494 17.7561 1.69734 17.867C1.68437 17.8621 1.67056 17.8605 1.65693 17.8622C1.64329 17.864 1.63021 17.8691 1.61864 17.8772C1.60708 17.8853 1.59734 17.8962 1.59016 17.909C1.58299 17.9218 1.57855 17.9362 1.5772 17.9512C1.55624 18.1164 1.5772 18.1409 1.66801 18.1516C1.66801 18.222 1.66801 18.3001 1.66801 18.3857C1.71969 18.6275 1.91527 18.6765 2.02983 18.5801C2.6459 18.0659 3.11948 17.7278 3.46593 17.4554C4.37956 17.3606 6.87878 17.1754 7.6094 17.105C7.97122 17.1311 9.0525 16.1089 9.06367 15.7601C9.08198 15.2177 9.07079 14.6745 9.03014 14.1336C9.0008 13.7082 8.96169 13.2339 8.92537 12.553L9.0958 12.4933L9.10977 11.0688L9.45483 11.0887C9.45483 11.0887 9.44784 11.0887 9.49254 10.928C10.3782 11.0321 12.0434 11.3212 13.1527 11.234C13.2533 11.2256 13.3544 11.2426 13.4482 11.2837C13.5419 11.3248 13.6258 11.389 13.6933 11.4712C13.9727 11.7328 16.0444 11.9715 17.7725 11.9838C17.8232 12.1594 17.9113 12.3193 18.0296 12.4502C18.1479 12.5811 18.293 12.6793 18.4528 12.7366C18.4906 12.7611 18.5185 12.7366 18.6163 12.6846C18.6722 12.7488 18.7029 12.7825 18.8049 12.7244C18.8859 12.6769 18.8845 12.6356 18.8566 12.5637L18.939 12.5055C18.9907 12.5652 19.0382 12.5974 19.115 12.5423C19.1918 12.4872 19.2002 12.4658 19.1443 12.3724C19.3204 12.247 20.3318 11.4161 20.3318 11.4161C20.3681 11.4574 20.3905 11.4788 20.4128 11.4743C20.4705 11.4473 20.521 11.4046 20.5595 11.3503C20.5721 11.3182 20.5427 11.2799 20.512 11.2371L20.6852 11.0841C20.7146 11.1269 20.7397 11.1514 20.7635 11.1422C20.8091 11.1209 20.8463 11.0823 20.8682 11.0336C20.8794 11.0076 20.8487 10.9647 20.8235 10.9249L20.9381 10.7719C20.8934 10.5516 20.6936 10.5761 20.519 10.5899C20.0831 10.625 18.8426 10.8301 18.3662 10.8056C17.4791 10.4827 14.1068 9.10106 13.907 9.01997C13.7041 8.93692 13.4877 8.90097 13.2714 8.91439C12.362 8.38039 10.6423 7.97185 10.4858 7.92441C10.4411 7.91064 10.4579 7.82955 10.4439 7.7714C9.9964 7.6842 9.54328 7.6361 9.08882 7.62757C9.23513 6.84511 9.32851 6.05189 9.36821 5.25438C9.45111 5.3174 9.54724 5.35635 9.64761 5.36761C9.85995 5.39209 10.0835 5.22225 10.3531 5.10137C10.4928 5.03863 10.5137 5.13044 10.5948 5.07536C10.775 4.95295 10.8658 4.5949 11.1312 4.37763C11.3003 4.22462 11.4763 4.27664 11.5503 4.1068C11.6705 3.8222 11.6118 3.62329 11.5615 3.32186C11.486 2.86283 11.3966 2.5568 11.067 2.27067C10.8431 2.06099 10.5552 1.95168 10.2609 1.96465C9.86833 1.96465 9.21175 2.16816 8.85412 3.15967C8.54532 2.93818 8.215 2.75497 7.86924 2.61342C7.09252 2.3074 4.64359 2.89802 4.36978 3.03573C4.38259 3.12276 4.38912 3.21075 4.38934 3.29891C4.38934 3.29891 4.09038 3.30962 3.97024 3.49629C3.39329 4.41435 2.73251 5.69505 2.73251 5.69505C2.61703 5.72734 2.51036 5.78969 2.42159 5.8768C2.33282 5.96391 2.26456 6.0732 2.22261 6.19539C2.10666 6.46469 1.99909 6.50142 1.75462 6.67126C1.58558 6.73399 1.64705 6.9375 1.74344 6.92985C1.9352 6.89623 2.11385 6.80211 2.25754 6.65901C2.15975 6.98493 1.8105 7.21291 1.80072 7.3445C1.83564 7.52352 2.21283 7.76681 2.70178 7.3598C2.86384 7.2479 3.009 7.10904 3.13205 6.94821C3.19352 6.86711 3.22705 6.51366 3.2955 6.2566C3.40446 6.20152 4.23148 5.37679 4.83219 4.71731C4.83219 4.71731 6.05036 4.44801 6.63291 4.34856C6.63291 4.34856 6.18028 4.58419 5.73045 4.75404C4.97747 7.81425 5.03196 9.16686 5.4315 9.3061C5.12416 9.91814 5.83103 12.3969 6.20543 13.4374L6.38983 13.4726C6.38983 13.4726 6.46387 13.7036 6.59798 14.1305" fill="#D81A22"/>
<path d="M28.0001 6.82279C27.9924 7.13859 27.8998 7.4449 27.7341 7.70341C27.5683 7.96192 27.3366 8.16116 27.068 8.27622C26.7994 8.39127 26.5057 8.41704 26.2238 8.35029C25.9419 8.28355 25.6842 8.12725 25.483 7.90095C25.2817 7.67465 25.1459 7.38839 25.0924 7.07796C25.0389 6.76754 25.0701 6.44672 25.1822 6.15564C25.2943 5.86456 25.4822 5.61613 25.7225 5.44141C25.9628 5.2667 26.2448 5.17345 26.5332 5.17334C26.7284 5.17613 26.9212 5.22102 27.1006 5.30543C27.2799 5.38984 27.4424 5.51212 27.5786 5.66529C27.7148 5.81846 27.8221 5.99951 27.8944 6.19812C27.9667 6.39673 28.0026 6.60899 28.0001 6.82279Z" fill="#898888"/>
</g>
<defs>
<clipPath id="clip0_548_38973">
<rect width="28" height="20" fill="white"/>
</clipPath>
</defs>
</svg>
