<svg width="28" height="28" viewBox="0 0 28 28" fill="none" xmlns="http://www.w3.org/2000/svg">
    <g clip-path="url(#t43rgv5wta)">
        <path d="M13.748 9.576c-2.56 0-4.641 2.066-4.641 4.606s2.082 4.607 4.641 4.607c2.56 0 4.641-2.067 4.641-4.607s-2.082-4.606-4.641-4.606z" fill="#fff"/>
        <path d="M3.936 6.052a.158.158 0 0 0 .068.214L8.92 9.104l.012.006a.158.158 0 0 0 .208-.05 6.415 6.415 0 0 1 1.906-2.101 6.473 6.473 0 0 1 2.624-1.08.158.158 0 0 0 .122-.18l-.002-.01L12.749.136l-.003-.01A.159.159 0 0 0 12.572 0l-.014.004a12.544 12.544 0 0 0-4.986 2.075A12.435 12.435 0 0 0 3.936 6.05" fill="#951B81"/>
        <path d="M1.128 16.773a.16.16 0 0 0 .211.082l5.307-2.03.012-.004a.158.158 0 0 0 .09-.192 6.355 6.355 0 0 1 .336-5.497.155.155 0 0 0-.065-.207l-.01-.005L2 6.25l-.01-.005a.162.162 0 0 0-.209.057l-.005.012a12.317 12.317 0 0 0-.647 10.459" fill="#004F9F"/>
        <path d="M7.873 25.584a.162.162 0 0 0 .168-.058.157.157 0 0 0 .028-.055l1.692-5.389.003-.012a.156.156 0 0 0-.096-.189 6.458 6.458 0 0 1-2.488-1.377 6.397 6.397 0 0 1-1.644-2.3.16.16 0 0 0-.203-.078l-.01.005-5.22 2.242-.009.004a.159.159 0 0 0-.085.199c0 .004.004.008.006.012a12.403 12.403 0 0 0 3.147 4.363 12.519 12.519 0 0 0 4.71 2.635" fill="#0090D7"/>
        <path d="M18.964 25.846a.158.158 0 0 0 .033-.222l-3.17-4.685-.007-.01a.158.158 0 0 0-.23-.03 6.475 6.475 0 0 1-5.454.876.16.16 0 0 0-.188.108l-.003.012-1.515 5.44v.01a.158.158 0 0 0 .115.193c1.756.489 3.599.592 5.399.3 1.8-.292 3.513-.972 5.02-1.992" fill="#009640"/>
        <path d="M26.184 17.438a.159.159 0 0 0-.155-.164l-5.67-.439h-.013a.16.16 0 0 0-.146.081.16.16 0 0 0-.02.08 6.36 6.36 0 0 1-.797 2.688 6.412 6.412 0 0 1-1.893 2.103.156.156 0 0 0-.03.214l.006.009 3.362 4.551.006.008a.162.162 0 0 0 .224.03 12.43 12.43 0 0 0 3.585-4.017 12.332 12.332 0 0 0 1.54-5.143" fill="#FFED00"/>
        <path d="M24.04 6.578a.162.162 0 0 0-.226.016l-3.913 4.097-.009.01a.157.157 0 0 0-.029.163.166.166 0 0 0 .052.065c.699.642 1.246 1.43 1.602 2.307a6.35 6.35 0 0 1 .454 2.784.16.16 0 0 0 .146.158h.012l5.68.273h.01a.16.16 0 0 0 .163-.14v-.014a12.32 12.32 0 0 0-.885-5.292 12.4 12.4 0 0 0-3.055-4.426" fill="#F18700"/>
        <path d="M14.097 1.53a.16.16 0 0 0-.126.186l.832 5.585.002.012a.157.157 0 0 0 .17.13L15 7.437A6.491 6.491 0 0 1 20.29 8.96a.164.164 0 0 0 .069.041.16.16 0 0 0 .162-.046l.008-.008 3.723-4.267.006-.008a.158.158 0 0 0-.01-.214l-.01-.009a12.521 12.521 0 0 0-4.744-2.575 12.585 12.585 0 0 0-5.395-.346" fill="#E30613"/>
        <path d="M13.748 9.512c-2.595 0-4.706 2.095-4.706 4.67 0 2.576 2.111 4.67 4.706 4.67s4.705-2.095 4.705-4.67c0-2.575-2.11-4.67-4.705-4.67zm3.418 7.303c.072-.19.095-.411.118-.583a2.887 2.887 0 0 1-.306.254c-.3.22-.644.375-1.009.456l-.91-.985-.013.01.66 1.158c-.191.325-.448.605-.756.824-.107.077-.22.147-.337.21.17.03.388.077.592.068a4.36 4.36 0 0 1-2.914 0c.203.01.422-.038.594-.069a2.948 2.948 0 0 1-.337-.209 2.674 2.674 0 0 1-.756-.823l.66-1.161-.013-.009-.91.985a2.687 2.687 0 0 1-1.008-.455 2.84 2.84 0 0 1-.307-.253c.023.172.045.395.118.585a4.255 4.255 0 0 1-.91-2.635c0-.047.002-.094.003-.14.052.2.169.402.255.559a2.76 2.76 0 0 1 .098-.384c.115-.36.305-.69.559-.97l1.301.261.005-.014-1.217-.551c-.034-.369.008-.74.126-1.09.04-.127.09-.25.149-.369-.167.08-.389.175-.552.315a4.333 4.333 0 0 1 2.432-1.752c-.188.11-.352.293-.482.429a2.95 2.95 0 0 1 .397-.027c.377-.003.75.074 1.096.224l.15 1.305h.016l.15-1.305c.345-.15.718-.226 1.094-.223.133 0 .266.01.398.027-.13-.134-.293-.318-.481-.428a4.332 4.332 0 0 1 2.428 1.748c-.163-.138-.383-.234-.549-.312.058.12.108.243.149.368.118.352.16.724.125 1.092l-1.214.551.005.014 1.3-.265c.254.28.444.612.558.971.042.125.074.254.097.384.085-.157.202-.355.255-.555 0 .045.003.09.003.136.001.954-.32 1.88-.91 2.633" fill="#1D1D1B"/>
        <path d="m11.848 13.567.726 2.22h2.351l.726-2.22-1.902-1.371-1.901 1.371z" fill="#1D1D1B"/>
    </g>
    <defs>
        <clipPath id="t43rgv5wta">
            <path fill="#fff" d="M0 0h28v28H0z"/>
        </clipPath>
    </defs>
</svg>
