<?xml version="1.0" encoding="utf-8"?>
<!-- Generator: Adobe Illustrator 24.0.0, SVG Export Plug-In . SVG Version: 6.00 Build 0)  -->
<svg version="1.1" id="katman_1" xmlns="http://www.w3.org/2000/svg" xmlns:xlink="http://www.w3.org/1999/xlink" x="0px" y="0px"
	 viewBox="0 0 28 28" style="enable-background:new 0 0 28 28;" xml:space="preserve">
<style type="text/css">
	
		.st0{fill:none;stroke:url(#SVGID_1_);stroke-width:0.75;stroke-linecap:round;stroke-linejoin:round;stroke-miterlimit:10;stroke-dasharray:3;}
	.st1{fill:url(#SVGID_2_);}
	.st2{fill:#009A63;}
	.st3{fill:url(#SVGID_3_);}
	.st4{fill:url(#SVGID_4_);}
	.st5{fill:#020203;}
	.st6{fill:#00A0AE;}
	.st7{fill:#009B70;}
</style>
<g>
	<g>
		<linearGradient id="SVGID_1_" gradientUnits="userSpaceOnUse" x1="3.5725" y1="13.784" x2="25.114" y2="13.784">
			<stop  offset="0" style="stop-color:#353B57"/>
			<stop  offset="1" style="stop-color:#1C1F3A"/>
		</linearGradient>
		<circle class="st0" cx="14.3" cy="13.8" r="10.4"/>
		<linearGradient id="SVGID_2_" gradientUnits="userSpaceOnUse" x1="32.9788" y1="13.784" x2="33.1058" y2="13.784">
			<stop  offset="0" style="stop-color:#353B57"/>
			<stop  offset="1" style="stop-color:#1C1F3A"/>
		</linearGradient>
		<circle class="st1" cx="14.3" cy="13.8" r="9.7"/>
		<circle class="st2" cx="14.3" cy="13.8" r="7.5"/>
		<g>
			<linearGradient id="SVGID_3_" gradientUnits="userSpaceOnUse" x1="2.0722" y1="21.5352" x2="27.7188" y2="21.5352">
				<stop  offset="0" style="stop-color:#009A62"/>
				<stop  offset="1" style="stop-color:#009671"/>
			</linearGradient>
			<path class="st3" d="M14.2,27.8c-4.9,0-9.5-2.6-11.9-6.9c-0.3-0.5-0.1-1.2,0.4-1.6c0.5-0.3,1.2-0.1,1.6,0.4
				c2.1,3.5,5.9,5.8,10,5.8c5.5,0,10.2-3.9,11.3-9.3c0.1-0.6,0.7-1,1.3-0.9c0.6,0.1,1,0.7,0.9,1.3C26.4,23.1,20.7,27.8,14.2,27.8z"
				/>
		</g>
		<g>
			<linearGradient id="SVGID_4_" gradientUnits="userSpaceOnUse" x1="0.6121" y1="6.4491" x2="26.1235" y2="6.4491">
				<stop  offset="0" style="stop-color:#A3AF31"/>
				<stop  offset="1" style="stop-color:#009A62"/>
			</linearGradient>
			<path class="st4" d="M1.8,12.7c-0.1,0-0.1,0-0.2,0c-0.6-0.1-1-0.7-0.9-1.3C1.9,4.9,7.6,0.2,14.2,0.2c4.9,0,9.3,2.5,11.8,6.6
				c0.3,0.5,0.2,1.2-0.4,1.6C25,8.7,24.3,8.6,24,8c-2.1-3.5-5.8-5.5-9.8-5.5c-5.5,0-10.2,3.9-11.3,9.3C2.8,12.3,2.3,12.7,1.8,12.7z"
				/>
		</g>
		<path class="st2" d="M27.5,10.7l0-6.4c0-0.5-0.6-0.8-1-0.6l-5.5,3.2c-0.4,0.3-0.4,0.9,0,1.1l5.6,3.2
			C26.9,11.5,27.5,11.2,27.5,10.7l0-6.4c0-0.5-0.6-0.8-1-0.6l-5.5,3.2c-0.4,0.3-0.4,0.9,0,1.1l5.6,3.2
			C26.9,11.5,27.5,11.2,27.5,10.7z"/>
		<path class="st2" d="M0.4,16.3l0,6.4c0,0.5,0.6,0.8,1,0.6L7,20c0.4-0.3,0.4-0.9,0-1.1l-5.6-3.2C1,15.5,0.4,15.8,0.4,16.3l0,6.4
			c0,0.5,0.6,0.8,1,0.6L7,20c0.4-0.3,0.4-0.9,0-1.1l-5.6-3.2C1,15.5,0.4,15.8,0.4,16.3z"/>
	</g>
	<g>
		<g>
			<g>
				<path class="st5" d="M10.5,15.1c-0.1,0-0.2,0-0.3,0l-0.8-0.2c-0.3-0.1-0.5-0.3-0.6-0.6c-0.1-0.2-0.1-0.3,0-0.5
					c-0.7-0.5-1.1-1.2-1.1-2.1c0-1.6,1.2-2.9,2.9-3.1c0.2,0,0.3,0,0.5,0c0.8,0,1.5,0.3,2,0.9c0.3,0.4,0.3,0.9-0.1,1.2l-0.6,0.5
					l0.5,0.3c0.2,0.1,0.4,0.3,0.4,0.6c0.1,0.2,0,0.5-0.1,0.7c-0.4,0.6-0.9,1-1.5,1.3l-0.2,0.5C11.3,14.9,10.9,15.1,10.5,15.1z"/>
				<path class="st5" d="M12.8,13.9c-0.2,0-0.5-0.1-0.6-0.2c-0.2-0.2-0.3-0.4-0.3-0.7l0-3.7c0-0.5,0.4-0.8,0.8-0.9L15.8,8
					c0,0,0.1,0,0.1,0c0.2,0,0.5,0.1,0.6,0.2c0.2,0.2,0.3,0.4,0.3,0.7l0,0.9c0,0.2-0.1,0.4-0.2,0.5c0,0,0,0,0,0l0,0.8
					c0.1,0.2,0.2,0.4,0.2,0.6l0,0.9c0,0.5-0.4,0.8-0.8,0.9l-3.1,0.4C12.9,13.9,12.8,13.9,12.8,13.9z"/>
				<path class="st5" d="M16.4,13.4c-0.2,0-0.5-0.1-0.6-0.2c-0.2-0.2-0.3-0.4-0.3-0.7l0-3.7c0-0.5,0.4-0.8,0.8-0.9l1.1-0.1
					c0,0,0.1,0,0.1,0c0.2,0,0.4,0.1,0.6,0.2c0.2-0.2,0.4-0.3,0.6-0.3L20,7.4c0,0,0.1,0,0.1,0c0.3,0,0.7,0.2,0.8,0.5
					c0.2,0.3,0.2,0.7-0.1,1l-1,1.2l1.1,1.4c0.2,0.3,0.2,0.6,0.1,0.9c-0.1,0.3-0.4,0.5-0.7,0.5L19,13.1c0,0-0.1,0-0.1,0
					c-0.2,0-0.4-0.1-0.6-0.2c-0.1,0.2-0.4,0.3-0.6,0.4l-1.1,0.1C16.5,13.4,16.5,13.4,16.4,13.4z"/>
				<path class="st5" d="M7.4,19.7c-0.2,0-0.5-0.1-0.6-0.2c-0.2-0.2-0.3-0.4-0.3-0.7l0-1.1l-1.3-1.9C5,15.5,5,15.2,5.1,14.9
					c0.1-0.3,0.4-0.5,0.7-0.5L7,14.2c0,0,0.1,0,0.1,0c0.3,0,0.5,0.1,0.7,0.3l0,0C8.1,14.2,8.3,14,8.6,14l1.2-0.2c0,0,0.1,0,0.1,0
					c0.3,0,0.6,0.1,0.8,0.4c0.2,0.3,0.2,0.7,0,1l-1.3,2.3l0,1.2c0,0.5-0.4,0.8-0.8,0.9l-1.1,0.1C7.5,19.7,7.5,19.7,7.4,19.7z"/>
				<path class="st5" d="M9.4,19.4c-0.3,0-0.6-0.1-0.8-0.3c-0.2-0.3-0.3-0.6-0.1-0.9l1.7-4c0.1-0.3,0.4-0.5,0.8-0.6l1-0.1
					c0,0,0.1,0,0.1,0c0.4,0,0.7,0.2,0.9,0.5l1.6,3.5c0.1,0.3,0.1,0.6,0,0.8c-0.1,0.2-0.4,0.4-0.7,0.5L12.6,19c0,0-0.1,0-0.1,0
					c-0.4,0-0.7-0.2-0.9-0.5l-0.2,0l-0.1,0.2c-0.1,0.3-0.4,0.5-0.8,0.6l-1.1,0.2C9.4,19.4,9.4,19.4,9.4,19.4z"/>
				<path class="st5" d="M14.5,18.7c-0.2,0-0.5-0.1-0.6-0.2c-0.2-0.2-0.3-0.4-0.3-0.7l0-1.8l-0.1,0c0,0-0.1,0-0.1,0
					c-0.2,0-0.5-0.1-0.6-0.2c-0.2-0.2-0.3-0.4-0.3-0.7l0-0.9c0-0.5,0.4-0.8,0.8-0.9l3.4-0.5c0,0,0.1,0,0.1,0c0.2,0,0.5,0.1,0.6,0.2
					c0.2,0.2,0.3,0.4,0.3,0.7l0,0.9c0,0.5-0.4,0.8-0.8,0.9l-0.3,0l0,2c0,0.5-0.4,0.8-0.8,0.9l-1.1,0.1
					C14.6,18.7,14.5,18.7,14.5,18.7z"/>
				<path class="st5" d="M17.2,18.4c-0.2,0-0.5-0.1-0.6-0.2c-0.2-0.2-0.3-0.4-0.3-0.7l0-3.7c0-0.5,0.4-0.8,0.8-0.9l1.1-0.1
					c0,0,0.1,0,0.1,0c0.2,0,0.5,0.1,0.6,0.2c0.2,0.2,0.3,0.4,0.3,0.7l0,3.7c0,0.5-0.4,0.8-0.8,0.9l-1.1,0.1
					C17.3,18.4,17.2,18.4,17.2,18.4z"/>
				<path class="st5" d="M18.9,18.1c-0.2,0-0.5-0.1-0.6-0.2c-0.2-0.2-0.3-0.4-0.3-0.7l0-3.7c0-0.5,0.4-0.8,0.8-0.9l1.8-0.2
					c0.2,0,0.4,0,0.5,0c0.6,0,1.1,0.2,1.5,0.5c0.3,0.3,0.7,0.7,0.7,1.5c0,0,0,0,0,0c0,0.5-0.2,1-0.5,1.3l0.4,0.5
					c0.2,0.3,0.2,0.6,0.1,0.9c-0.1,0.3-0.4,0.5-0.7,0.5l-1.2,0.2c0,0-0.1,0-0.1,0c-0.2,0-0.4-0.1-0.5-0.1c-0.1,0.2-0.4,0.3-0.6,0.3
					l-1.1,0.1C19,18.1,19,18.1,18.9,18.1z"/>
			</g>
			<path class="st6" d="M9,14l0.5-0.7c-0.9-0.1-1.6-0.8-1.6-1.9v0c0-1.2,0.9-2.3,2.2-2.5c0.8-0.1,1.4,0.2,1.7,0.6l-0.9,0.8
				c-0.2-0.3-0.5-0.4-0.9-0.4c-0.6,0.1-1,0.6-1,1.2v0c0,0.6,0.4,1.1,1,1c0.4-0.1,0.7-0.3,0.9-0.6l0.8,0.5c-0.4,0.5-0.8,1-1.6,1.2
				l-0.3,1L9,14z"/>
			<path class="st6" d="M12.3,8.8l3.3-0.5l0,1l-2.2,0.3l0,0.6l2-0.3l0,0.9l-2,0.3l0,0.7l2.2-0.3l0,1l-3.3,0.5L12.3,8.8z"/>
			<path class="st6" d="M16.2,8.2l1.1-0.2l0,1.7l1.4-1.9l1.3-0.2l-1.6,2l1.6,2.1L18.7,12l-1-1.4l-0.4,0.5l0,1.1l-1.1,0.2L16.2,8.2z"
				/>
			<path class="st7" d="M6.6,17.8L5,15.4l1.3-0.2l0.8,1.4L8,15l1.3-0.2l-1.6,2.8l0,1.6l-1.1,0.2L6.6,17.8z"/>
			<path class="st7" d="M10.4,14.7l1.1-0.2l1.7,3.9L12,18.6l-0.3-0.7l-1.6,0.2l-0.3,0.8l-1.2,0.2L10.4,14.7z M11.4,17.1l-0.4-1.1
				l-0.5,1.2L11.4,17.1z"/>
			<path class="st7" d="M14.1,15.2l-1.2,0.2l0-1l3.6-0.5l0,1L15.2,15l0,3.1l-1.1,0.2L14.1,15.2z"/>
			<path class="st7" d="M16.9,13.8l1.1-0.2l0,4.2l-1.1,0.2L16.9,13.8z"/>
			<path class="st7" d="M18.8,13.5l1.9-0.3c0.6-0.1,1.1,0,1.3,0.3c0.2,0.2,0.4,0.5,0.4,0.9l0,0c0,0.6-0.3,1.1-0.8,1.4l1,1.3
				l-1.3,0.2l-0.8-1.1l0,0l-0.5,0.1l0,1.3l-1.1,0.2L18.8,13.5z M20.7,15.2c0.4-0.1,0.6-0.3,0.6-0.6v0c0-0.3-0.2-0.5-0.6-0.4L20,14.3
				l0,1L20.7,15.2z"/>
		</g>
	</g>
</g>
</svg>
