<svg width="54" height="54" viewBox="0 0 54 54" fill="none" xmlns="http://www.w3.org/2000/svg">
<path d="M2.82363 17.1309L2.04533 17.9092C-0.684211 20.6387 -0.680557 25.0636 2.04899 27.7932C2.04899 27.7932 2.23167 25.652 5.57509 22.2391C5.57144 22.2391 3.06479 20.4085 2.82363 17.1309Z" fill="#FF6C0E"/>
<path d="M37.1128 3.99142L51.3086 18.1872C54.3121 21.1907 54.8017 25.7583 52.7775 29.2734C52.3829 29.9605 51.8933 30.6035 51.3086 31.1918L32.6074 49.893C29.0156 53.4849 23.191 53.4885 19.5992 49.8967L7.1902 37.4804C3.94181 34.2319 3.94181 28.9665 7.1902 25.7217L7.92101 24.9909L11.7175 28.7874C13.7711 30.8411 17.1035 30.8411 19.1571 28.7874C21.2106 26.7338 21.2106 23.4015 19.1571 21.3478L15.4592 17.6501C18.6966 15.4138 23.1654 15.739 26.0484 18.622L36.4369 29.0104C38.9909 31.5646 43.1272 31.5646 45.6814 29.0104C47.0371 27.6547 47.6728 25.8532 47.5852 24.0774C47.5121 22.5099 46.8799 20.968 45.6814 19.7694L28.8475 2.94273C29.9108 2.3179 31.1129 2 32.304 2C34.0435 2 35.7864 2.66503 37.1128 3.99142Z" fill="#00A0DF"/>
<path d="M15.2803 27.4424C16.6788 27.4424 17.8124 26.3087 17.8124 24.9102C17.8124 23.5118 16.6788 22.3779 15.2803 22.3779C13.8818 22.3779 12.748 23.5118 12.748 24.9102C12.748 26.3087 13.8818 27.4424 15.2803 27.4424Z" fill="#00A0DF"/>
<path d="M28.9754 8.41658L43.0907 22.532C44.092 23.5331 44.092 25.1518 43.0944 26.1531C42.0933 27.1542 40.4709 27.1542 39.4732 26.1531L27.3457 14.0291C26.3956 13.0791 25.2884 12.3739 24.1083 11.9208C20.7575 10.6236 16.8112 11.3252 14.1072 14.0291L13.0366 15.0997L12.5543 14.6174C10.899 12.9622 10.9027 10.2801 12.5543 8.62852L12.7662 8.41658C14.1913 6.99153 15.8904 6.01957 17.6954 5.50434C21.5724 4.39719 25.9207 5.3655 28.9754 8.41658Z" fill="#FF6C0E"/>
<path d="M17.5282 42.5167H18.9388C19.1069 42.5167 19.2676 42.4473 19.3772 42.3195C19.8924 41.7312 21.4782 39.9517 22.8339 38.6472C23.2833 38.2159 24.0141 38.6947 23.7877 39.2756C23.2759 40.5911 22.9617 42.1039 23.9885 42.5167C25.9033 43.2804 28.8995 40.2842 29.1553 39.8383C29.411 39.3926 28.8375 42.071 31.3222 42.071C33.8105 42.071 38.0198 37.9895 38.3999 37.4158C38.7836 36.8421 37.4024 35.6546 36.0394 36.9043C34.6582 38.1759 31.7898 40.2037 32.0457 38.8006C32.3014 37.3975 32.7253 36.1991 31.1322 36.3269C29.539 36.4584 26.7327 39.5826 26.2211 40.0942C25.7096 40.6057 25.0081 40.222 25.8374 39.0747C26.667 37.9273 28.8995 34.4377 29.2832 33.791C29.6669 33.1443 28.1979 31.6132 25.7133 33.4622C24.4161 34.4267 23.6926 35.0077 23.2942 35.3475C23.0605 35.5449 22.7207 35.5302 22.5051 35.3146C22.1433 34.9494 21.5221 34.624 20.8022 35.5046C19.9363 36.5608 17.9485 40.0137 17.0204 41.647C16.7975 42.0344 17.0788 42.5167 17.5282 42.5167Z" fill="white"/>
</svg>
