<svg width="150" height="30" viewBox="0 0 150 30" fill="none" xmlns="http://www.w3.org/2000/svg">
    <path
        d="M40.7192 4.24414V22.5657H44.6802V8.2051C44.6802 6.01692 42.9074 4.24414 40.7192 4.24414Z"
        fill="#FF6C0E" />
    <path
        d="M45.6699 4.60719C45.6699 4.60719 50.9044 2.13158 53.5226 6.659C53.5226 6.659 54.6534 3.93164 59.3948 3.93164C61.4466 3.93164 65.053 5.17364 65.053 9.70105C65.053 14.2285 65.053 22.3623 65.053 22.3623H61.1634C61.1634 22.3623 61.1634 11.327 61.1634 10.1248C61.1634 8.92271 60.597 6.73033 58.5452 6.73033C56.4933 6.73033 55.3625 7.7919 55.3625 9.56049C55.3625 11.3291 55.3625 22.3644 55.3625 22.3644H50.833C50.833 22.3644 50.833 10.9745 50.833 9.27726C50.833 7.58001 49.1966 7.26741 47.5686 7.26741C46.4881 7.26531 45.6699 4.60719 45.6699 4.60719Z"
        fill="#FF6C0E" />
    <path d="M73.5313 29.2855H69.5557L80.5742 3.72388H84.5519L73.5313 29.2855Z" fill="#FF6C0E" />
    <path
        d="M71.3513 18.2503L65.3931 3.93164H69.5554L73.3905 13.148C74.15 14.9753 73.3318 18.2503 71.3513 18.2503Z"
        fill="#FF6C0E" />
    <path
        d="M101.713 12.5145C101.713 17.7657 98.01 22.0225 93.4449 22.0225C92.0917 22.0225 90.8161 21.649 89.6895 20.9861C89.4461 20.8434 89.1377 21.0259 89.1377 21.3092V28.5639C89.1377 28.7674 88.972 28.9332 88.7685 28.9332H85.546C85.3425 28.9332 85.1768 28.7674 85.1768 28.5639V3.97575C85.1768 3.75966 85.3635 3.58553 85.5775 3.60651C87.5768 3.80792 89.1377 5.49678 89.1377 7.5465V17.3083C89.1377 17.4132 89.1818 17.5139 89.2594 17.5832C90.235 18.4496 91.477 18.9678 92.8301 18.9678C95.9624 18.9678 97.8086 16.1901 97.8086 12.762C97.8086 9.46194 96.0946 6.76395 93.17 6.56884C92.977 6.55625 92.828 6.39471 92.828 6.2017V3.37783C92.828 3.17643 92.9875 3.01488 93.1889 3.00859C93.2728 3.00649 93.3567 3.00439 93.4428 3.00439C98.01 3.00439 101.713 7.26117 101.713 12.5145Z"
        fill="#00A0DF" />
    <path
        d="M115.593 9.41357C114.313 9.41357 113.277 10.45 113.277 11.7297C113.277 11.7297 102.185 10.9262 102.185 17.6733C102.185 21.7601 105.624 22.3622 108.089 22.3622C109.83 22.3622 112.121 20.9608 113.317 20.1384C113.52 21.2104 114.462 22.0203 115.593 22.0203H116.651V9.41357H115.593ZM108.154 19.6852C104.602 19.3034 104.952 15.3928 108.154 14.8851C110.644 14.4886 112.348 14.283 113.277 14.1844V16.9285C112.4 18.3069 110.778 19.9664 108.154 19.6852Z"
        fill="#00A0DF" />
    <path
        d="M114.949 5.98765L112.774 7.66603C112.686 7.73526 112.564 7.74155 112.466 7.6891C111.572 7.20867 110.531 6.93593 109.417 6.93593C107.621 6.93593 106.01 7.65134 104.909 8.78215C104.781 8.91222 104.569 8.89963 104.455 8.75487L102.991 6.88978C102.911 6.78698 102.901 6.64222 102.974 6.53522C104.174 4.76873 106.608 3.5603 109.415 3.5603C111.643 3.5603 113.636 4.32187 114.962 5.51981C115.107 5.64568 115.101 5.87017 114.949 5.98765Z"
        fill="#00A0DF" />
    <path d="M146.752 6.80796H136.267V3.5603H150C149.998 5.35407 148.544 6.80796 146.752 6.80796Z"
        fill="#00A0DF" />
    <path d="M149.69 18.607V21.6889H135.95V19.121L143.622 9.00879H147.955L140.587 18.607H149.69Z"
        fill="#00A0DF" />
    <path d="M124.516 29.2855H120.541L131.561 3.72388H135.537L124.516 29.2855Z" fill="#00A0DF" />
    <path
        d="M122.336 18.2503L116.378 3.93164H120.54L124.375 13.148C125.137 14.9753 124.317 18.2503 122.336 18.2503Z"
        fill="#00A0DF" />
    <path
        d="M21.3086 1.14339L29.4592 9.294C31.1837 11.0185 31.4648 13.641 30.3026 15.6592C30.076 16.0537 29.7949 16.4229 29.4592 16.7607L18.7218 27.4981C16.6595 29.5604 13.3153 29.5625 11.253 27.5002L4.12831 20.3713C2.26322 18.5062 2.26322 15.483 4.12831 13.62L4.54791 13.2004L6.72769 15.3802C7.90675 16.5593 9.8201 16.5593 10.9992 15.3802C12.1782 14.2011 12.1782 12.2878 10.9992 11.1087L8.87601 8.9856C10.7348 7.70164 13.3006 7.88836 14.9559 9.54366L20.9205 15.5082C22.3869 16.9747 24.7618 16.9747 26.2283 15.5082C27.0067 14.7298 27.3717 13.6955 27.3214 12.6759C27.2794 11.7759 26.9164 10.8906 26.2283 10.2024L16.563 0.541276C17.1735 0.182523 17.8637 0 18.5476 0C19.5463 0 20.547 0.38183 21.3086 1.14339Z"
        fill="#00A0DF" />
    <path
        d="M8.77323 14.6082C9.57619 14.6082 10.2271 13.9573 10.2271 13.1543C10.2271 12.3514 9.57619 11.7004 8.77323 11.7004C7.97027 11.7004 7.31934 12.3514 7.31934 13.1543C7.31934 13.9573 7.97027 14.6082 8.77323 14.6082Z"
        fill="#00A0DF" />
    <path
        d="M16.6364 3.68414L24.7408 11.7886C25.3157 12.3634 25.3157 13.2928 24.7429 13.8677C24.1681 14.4425 23.2366 14.4425 22.6638 13.8677L15.7007 6.90662C15.1552 6.36115 14.5195 5.95624 13.8419 5.69609C11.918 4.95132 9.65222 5.35413 8.09973 6.90662L7.48502 7.52133L7.20809 7.24439C6.25771 6.29402 6.25981 4.75411 7.20809 3.80583L7.32977 3.68414C8.14798 2.86594 9.12354 2.30788 10.1599 2.01206C12.3859 1.37638 14.8825 1.93234 16.6364 3.68414Z"
        fill="#FF6C0E" />
    <path
        d="M1.62121 8.68774L1.17434 9.13461C-0.392844 10.7018 -0.390746 13.2424 1.17644 14.8096C1.17644 14.8096 1.28133 13.5802 3.20098 11.6207C3.19888 11.6207 1.75967 10.5696 1.62121 8.68774Z"
        fill="#FF6C0E" />
    <path
        d="M10.0639 23.2623H10.8738C10.9703 23.2623 11.0626 23.2225 11.1255 23.1491C11.4213 22.8113 12.3318 21.7896 13.1102 21.0406C13.3682 20.793 13.7878 21.0679 13.6578 21.4014C13.364 22.1567 13.1836 23.0253 13.7731 23.2623C14.8725 23.7008 16.5928 21.9805 16.7397 21.7245C16.8865 21.4686 16.5572 23.0064 17.9838 23.0064C19.4125 23.0064 21.8293 20.663 22.0475 20.3336C22.2678 20.0042 21.4748 19.3224 20.6922 20.0399C19.8992 20.77 18.2523 21.9343 18.3992 21.1287C18.546 20.3231 18.7894 19.635 17.8747 19.7084C16.96 19.7839 15.3487 21.5777 15.055 21.8714C14.7613 22.1651 14.3585 21.9448 14.8347 21.2861C15.311 20.6273 16.5928 18.6237 16.8131 18.2524C17.0334 17.8811 16.19 17.002 14.7634 18.0636C14.0186 18.6174 13.6032 18.951 13.3745 19.1461C13.2403 19.2594 13.0452 19.251 12.9214 19.1272C12.7137 18.9175 12.357 18.7307 11.9437 19.2363C11.4465 19.8427 10.3052 21.8252 9.77232 22.763C9.64435 22.9854 9.80589 23.2623 10.0639 23.2623Z"
        fill="white" />
</svg>