<svg width="200" height="120" viewBox="0 0 200 120" fill="none" xmlns="http://www.w3.org/2000/svg">
<path fill-rule="evenodd" clip-rule="evenodd" d="M176.88 54.0216C175.32 54.7504 173.683 55.3132 172.008 55.684L169.13 56.3234C167.621 56.7454 166.547 57.308 165.882 57.9858C165.332 58.817 165.026 59.7888 165 60.7862C164.949 61.9116 165.358 63.0114 166.125 63.8426C166.88 64.5204 167.967 64.8528 169.373 64.8528C171.701 64.8528 173.542 64.175 174.885 62.8196C176.215 61.464 176.88 59.597 176.88 57.2186V54.0344V54.0216ZM178.875 69.6866C177.148 70.6072 175.256 71.1828 173.312 71.4002C171.586 71.592 169.847 71.707 168.12 71.7198C165.294 71.771 162.532 70.9014 160.243 69.239C157.992 67.5766 156.867 64.84 156.867 61.0164C156.867 57.4486 157.903 54.9168 159.936 53.3822C161.982 51.8476 164.591 50.8374 167.749 50.326C168.261 50.3132 168.76 50.2492 169.246 50.1342C169.91 49.9934 170.575 49.8912 171.24 49.8144C174.91 49.303 176.739 48.2032 176.739 46.4896C176.739 45.2108 176.087 44.3924 174.795 44.0088C173.644 43.6508 172.442 43.459 171.24 43.4334C170.179 43.4206 169.118 43.5868 168.12 43.9448C167.212 44.2774 166.496 44.9678 166.125 45.8502H157.749C158.031 43.3182 159.284 40.978 161.253 39.354C163.504 37.3976 166.714 36.4256 170.87 36.4256C175.537 36.4256 179.041 37.2312 181.368 38.8426C183.785 40.5434 185 42.909 185 45.978V57.5638C185 60.9654 184.399 63.6124 183.184 65.5306C182.148 67.2824 180.665 68.7146 178.875 69.6738M138.005 71.0676V54.6482C138.005 51.3362 138.478 48.5612 139.437 46.3106C140.281 44.2134 141.637 42.3464 143.376 40.9014C145.026 39.597 146.905 38.638 148.939 38.1008C151.074 37.4998 153.286 37.2058 155.499 37.2058H156.752V46.2466H153.875C151.445 46.2466 149.655 46.8348 148.491 48.0242C147.327 49.2134 146.739 51.0804 146.739 53.6252V71.0676H137.992H138.005ZM128.619 54.0088C127.059 54.7376 125.435 55.3004 123.747 55.6712L120.87 56.3106C119.373 56.7326 118.286 57.2952 117.621 57.973C117.072 58.8042 116.765 59.776 116.739 60.7736C116.688 61.8988 117.097 63.0114 117.877 63.8298C118.619 64.5076 119.706 64.84 121.125 64.84C123.465 64.84 125.294 64.1622 126.637 62.8068C127.967 61.4512 128.632 59.5842 128.632 57.2058V54.0216L128.619 54.0088ZM130.627 69.6738C128.9 70.5944 127.008 71.17 125.064 71.4002C123.338 71.592 121.611 71.707 119.872 71.7198C117.046 71.771 114.284 70.9014 111.995 69.239C109.744 67.5766 108.619 64.84 108.619 61.0164C108.619 57.4486 109.629 54.9168 111.688 53.3822C113.734 51.8476 116.33 50.8374 119.501 50.326C120 50.326 120.511 50.2492 120.997 50.1342C121.662 49.9934 122.327 49.8912 122.992 49.8144C126.662 49.303 128.504 48.2032 128.504 46.4896C128.504 45.2108 127.852 44.3924 126.56 44.0088C125.409 43.6508 124.207 43.459 122.992 43.4334C121.931 43.4206 120.87 43.5868 119.872 43.9448C118.964 44.2646 118.248 44.9678 117.877 45.863H109.501C109.783 43.331 111.036 41.0036 113.005 39.3668C115.256 37.4104 118.465 36.4384 122.621 36.4384C127.289 36.4384 130.793 37.244 133.12 38.8554C135.537 40.556 136.739 42.9218 136.739 45.9908V57.5766C136.739 60.9782 136.138 63.6252 134.923 65.5434C133.887 67.2952 132.391 68.7146 130.614 69.6866L130.627 69.6738ZM99.2456 54.2646C99.2456 50.9526 98.619 48.4078 97.3784 46.6302C96.138 44.8528 94.335 43.9576 91.9948 43.9576C89.8976 43.881 87.9156 44.8912 86.752 46.6302C85.5754 48.2544 85 50.799 85 54.2774C85 57.4998 85.6266 59.9296 86.867 61.528C88.133 63.3054 89.9104 64.2006 92.2506 64.2006C94.3094 64.2518 96.2404 63.2416 97.3784 61.528C98.619 59.7376 99.2456 57.3208 99.2456 54.2646ZM85 79.239C85.0128 80.3898 84.5652 81.4896 83.7468 82.2952C82.9668 83.1264 81.8798 83.5868 80.7416 83.574H76.4962V51.8604C76.4962 45.9142 78.197 41.8604 81.624 39.6994C84.9488 37.5638 88.8108 36.4384 92.7494 36.4512C94.9104 36.464 97.046 36.8732 99.0664 37.666C101.036 38.3566 102.775 39.5714 104.118 41.17C106.624 44.482 107.864 48.7274 107.877 53.9064C107.877 59.2518 106.624 63.5868 104.118 66.8988C101.611 70.1342 98.4144 71.7454 94.5012 71.7454C92.5958 71.7966 90.7162 71.4002 89.0026 70.5944C87.3018 69.7122 85.908 68.3438 85 66.6558V79.2646V79.239ZM67.1228 54.0216C65.5626 54.7504 63.9258 55.3132 62.2506 55.684L59.3862 56.3106C57.8772 56.7454 56.803 57.2952 56.1382 57.9602C55.5882 58.7914 55.2814 59.7632 55.2686 60.7608C55.2174 61.886 55.6266 62.9986 56.3938 63.817C57.1484 64.4948 58.2224 64.84 59.642 64.8272C61.982 64.8272 63.8108 64.1494 65.1406 62.7812C66.4706 61.4256 67.1356 59.5714 67.1356 57.1802V53.996L67.1228 54.0216ZM69.1304 69.6866C67.404 70.6072 65.5114 71.1828 63.5678 71.4128C61.8414 71.6048 60.115 71.7198 58.376 71.7326C55.5498 71.7838 52.7878 70.9142 50.4988 69.2518C48.248 67.5894 47.1228 64.8528 47.1228 61.0292C47.1228 57.4614 48.1458 54.9168 50.1918 53.395C52.2378 51.8604 54.8338 50.8502 58.0052 50.3388C58.5038 50.3388 59.0154 50.262 59.5012 50.1468C60.0896 50.019 60.7544 49.9168 61.4962 49.8272C65.1662 49.3156 66.9948 48.216 66.9948 46.5152C66.9948 45.2364 66.3554 44.418 65.064 44.0344C63.913 43.6636 62.6982 43.4718 61.4962 43.4462C60.4348 43.4334 59.3734 43.5996 58.376 43.9576C57.468 44.2902 56.752 44.9806 56.381 45.863H48.0052C48.2864 43.331 49.5396 40.9908 51.509 39.3668C53.7468 37.4104 56.9566 36.4384 61.138 36.4384C65.7928 36.4384 69.3094 37.244 71.6368 38.8554C74.0538 40.556 75.2686 42.9346 75.2686 45.9908V57.5766C75.2686 60.9782 74.6676 63.6252 73.4526 65.5434C72.4168 67.2952 70.9334 68.7274 69.1432 69.6866H69.1304ZM23.491 79.239C23.5038 80.377 23.0562 81.4896 22.2506 82.2952C21.4706 83.1136 20.3836 83.574 19.2455 83.574H15V51.8604C15 45.9142 16.7135 41.8604 20.1278 39.6994C23.4398 37.5638 27.3018 36.4384 31.2532 36.4512C33.4144 36.464 35.5498 36.8732 37.5704 37.666C39.5396 38.3566 41.2916 39.5714 42.6342 41.17C45.1406 44.482 46.381 48.7274 46.3938 53.9064C46.3938 59.2518 45.1406 63.5868 42.6342 66.8988C40.1278 70.1342 36.9182 71.7454 33.0052 71.7454C31.0998 71.7838 29.22 71.3874 27.4936 70.5944C25.7928 69.7122 24.399 68.3438 23.491 66.6558V79.2646V79.239ZM37.7494 54.2646C37.7494 50.9526 37.1228 48.4078 35.8696 46.6302C34.6292 44.8528 32.8388 43.9576 30.4988 43.9576C28.4016 43.881 26.4194 44.8912 25.243 46.6302C24.0792 48.2544 23.491 50.799 23.491 54.2774C23.491 57.4998 24.1176 59.9296 25.3708 61.528C26.624 63.3182 28.4144 64.2134 30.7544 64.2006C32.8132 64.2518 34.7442 63.2416 35.8696 61.528C37.1228 59.7504 37.7494 57.3336 37.7494 54.2646Z" fill="url(#paint0_linear_147_1136)" style="mix-blend-mode:darken"/>
<path d="M134.128 82.596V77.076L133.444 77.04V76.02H136.324V76.992L135.928 77.028C135.696 77.052 135.58 77.18 135.58 77.412V80.052L138.028 77.076L137.356 77.04V76.02H140.164V76.992L139.768 77.028C139.616 77.044 139.456 77.156 139.288 77.364L137.584 79.452L139.708 82.944L140.344 82.98V84H137.272V83.028L137.644 82.992C137.804 82.976 137.884 82.912 137.884 82.8C137.884 82.752 137.864 82.688 137.824 82.608L136.636 80.556L135.58 81.828V82.944L136.264 82.98V84H133.384V83.028L133.78 82.992C133.9 82.976 133.988 82.944 134.044 82.896C134.1 82.84 134.128 82.74 134.128 82.596ZM143.621 83.124C144.493 83.124 144.929 82.42 144.929 81.012C144.929 80.3 144.829 79.76 144.629 79.392C144.437 79.024 144.109 78.84 143.645 78.84C143.189 78.84 142.853 79.016 142.637 79.368C142.421 79.72 142.313 80.2 142.313 80.808C142.313 81.936 142.521 82.644 142.937 82.932C143.121 83.06 143.349 83.124 143.621 83.124ZM140.861 80.976C140.861 80.384 140.949 79.872 141.125 79.44C141.301 79 141.537 78.664 141.833 78.432C142.401 78 143.029 77.784 143.717 77.784C144.197 77.784 144.601 77.864 144.929 78.024C145.265 78.176 145.525 78.356 145.709 78.564C145.901 78.764 146.061 79.06 146.189 79.452C146.325 79.836 146.393 80.292 146.393 80.82C146.393 81.924 146.125 82.76 145.589 83.328C145.053 83.896 144.365 84.18 143.525 84.18C142.693 84.18 142.041 83.912 141.569 83.376C141.097 82.832 140.861 82.032 140.861 80.976ZM149.349 75.444V83.004L150.033 83.04V84H147.177V83.088L147.573 83.052C147.805 83.028 147.921 82.9 147.921 82.668V76.752C147.921 76.576 147.821 76.48 147.621 76.464L147.201 76.44V75.444H149.349ZM156.163 78.204V82.668C156.163 82.796 156.183 82.884 156.223 82.932C156.271 82.98 156.351 83.008 156.463 83.016L156.847 83.04V84H154.939V83.304L154.903 83.292C154.503 83.868 153.955 84.156 153.259 84.156C152.443 84.156 151.839 83.896 151.447 83.376C151.055 82.856 150.859 82.144 150.859 81.24C150.859 80.152 151.123 79.304 151.651 78.696C152.179 78.088 152.971 77.784 154.027 77.784C154.707 77.784 155.419 77.924 156.163 78.204ZM154.771 82.092V78.984C154.547 78.88 154.239 78.828 153.847 78.828C153.311 78.828 152.923 79.044 152.683 79.476C152.443 79.908 152.323 80.48 152.323 81.192C152.323 82.488 152.739 83.136 153.571 83.136C153.923 83.136 154.211 83.032 154.435 82.824C154.659 82.608 154.771 82.364 154.771 82.092ZM162 83.772V82.86C161.56 83.484 160.912 83.796 160.056 83.796C158.816 83.796 158.196 83.104 158.196 81.72V79.308C158.196 79.092 158.096 78.98 157.896 78.972L157.512 78.948V77.964H159.624V81.408C159.624 81.832 159.684 82.152 159.804 82.368C159.924 82.584 160.172 82.692 160.548 82.692C160.924 82.692 161.224 82.576 161.448 82.344C161.68 82.112 161.796 81.832 161.796 81.504V79.332C161.796 79.196 161.772 79.104 161.724 79.056C161.684 79 161.608 78.972 161.496 78.972L161.112 78.948V77.964H163.224V83.772C163.224 84.74 162.988 85.448 162.516 85.896C162.052 86.344 161.344 86.568 160.392 86.568C159.448 86.568 158.712 86.436 158.184 86.172V84.504L159.324 84.408V84.984C159.324 85.2 159.424 85.344 159.624 85.416C159.824 85.496 160.1 85.536 160.452 85.536C161.484 85.536 162 84.948 162 83.772ZM165.134 85.14V79.332C165.134 79.196 165.11 79.104 165.062 79.056C165.022 79 164.946 78.972 164.834 78.972L164.33 78.936V77.964H166.358V78.744C166.486 78.504 166.718 78.284 167.054 78.084C167.39 77.884 167.79 77.784 168.254 77.784C169.702 77.784 170.426 78.8 170.426 80.832C170.426 81.912 170.19 82.74 169.718 83.316C169.246 83.892 168.606 84.18 167.798 84.18C167.318 84.18 166.89 84.064 166.514 83.832V85.488L167.486 85.536V86.484H164.39V85.572L164.786 85.536C164.906 85.52 164.994 85.484 165.05 85.428C165.106 85.38 165.134 85.284 165.134 85.14ZM168.938 80.952C168.938 79.616 168.534 78.948 167.726 78.948C167.39 78.948 167.102 79.052 166.862 79.26C166.63 79.46 166.514 79.7 166.514 79.98V82.74C166.818 82.94 167.186 83.04 167.618 83.04C168.058 83.04 168.386 82.84 168.602 82.44C168.826 82.04 168.938 81.544 168.938 80.952ZM176.671 78.204V82.668C176.671 82.796 176.691 82.884 176.731 82.932C176.779 82.98 176.859 83.008 176.971 83.016L177.355 83.04V84H175.447V83.304L175.411 83.292C175.011 83.868 174.463 84.156 173.767 84.156C172.951 84.156 172.347 83.896 171.955 83.376C171.563 82.856 171.367 82.144 171.367 81.24C171.367 80.152 171.631 79.304 172.159 78.696C172.687 78.088 173.479 77.784 174.535 77.784C175.215 77.784 175.927 77.924 176.671 78.204ZM175.279 82.092V78.984C175.055 78.88 174.747 78.828 174.355 78.828C173.819 78.828 173.431 79.044 173.191 79.476C172.951 79.908 172.831 80.48 172.831 81.192C172.831 82.488 173.247 83.136 174.079 83.136C174.431 83.136 174.719 83.032 174.943 82.824C175.167 82.608 175.279 82.364 175.279 82.092ZM182.507 83.772V82.86C182.067 83.484 181.419 83.796 180.563 83.796C179.323 83.796 178.703 83.104 178.703 81.72V79.308C178.703 79.092 178.603 78.98 178.403 78.972L178.019 78.948V77.964H180.131V81.408C180.131 81.832 180.191 82.152 180.311 82.368C180.431 82.584 180.679 82.692 181.055 82.692C181.431 82.692 181.731 82.576 181.955 82.344C182.187 82.112 182.303 81.832 182.303 81.504V79.332C182.303 79.196 182.279 79.104 182.231 79.056C182.191 79 182.115 78.972 182.003 78.972L181.619 78.948V77.964H183.731V83.772C183.731 84.74 183.495 85.448 183.023 85.896C182.559 86.344 181.851 86.568 180.899 86.568C179.955 86.568 179.219 86.436 178.691 86.172V84.504L179.831 84.408V84.984C179.831 85.2 179.931 85.344 180.131 85.416C180.331 85.496 180.607 85.536 180.959 85.536C181.991 85.536 182.507 84.948 182.507 83.772Z" fill="#4E687D"/>
<defs>
<linearGradient id="paint0_linear_147_1136" x1="15" y1="60" x2="181.5" y2="60" gradientUnits="userSpaceOnUse">
<stop stop-color="#D5475F"/>
<stop offset="1" stop-color="#952A8A"/>
</linearGradient>
</defs>
</svg>
