<svg width="56" height="56" viewBox="0 0 56 56" fill="none" xmlns="http://www.w3.org/2000/svg">
<path d="M50 0H6C2.68629 0 0 2.68629 0 6V50C0 53.3137 2.68629 56 6 56H50C53.3137 56 56 53.3137 56 50V6C56 2.68629 53.3137 0 50 0Z" fill="#292562"/>
<path d="M10.1508 0C7.45884 0.000706144 4.87736 1.07039 2.97388 2.97388C1.07039 4.87736 0.000706183 7.45884 3.89118e-08 10.1508L3.89118e-08 45.8455C-0.00023552 48.538 1.06903 51.1204 2.97262 53.0247C4.87621 54.9289 7.45823 55.9991 10.1508 55.9998H45.8455C48.538 56 51.1204 54.9308 53.0247 53.0272C54.9289 51.1236 55.9991 48.5416 55.9998 45.849V10.1543C56 7.46178 54.9308 4.87939 53.0272 2.97513C51.1236 1.07088 48.5416 0.000706388 45.849 0H10.1508Z" fill="#292562"/>
<path d="M10.1508 0C7.45884 0.000706144 4.87736 1.07039 2.97388 2.97388C1.07039 4.87736 0.000706183 7.45884 3.89118e-08 10.1508L3.89118e-08 45.8455C-0.00023552 48.538 1.06903 51.1204 2.97262 53.0247C4.87621 54.9289 7.45823 55.9991 10.1508 55.9998H45.8455C48.538 56 51.1204 54.9308 53.0247 53.0272C54.9289 51.1236 55.9991 48.5416 55.9998 45.849V10.1543C56 7.46178 54.9308 4.87939 53.0272 2.97513C51.1236 1.07087 48.5416 0.000706388 45.849 0H10.1508Z" fill="#292562"/>
<path d="M37.9852 21.1122H55.9994V35.8589H37.9852C36.0296 35.8589 34.1542 35.082 32.7714 33.6993C31.3886 32.3165 30.6118 30.4411 30.6118 28.4855C30.6118 26.53 31.3886 24.6546 32.7714 23.2718C34.1542 21.889 36.0296 21.1122 37.9852 21.1122" fill="#F1F2F2"/>
<path d="M38.132 22.6926C36.6074 22.7115 35.1518 23.3304 34.0804 24.4151C33.009 25.4998 32.4082 26.963 32.4082 28.4877C32.4082 30.0123 33.009 31.4755 34.0804 32.5603C35.1518 33.645 36.6074 34.2639 38.132 34.2827H55.9997V22.6926H38.132Z" fill="#292562"/>
<path d="M41.5519 28.4243C41.5519 28.978 41.3877 29.5193 41.0801 29.9797C40.7725 30.4401 40.3352 30.7989 39.8236 31.0108C39.3121 31.2227 38.7492 31.2781 38.2061 31.1701C37.663 31.0621 37.1642 30.7954 36.7726 30.4039C36.3811 30.0124 36.1145 29.5135 36.0064 28.9704C35.8984 28.4274 35.9539 27.8645 36.1658 27.3529C36.3776 26.8413 36.7365 26.4041 37.1969 26.0965C37.6573 25.7888 38.1986 25.6246 38.7523 25.6246C39.1199 25.6246 39.484 25.697 39.8236 25.8377C40.1633 25.9784 40.4719 26.1847 40.7319 26.4446C40.9919 26.7046 41.1981 27.0132 41.3388 27.3529C41.4795 27.6926 41.5519 28.0566 41.5519 28.4243" fill="white"/>
</svg>
